<?xml version="1.0" encoding="UTF-8"?>
<svg version="1.1" xmlns="http://www.w3.org/2000/svg" width="644" height="196">
<path d="M0 0 C212.52 0 425.04 0 644 0 C644 64.68 644 129.36 644 196 C431.48 196 218.96 196 0 196 C0 131.32 0 66.64 0 0 Z " fill="#000000" transform="translate(0,0)"/>
<path d="M0 0 C0.33 0 0.66 0 1 0 C1.33 33 1.66 66 2 100 C9.7760036 103.97044951 9.7760036 103.97044951 17.75 107.5 C22.01091246 109.46657498 25.39610021 112.02162917 29 115 C29.93392578 115.70189453 29.93392578 115.70189453 30.88671875 116.41796875 C37.2733998 121.80716382 38.74051703 129.27854373 41 137 C41.33 137.66 41.66 138.32 42 139 C42.07181821 141.71760108 42.09299506 144.40859388 42.0625 147.125 C42.05798828 147.87910156 42.05347656 148.63320312 42.04882812 149.41015625 C42.03703499 151.27347127 42.01909942 153.13674555 42 155 C42.66 155 43.32 155 44 155 C44 143.12 44 131.24 44 119 C50.13258223 120.83977467 55.45277616 122.46589879 61.1875 125 C62.31542969 125.495 63.44335938 125.99 64.60546875 126.5 C65.72566406 126.995 66.84585938 127.49 68 128 C69.79824219 128.70962891 69.79824219 128.70962891 71.6328125 129.43359375 C78.72546138 132.73307426 83.66799088 138.33649142 86.5625 145.5625 C87.066258 147.03347335 87.55521723 148.51013323 88 150 C76.58595194 151.23580671 76.58595194 151.23580671 72.89453125 148.359375 C71.79450721 146.94841779 70.72902263 145.50987094 69.69921875 144.046875 C66.80705366 140.56297958 63.18040406 139.54353381 59 138 C59 143.61 59 149.22 59 155 C75.17 155 91.34 155 108 155 C108.12375 159.846875 108.2475 164.69375 108.375 169.6875 C108.45693604 171.96853638 108.45693604 171.96853638 108.54052734 174.2956543 C108.66044438 183.94381766 108.66044438 183.94381766 106.71899414 187.04858398 C104.10420155 189.28304311 101.34473352 190.3806049 98 191 C97.67 191.66 97.34 192.32 97 193 C10.87 193 -75.26 193 -164 193 C-164 181.78 -164 170.56 -164 159 C-163.34 159 -162.68 159 -162 159 C-162 157.68 -162 156.36 -162 155 C-155.4 155 -148.8 155 -142 155 C-142 152.03 -142 149.06 -142 146 C-138.8916096 137.49902324 -132.04319891 130.71454159 -123.9375 126.875 C-115.53070508 123.49177766 -106.94070754 120.49011792 -98 119 C-98 130.88 -98 142.76 -98 155 C-97.34 155 -96.68 155 -96 155 C-96.04640625 153.91203125 -96.0928125 152.8240625 -96.140625 151.703125 C-96.58109125 137.09099079 -93.98896706 126.24670197 -84 115 C-76.15414995 107.6863297 -66.04017969 104.10487576 -56.1875 100.3125 C-55.15173828 99.90966797 -54.11597656 99.50683594 -53.04882812 99.09179688 C-45.55803571 96.1860119 -45.55803571 96.1860119 -42 95 C-42 114.8 -42 134.6 -42 155 C-39.36 155 -36.72 155 -34 155 C-34.06121344 143.87318304 -34.13832151 132.74660059 -34.23571491 121.62003803 C-34.28043956 116.453495 -34.31969115 111.2870312 -34.34643555 106.12036133 C-34.3724475 101.13408948 -34.41283516 96.14812221 -34.46318626 91.1620388 C-34.47986921 89.25989763 -34.49137459 87.35770375 -34.49761391 85.45549965 C-34.50723943 82.79072781 -34.53528001 80.1267377 -34.56762695 77.4621582 C-34.56619186 76.67597107 -34.56475677 75.88978394 -34.5632782 75.07977295 C-34.65959007 69.46850404 -35.90212019 66.25327832 -39.6875 62.1875 C-40.120625 61.795625 -40.55375 61.40375 -41 61 C-40.28714844 60.33355469 -39.57429688 59.66710938 -38.83984375 58.98046875 C-32.42637004 52.85510249 -27.47402931 46.7219398 -23 39 C-22.34 38.01 -21.68 37.02 -21 36 C-20.34 36 -19.68 36 -19 36 C-19.495 94.905 -19.495 94.905 -20 155 C-17.36 155 -14.72 155 -12 155 C-12.06053896 139.17940532 -12.13804188 123.35899051 -12.23571491 107.53858662 C-12.28067163 100.19281258 -12.32008652 92.847087 -12.34643555 85.5012207 C-12.36941671 79.09820978 -12.4028159 72.69535226 -12.44870156 66.292463 C-12.47263241 62.90246984 -12.49136199 59.51262857 -12.49761391 56.12255287 C-12.5072141 52.3370864 -12.53522595 48.55217601 -12.56762695 44.7668457 C-12.56619186 43.64403198 -12.56475677 42.52121826 -12.5632782 41.36437988 C-12.57581635 40.33097977 -12.58835449 39.29757965 -12.60127258 38.23286438 C-12.60818603 36.8902729 -12.60818603 36.8902729 -12.61523914 35.52055836 C-13.08752789 32.42660707 -14.18956798 30.53287462 -16 28 C-18.06700655 26.67206394 -18.06700655 26.67206394 -20 26 C-20 25.34 -20 24.68 -20 24 C-19.175 23.484375 -18.35 22.96875 -17.5 22.4375 C-9.15822059 17.08616981 -4.28609231 8.685831 0 0 Z " fill="#0C4680" transform="translate(164,3)"/>
<path d="M0 0 C4.29 0.66 8.58 1.32 13 2 C16.66133285 2.17609472 20.2451452 2.28616985 23.90242004 2.2784729 C24.91808145 2.2842653 25.93374285 2.2900577 26.98018187 2.29602563 C30.33944177 2.31285523 33.69856288 2.3158873 37.05786133 2.31884766 C39.48339671 2.32815762 41.90892892 2.33832786 44.3344574 2.34928894 C49.53386269 2.37086628 54.73324903 2.38652592 59.93268776 2.39665604 C67.44997156 2.41131249 74.96718812 2.43686826 82.48443218 2.46498732 C94.68402087 2.51032957 106.88361932 2.54699598 119.08325195 2.578125 C130.92604278 2.60836225 142.76880982 2.64273609 154.61157227 2.68261719 C155.70865053 2.68630951 155.70865053 2.68630951 156.82789198 2.69007643 C160.49745549 2.70245203 164.16701873 2.71490837 167.83658183 2.72740483 C198.22435527 2.83078421 228.61215574 2.91990331 259 3 C259.06263516 6.23018482 259.07120606 8.76603724 258.125 11.875 C255.47245693 14.52754307 254.47108503 14.3073252 250.8125 14.3125 C249.20696626 14.23210847 247.60184626 14.1352403 246 14 C246 14.66 246 15.32 246 16 C243.36 16 240.72 16 238 16 C238 19.96 238 23.92 238 28 C159.46 28 80.92 28 0 28 C0 18.76 0 9.52 0 0 Z " fill="#000102" transform="translate(0,168)"/>
<path d="M0 0 C1.2065625 0.0309375 1.2065625 0.0309375 2.4375 0.0625 C6.80796912 8.47543727 10.6025528 17.01377176 14.125 25.8125 C14.83366211 27.56240234 14.83366211 27.56240234 15.55664062 29.34765625 C17.92958639 35.22510678 20.23927974 41.11762761 22.4375 47.0625 C23.09816719 48.73155395 23.76188252 50.3994416 24.4375 52.0625 C27.71332629 52.23491191 29.45856577 52.26989104 32.4375 51.0625 C34.51247319 48.6891037 35.94700264 46.19994093 37.5 43.45703125 C40.12659029 38.8552027 43.13794953 34.5466482 46.14990234 30.19091797 C48.2013402 27.16229931 49.69490134 24.63972328 50.4375 21.0625 C48.33254036 21.12255591 46.22838565 21.21135359 44.125 21.3125 C42.36736328 21.38210937 42.36736328 21.38210937 40.57421875 21.453125 C37.37349108 21.76780987 37.37349108 21.76780987 35.5625 23.96875 C34.46202921 26.01684841 33.8450979 27.77995174 33.4375 30.0625 C32.7775 30.0625 32.1175 30.0625 31.4375 30.0625 C31.38360913 28.10446493 31.34475783 26.14601091 31.3125 24.1875 C31.28929687 23.09695312 31.26609375 22.00640625 31.2421875 20.8828125 C31.4375 18.0625 31.4375 18.0625 33.4375 16.0625 C36.16235728 15.88732253 38.78409362 15.83100867 41.5078125 15.8671875 C42.30404022 15.8700174 43.10026794 15.87284729 43.92062378 15.87576294 C46.46806763 15.8869736 49.01516211 15.91207938 51.5625 15.9375 C53.28775535 15.94752867 55.01301619 15.95665472 56.73828125 15.96484375 C60.97148914 15.98691578 65.2044353 16.02145133 69.4375 16.0625 C67.26715917 20.52059865 64.69976974 24.70434603 62.125 28.9375 C61.65126953 29.72769531 61.17753906 30.51789063 60.68945312 31.33203125 C57.89974968 35.91920435 54.9508021 40.00634393 51.4375 44.0625 C50.40392853 45.70855826 49.39689668 47.37213442 48.4375 49.0625 C47.7775 50.0525 47.1175 51.0425 46.4375 52.0625 C54.3575 52.0625 62.2775 52.0625 70.4375 52.0625 C70.4375 54.0425 70.4375 56.0225 70.4375 58.0625 C63.32108165 58.21514302 56.20508831 58.31992188 49.08740234 58.39208984 C46.66829655 58.42218708 44.2492992 58.46307519 41.83056641 58.51513672 C38.34510489 58.58825829 34.86109094 58.62202867 31.375 58.6484375 C30.30072754 58.67940521 29.22645508 58.71037292 28.11962891 58.74227905 C21.74167613 58.74511152 17.96987015 57.87761745 13.06079102 53.71450806 C6.4375 46.97404685 6.4375 46.97404685 6.4375 42.0625 C-1.1525 42.0625 -8.7425 42.0625 -16.5625 42.0625 C-17.5525 45.0325 -18.5425 48.0025 -19.5625 51.0625 C-20.53631959 53.40688048 -21.52690702 55.74474427 -22.5625 58.0625 C-24.5425 58.0625 -26.5225 58.0625 -28.5625 58.0625 C-27.07381367 53.30018503 -25.18068108 48.78834297 -23.125 44.25 C-22.41213143 42.66304281 -21.69993175 41.07578504 -20.98828125 39.48828125 C-20.60236816 38.62799316 -20.21645508 37.76770508 -19.81884766 36.88134766 C-18.44323433 33.79490547 -17.08514614 30.70115576 -15.73046875 27.60546875 C-15.00525024 25.94898315 -15.00525024 25.94898315 -14.26538086 24.2590332 C-13.31557225 22.08760888 -12.36711026 19.9155949 -11.42016602 17.74291992 C-3.6861566 0.08990626 -3.6861566 0.08990626 0 0 Z " fill="#08437C" transform="translate(435.5625,33.9375)"/>
<path d="M0 0 C2.58445773 -0.1081866 5.16437352 -0.18737237 7.75 -0.25 C8.47960937 -0.28351562 9.20921875 -0.31703125 9.9609375 -0.3515625 C13.42030461 -0.41446008 15.58380968 -0.27572609 18.5 1.65625 C20.37235284 4.58180131 20.41403232 6.3053212 20.25 9.75 C20.21390625 10.73484375 20.1778125 11.7196875 20.140625 12.734375 C20.07101562 13.85585938 20.07101562 13.85585938 20 15 C20.75925781 14.6803125 21.51851562 14.360625 22.30078125 14.03125 C25.93131811 12.64418527 28.11231919 12.49014022 32 13 C36.82616264 15.29713747 41.00514417 17.50771625 44 22 C44 22.99 44 23.98 44 25 C44.66 25 45.32 25 46 25 C46.02465504 29.39656173 46.04283842 33.7930872 46.05493164 38.18969727 C46.05997121 39.68644918 46.06680287 41.18319616 46.07543945 42.67993164 C46.08752159 44.82699807 46.09323191 46.97399962 46.09765625 49.12109375 C46.10289307 50.4145874 46.10812988 51.70808105 46.11352539 53.04077148 C46 56 46 56 45 57 C42.81360547 57.07258946 40.62499611 57.08373783 38.4375 57.0625 C36.64119141 57.04896484 36.64119141 57.04896484 34.80859375 57.03515625 C33.88175781 57.02355469 32.95492187 57.01195312 32 57 C31.98541748 55.98574951 31.97083496 54.97149902 31.95581055 53.92651367 C31.89783747 50.16345971 31.82060541 46.40100479 31.73754883 42.63842773 C31.70429464 41.00994591 31.67626416 39.38134869 31.65356445 37.75268555 C31.62002643 35.41144639 31.56771415 33.07126514 31.51171875 30.73046875 C31.50532883 30.00224411 31.4989389 29.27401947 31.49235535 28.52372742 C31.41131203 25.73763934 31.23364341 23.46314126 29.96801758 20.9543457 C27.1526679 19.3684829 27.1526679 19.3684829 20 21 C20 32.88 20 44.76 20 57 C15.71 57 11.42 57 7 57 C6 56 6 56 5.87974548 53.82969666 C5.8830764 52.39407127 5.8830764 52.39407127 5.88647461 50.92944336 C5.88658791 49.30787575 5.88658791 49.30787575 5.88670349 47.65354919 C5.89186478 46.4775264 5.89702606 45.3015036 5.90234375 44.08984375 C5.9037587 42.89267227 5.90517365 41.69550079 5.90663147 40.46205139 C5.91225021 36.62050934 5.92480589 32.77902457 5.9375 28.9375 C5.94251259 26.34049563 5.94707591 23.74349035 5.95117188 21.14648438 C5.96222573 14.76430321 5.97898208 8.3821557 6 2 C4.02 2 2.04 2 0 2 C0 1.34 0 0.68 0 0 Z " fill="#063D74" transform="translate(504,35)"/>
<path d="M0 0 C1.2065625 0.0309375 1.2065625 0.0309375 2.4375 0.0625 C2.92105957 1.21137695 3.40461914 2.36025391 3.90283203 3.54394531 C5.72156845 7.86205341 7.54558527 12.17791506 9.37109375 16.49316406 C10.15603384 18.35064116 10.93959692 20.20870085 11.72167969 22.06738281 C17.0279414 34.69585402 17.0279414 34.69585402 22.6796875 47.171875 C23.30786377 48.50943848 23.30786377 48.50943848 23.94873047 49.87402344 C25.73957809 52.50655182 27.69921687 53.51040413 30.4375 55.0625 C30.4375 55.7225 30.4375 56.3825 30.4375 57.0625 C16.49102803 57.92221403 16.49102803 57.92221403 12.8125 55.125 C10.4375 52.0625 10.4375 52.0625 6.4375 43.0625 C-1.1525 42.7325 -8.7425 42.4025 -16.5625 42.0625 C-17.2225 44.0425 -17.8825 46.0225 -18.5625 48.0625 C-19.40290805 49.87065065 -20.27667058 51.66377956 -21.1875 53.4375 C-21.85652344 54.74847656 -21.85652344 54.74847656 -22.5390625 56.0859375 C-23.04566406 57.06433594 -23.04566406 57.06433594 -23.5625 58.0625 C-25.2125 58.0625 -26.8625 58.0625 -28.5625 58.0625 C-27.90370521 53.01511836 -25.74597646 48.75386388 -23.625 44.1875 C-19.65167973 35.51909887 -15.82251066 26.79799752 -12.10180664 18.01806641 C-4.41295207 0.10763298 -4.41295207 0.10763298 0 0 Z " fill="#08407A" transform="translate(335.5625,33.9375)"/>
<path d="M0 0 C5.72351017 2.49792664 10.07303064 6.73981129 12.87109375 12.3359375 C12.95696184 14.66010046 12.97820418 16.98677057 12.96875 19.3125 C12.96733505 19.9977475 12.9659201 20.682995 12.96446228 21.38900757 C12.9588605 23.57969511 12.94630781 25.7702808 12.93359375 27.9609375 C12.92857897 29.44531102 12.92401603 30.92968615 12.91992188 32.4140625 C12.90889052 36.05472065 12.89162474 39.69531914 12.87109375 43.3359375 C11.42713236 43.35455834 9.98310171 43.36786115 8.5390625 43.37890625 C7.7349292 43.38688232 6.9307959 43.3948584 6.10229492 43.40307617 C3.87109375 43.3359375 3.87109375 43.3359375 1.18359375 42.6484375 C-1.31194477 42.09026412 -1.31194477 42.09026412 -4.00390625 43.7734375 C-7.858676 45.70082237 -9.86264661 45.99794331 -14.12890625 45.3359375 C-17.87101018 43.11512446 -21.05923739 40.40560636 -24.12890625 37.3359375 C-24.74306187 32.82947097 -24.64945967 28.62362227 -22.94140625 24.3984375 C-18.90941966 19.81031483 -15.06529936 19.02090594 -9.12890625 18.3359375 C-8.79890625 18.0059375 -8.46890625 17.6759375 -8.12890625 17.3359375 C-5.45831774 17.19478589 -2.80458387 17.29346643 -0.12890625 17.3359375 C-0.3792069 13.08082642 -0.79099948 10.78647985 -3.37890625 7.3359375 C-5.8954084 5.15356187 -5.8954084 5.15356187 -8.56640625 5.0859375 C-12.3914387 6.95180699 -14.58690882 9.99028453 -17.12890625 13.3359375 C-18.44890625 13.0059375 -19.76890625 12.6759375 -21.12890625 12.3359375 C-21.12890625 9.6959375 -21.12890625 7.0559375 -21.12890625 4.3359375 C-14.04195763 0.19325354 -8.13881784 -2.53871382 0 0 Z " fill="#063F75" transform="translate(579.12890625,48.6640625)"/>
<path d="M0 0 C1.51289503 0.00031716 3.0258126 0.01164445 4.53857422 0.03173828 C5.33480194 0.03456818 6.13102966 0.03739807 6.9513855 0.04031372 C9.49882935 0.05152438 12.04592383 0.07663016 14.59326172 0.10205078 C16.31851706 0.11207945 18.04377791 0.1212055 19.76904297 0.12939453 C24.00225086 0.15146656 28.23519702 0.18600212 32.46826172 0.22705078 C30.29792089 4.68514943 27.73053146 8.86889681 25.15576172 13.10205078 C24.68203125 13.89224609 24.20830078 14.68244141 23.72021484 15.49658203 C20.9305114 20.08375513 17.98156382 24.17089471 14.46826172 28.22705078 C13.43469025 29.87310904 12.4276584 31.5366852 11.46826172 33.22705078 C10.80826172 34.21705078 10.14826172 35.20705078 9.46826172 36.22705078 C17.38826172 36.22705078 25.30826172 36.22705078 33.46826172 36.22705078 C33.46826172 38.20705078 33.46826172 40.18705078 33.46826172 42.22705078 C16.63826172 42.22705078 -0.19173828 42.22705078 -17.53173828 42.22705078 C-17.53173828 41.89705078 -17.53173828 41.56705078 -17.53173828 41.22705078 C-15.05673828 40.73205078 -15.05673828 40.73205078 -12.53173828 40.22705078 C-12.20173828 38.90705078 -11.87173828 37.58705078 -11.53173828 36.22705078 C-10.52111328 36.28892578 -9.51048828 36.35080078 -8.46923828 36.41455078 C-5.64707186 35.99122582 -4.72047933 35.45151152 -2.85986328 33.23876953 C-1.70762184 31.38695292 -0.59208625 29.51203484 0.49560547 27.62158203 C3.15917951 23.03812492 6.16701728 18.7140913 9.18041992 14.35546875 C11.23218243 11.326963 12.7256505 8.80433459 13.46826172 5.22705078 C11.36330208 5.28710669 9.25914737 5.37590437 7.15576172 5.47705078 C5.398125 5.54666016 5.398125 5.54666016 3.60498047 5.61767578 C0.4042528 5.93236065 0.4042528 5.93236065 -1.40673828 8.13330078 C-2.50720907 10.18139919 -3.12414038 11.94450252 -3.53173828 14.22705078 C-4.19173828 14.22705078 -4.85173828 14.22705078 -5.53173828 14.22705078 C-5.58562915 12.26901571 -5.62448045 10.31056169 -5.65673828 8.35205078 C-5.67994141 7.26150391 -5.70314453 6.17095703 -5.72705078 5.04736328 C-5.42330019 0.66120475 -4.30001301 0.27644215 0 0 Z " fill="#073C72" transform="translate(472.53173828125,49.77294921875)"/>
<path d="M0 0 C0 12.87 0 25.74 0 39 C-8.58 39 -17.16 39 -26 39 C-26 29.58039681 -25.56734291 18.282572 -19.0859375 10.78125 C-14.49185089 6.85820975 -6.18329112 0 0 0 Z " fill="#000103" transform="translate(108,120)"/>
<path d="M0 0 C6.54734848 0 6.54734848 0 10.50390625 3.73046875 C12.09434365 5.22224331 12.09434365 5.22224331 14.9375 6.125 C20.0932363 9.28157325 22.85899367 13.3775312 25 19 C25.80946707 25.03279617 25.31997874 30.92040388 25 37 C16.75 37 8.5 37 0 37 C0 24.79 0 12.58 0 0 Z " fill="#000204" transform="translate(165,121)"/>
<path d="M0 0 C3.3125 1.8125 3.3125 1.8125 6 4 C6 8 6 8 4.5 9.75 C4.005 10.1625 3.51 10.575 3 11 C0 10 0 10 -1.25 8.375 C-1.8275 7.92125 -2.405 7.4675 -3 7 C-5.31 7.33 -7.62 7.66 -10 8 C-10 19.55 -10 31.1 -10 43 C-14.29 43 -18.58 43 -23 43 C-24 42 -24 42 -24.11352539 38.58178711 C-24.11336628 37.06363012 -24.10767226 35.54546771 -24.09765625 34.02734375 C-24.0962413 33.22970108 -24.09482635 32.43205841 -24.09336853 31.61024475 C-24.08775316 29.05262565 -24.07519812 26.49509282 -24.0625 23.9375 C-24.05748698 22.20768355 -24.05292373 20.47786574 -24.04882812 18.74804688 C-24.03777875 14.49866447 -24.02050386 10.24934688 -24 6 C-25.98 5.34 -27.96 4.68 -30 4 C-29.67 3.01 -29.34 2.02 -29 1 C-27.10424749 0.97278824 -25.20838021 0.95350864 -23.3125 0.9375 C-22.25675781 0.92589844 -21.20101562 0.91429687 -20.11328125 0.90234375 C-17 1 -17 1 -14.32421875 1.59765625 C-11.73599737 2.26311528 -11.73599737 2.26311528 -8.5 0.5 C-4.77234209 -1.09756768 -3.69689204 -1.42188155 0 0 Z " fill="#08467F" transform="translate(624,49)"/>
<path d="M0 0 C2.79173055 -0.02690104 5.58320348 -0.04679053 8.375 -0.0625 C9.56609375 -0.07506836 9.56609375 -0.07506836 10.78125 -0.08789062 C16.7734375 -0.11328125 16.7734375 -0.11328125 19 1 C19 19.48 19 37.96 19 57 C15.37 57 11.74 57 8 57 C7.99589111 55.54182861 7.99178223 54.08365723 7.98754883 52.58129883 C7.96576397 47.16704037 7.9114798 41.75350929 7.84741211 36.33959961 C7.82422668 33.99722265 7.80983514 31.65474136 7.80444336 29.31225586 C7.79515824 25.94318584 7.7541743 22.57575809 7.70703125 19.20703125 C7.7109639 18.16102249 7.71489655 17.11501373 7.71894836 16.03730774 C7.61692289 9.99088026 7.61692289 9.99088026 4.58081055 4.86206055 C2.1721829 3.01914782 2.1721829 3.01914782 0 2 C0 1.34 0 0.68 0 0 Z " fill="#064786" transform="translate(360,34)"/>
<path d="M0 0 C1.2065625 0.0309375 1.2065625 0.0309375 2.4375 0.0625 C3.0975 1.7125 3.7575 3.3625 4.4375 5.0625 C3.1175 4.7325 1.7975 4.4025 0.4375 4.0625 C-0.2121875 5.3928125 -0.2121875 5.3928125 -0.875 6.75 C-2.33091842 9.60791393 -3.89135165 12.32789362 -5.5625 15.0625 C-5.8925 15.7225 -6.2225 16.3825 -6.5625 17.0625 C-5.799375 17.000625 -5.03625 16.93875 -4.25 16.875 C-1.5625 17.0625 -1.5625 17.0625 -0.00390625 18.30859375 C1.6049221 20.26621957 2.3674223 21.91921203 3.1875 24.3125 C3.58195312 25.40304688 3.58195312 25.40304688 3.984375 26.515625 C4.4375 29.0625 4.4375 29.0625 3.4375 36.0625 C-2.8325 36.0625 -9.1025 36.0625 -15.5625 36.0625 C-15.2325 37.3825 -14.9025 38.7025 -14.5625 40.0625 C-7.6325 40.3925 -0.7025 40.7225 6.4375 41.0625 C6.4375 41.3925 6.4375 41.7225 6.4375 42.0625 C-1.1525 42.0625 -8.7425 42.0625 -16.5625 42.0625 C-17.5525 45.0325 -18.5425 48.0025 -19.5625 51.0625 C-20.53631959 53.40688048 -21.52690702 55.74474427 -22.5625 58.0625 C-24.5425 58.0625 -26.5225 58.0625 -28.5625 58.0625 C-27.07381367 53.30018503 -25.18068108 48.78834297 -23.125 44.25 C-22.41213143 42.66304281 -21.69993175 41.07578504 -20.98828125 39.48828125 C-20.60236816 38.62799316 -20.21645508 37.76770508 -19.81884766 36.88134766 C-18.44323433 33.79490547 -17.08514614 30.70115576 -15.73046875 27.60546875 C-15.00525024 25.94898315 -15.00525024 25.94898315 -14.26538086 24.2590332 C-13.31557225 22.08760888 -12.36711026 19.9155949 -11.42016602 17.74291992 C-3.6861566 0.08990626 -3.6861566 0.08990626 0 0 Z " fill="#06376E" transform="translate(435.5625,33.9375)"/>
<path d="M0 0 C2.60478883 -0.0809313 5.20706653 -0.14045434 7.8125 -0.1875 C8.55048828 -0.21263672 9.28847656 -0.23777344 10.04882812 -0.26367188 C15.51406685 -0.33786064 15.51406685 -0.33786064 17.71577454 1.19294739 C19.45114798 3.63481699 19.36183087 5.22306796 19.34057617 8.20581055 C19.34034958 9.26668381 19.34012299 10.32755707 19.33988953 11.420578 C19.32440567 12.56440445 19.30892181 13.7082309 19.29296875 14.88671875 C19.28872391 16.05886429 19.28447906 17.23100983 19.28010559 18.43867493 C19.26329072 22.18851534 19.22563232 25.93782157 19.1875 29.6875 C19.17245684 32.22720579 19.1587678 34.76691999 19.14648438 37.30664062 C19.11337796 43.53794319 19.06315028 49.76893344 19 56 C16.03 56 13.06 56 10 56 C10 37.85 10 19.7 10 1 C6.7 1.33 3.4 1.66 0 2 C0 1.34 0 0.68 0 0 Z " fill="#0A4783" transform="translate(504,35)"/>
<path d="M0 0 C3.08283443 -0.14554346 6.16478439 -0.23413821 9.25 -0.3125 C10.12269531 -0.35439453 10.99539063 -0.39628906 11.89453125 -0.43945312 C18.37442012 -0.56311513 18.37442012 -0.56311513 21.62109375 2.359375 C23 5 23 5 22.8125 7.5625 C22.30414959 9.08755123 21.78502336 10.60910047 21.25 12.125 C21.1675 12.74375 21.085 13.3625 21 14 C21.474375 14.45375 21.94875 14.9075 22.4375 15.375 C24 17 24 17 24.3125 20.0625 C24 23 24 23 22 25 C15.24500436 28.13624798 12.04878717 28 4 28 C4 19.42 4 10.84 4 2 C2.68 2 1.36 2 0 2 C0 1.34 0 0.68 0 0 Z " fill="#052957" transform="translate(302,146)"/>
<path d="M0 0 C6.625 -0.25 6.625 -0.25 10 2 C10.1875 5.125 10.1875 5.125 10 8 C11.093125 7.95875 12.18625 7.9175 13.3125 7.875 C17 8 17 8 20 10 C20.22107787 12.7885289 20.28107535 15.34653181 20.1875 18.125 C20.16719727 19.25615234 20.16719727 19.25615234 20.14648438 20.41015625 C20.11109985 22.27374127 20.05729167 24.13695978 20 26 C18.02 26.33 16.04 26.66 14 27 C14 21.39 14 15.78 14 10 C12.68 10 11.36 10 10 10 C10 15.61 10 21.22 10 27 C7.751875 27.103125 5.50375 27.20625 3.1875 27.3125 C1.29064453 27.39951172 1.29064453 27.39951172 -0.64453125 27.48828125 C-4 27 -4 27 -5.921875 24.828125 C-7.68743603 20.19672578 -7.66799791 15.87863643 -7 11 C-5.375 8.3125 -5.375 8.3125 -3 7 C0.25 6.75 0.25 6.75 3 7 C3.33 5.35 3.66 3.7 4 2 C2.68 2 1.36 2 0 2 C0 1.34 0 0.68 0 0 Z " fill="#043367" transform="translate(390,146)"/>
<path d="M0 0 C0.99 0.33 1.98 0.66 3 1 C2.67 1.33 2.34 1.66 2 2 C2.99 2.33 3.98 2.66 5 3 C6.1875 5.0625 6.1875 5.0625 7 7 C7.67546875 6.566875 8.3509375 6.13375 9.046875 5.6875 C9.93890625 5.130625 10.8309375 4.57375 11.75 4 C13.07257812 3.1646875 13.07257812 3.1646875 14.421875 2.3125 C17 1 17 1 21 1 C21 5.29 21 9.58 21 14 C21.66 13.67 22.32 13.34 23 13 C23.0625 16.25 23.0625 16.25 22 20 C18.21200361 22.81463544 14.02534105 23.82011561 9.4375 24.625 C3.78326426 23.59695714 -0.01566147 19.98433853 -4 16 C-4.63404781 11.34757124 -4.56484228 7.20335963 -2.5625 2.9375 C-1 1 -1 1 0 0 Z " fill="#053B77" transform="translate(559,70)"/>
<path d="M0 0 C0.66 0 1.32 0 2 0 C2.95909551 2.22884145 3.91729837 4.45805968 4.875 6.6875 C5.14441406 7.31333984 5.41382813 7.93917969 5.69140625 8.58398438 C7.17446278 12.03842094 8.62227484 15.50218321 10 19 C9.01 19.495 9.01 19.495 8 20 C8.95865509 22.33075929 8.95865509 22.33075929 12 24 C4.41 24 -3.18 24 -11 24 C-11.66 25.98 -12.32 27.96 -13 30 C-13.84040805 31.80815065 -14.71417058 33.60127956 -15.625 35.375 C-16.29402344 36.68597656 -16.29402344 36.68597656 -16.9765625 38.0234375 C-17.48316406 39.00183594 -17.48316406 39.00183594 -18 40 C-19.65 40 -21.3 40 -23 40 C-22.40089099 36.48330417 -21.47464749 33.48857572 -20.00390625 30.2421875 C-19.61009766 29.36949219 -19.21628906 28.49679688 -18.81054688 27.59765625 C-18.39869141 26.69917969 -17.98683594 25.80070312 -17.5625 24.875 C-17.15451172 23.96878906 -16.74652344 23.06257813 -16.32617188 22.12890625 C-14.70808092 18.56541068 -13.17601559 15.26402338 -11 12 C-9.68 12.33 -8.36 12.66 -7 13 C-6.0204042 11.20856793 -5.0413367 9.41684696 -4.0625 7.625 C-3.24458984 6.12839844 -3.24458984 6.12839844 -2.41015625 4.6015625 C-1.5850241 3.07929654 -0.77435609 1.54871217 0 0 Z " fill="#093B79" transform="translate(330,52)"/>
<path d="M0 0 C2.0625 2.1875 2.0625 2.1875 3 5 C2.86339946 7.86861125 2.41517586 9.4187538 0.75 11.75 C-1.44464124 13.31760089 -3.35175278 13.64212875 -6 14 C-6 14.66 -6 15.32 -6 16 C-5.071875 15.938125 -4.14375 15.87625 -3.1875 15.8125 C0 16 0 16 1.875 17.125 C3.62716018 20.04526696 3.66787466 21.66062672 3 25 C0.95154152 27.25502572 -1.22923784 28.74476954 -4 30 C-6.625 30 -6.625 30 -9 29 C-10.30130859 28.47212891 -10.30130859 28.47212891 -11.62890625 27.93359375 C-14 26 -14 26 -14.48828125 22.34765625 C-14.45510572 20.91845455 -14.39554942 19.48967235 -14.3125 18.0625 C-14.28994141 17.34642578 -14.26738281 16.63035156 -14.24414062 15.89257812 C-14.1804061 13.92773369 -14.09119635 11.96376143 -14 10 C-14 8.68 -14 7.36 -14 6 C-13.14425419 3.57538686 -12.4172602 2.32096939 -10.375 0.75 C-6.64340689 -0.42839782 -3.92891538 -0.43654615 0 0 Z " fill="#06356C" transform="translate(447,152)"/>
<path d="M0 0 C11.22 0 22.44 0 34 0 C34 1.32 34 2.64 34 4 C34.66 4 35.32 4 36 4 C36 9.28 36 14.56 36 20 C34.02 20 32.04 20 30 20 C30 14.72 30 9.44 30 4 C28.02 4 26.04 4 24 4 C24 9.28 24 14.56 24 20 C22.02 20 20.04 20 18 20 C17.67 14.39 17.34 8.78 17 3 C16.67 3.33 16.34 3.66 16 4 C13.36 4 10.72 4 8 4 C8 9.28 8 14.56 8 20 C6.35 20 4.7 20 3 20 C2.67 14.39 2.34 8.78 2 3 C1.34 2.67 0.68 2.34 0 2 C0 1.34 0 0.68 0 0 Z " fill="#07224B" transform="translate(366,118)"/>
<path d="M0 0 C7 0 14 0 21 0 C22.010625 -0.04125 23.02125 -0.0825 24.0625 -0.125 C27 0 27 0 30 2 C30.34057617 3.87939453 30.34057617 3.87939453 30.29296875 6.1328125 C30.28330078 6.93847656 30.27363281 7.74414062 30.26367188 8.57421875 C30.23853516 9.41597656 30.21339844 10.25773438 30.1875 11.125 C30.16719727 12.39923828 30.16719727 12.39923828 30.14648438 13.69921875 C30.11108219 15.79974837 30.05727401 17.89995293 30 20 C28.68 19.67 27.36 19.34 26 19 C25.67 14.38 25.34 9.76 25 5 C22.525 4.505 22.525 4.505 20 4 C20 9.28 20 14.56 20 20 C18.35 20 16.7 20 15 20 C15 14.72 15 9.44 15 4 C13.35 4 11.7 4 10 4 C10 9.28 10 14.56 10 20 C8.02 20 6.04 20 4 20 C4 14.06 4 8.12 4 2 C2.68 2 1.36 2 0 2 C0 1.34 0 0.68 0 0 Z " fill="#093067" transform="translate(578,118)"/>
<path d="M0 0 C3.37345405 4.39571285 2.44059254 9.34379204 2.0625 14.6875 C-1.7242284 16.92685969 -4.7165971 18.6875 -9.1875 18.6875 C-12.60200607 17.44586143 -13.97150687 16.78771993 -15.9375 13.6875 C-16.64325667 8.99302869 -16.50116641 5.00272162 -14.625 0.625 C-10.59005805 -4.00771113 -5.01100707 -2.23896061 0 0 Z " fill="#093061" transform="translate(557.9375,155.3125)"/>
<path d="M0 0 C1.2375 0.7425 1.2375 0.7425 2.5 1.5 C3.593125 2.015625 4.68625 2.53125 5.8125 3.0625 C8.6777561 5.66122065 9.03322217 6.15858425 9.375 9.8125 C9.10496218 13.88332007 7.79506169 15.82286388 4.875 18.625 C2.0231624 20.79159041 0.88469552 21.47040804 -2.75 21.75 C-6.23355557 20.16656565 -7.56144588 18.80272183 -9.5 15.5 C-10.38880825 11.94476699 -10.68847343 9.40048416 -9.9375 5.8125 C-7.59439426 2.04315599 -4.63038519 -0.92607704 0 0 Z " fill="#0A356C" transform="translate(531.5,152.5)"/>
<path d="M0 0 C3 1.25 3 1.25 5 4 C5.91260905 9.35596789 6.26427494 14.20554524 3.0625 18.75 C-1.08770515 20.44396128 -4.58774811 20.91373127 -9 20 C-11.98167275 17.81828823 -12.78917588 16.23656455 -13.40625 12.6171875 C-13.67229989 8.16085181 -13.44154062 5.68990721 -11 1.875 C-7.12338889 -0.54788194 -4.44641401 -0.90541898 0 0 Z " fill="#072C5C" transform="translate(459,118)"/>
<path d="M0 0 C1.98 0.99 3.96 1.98 6 3 C6 7.62 6 12.24 6 17 C-1.52380952 20.76190476 -1.52380952 20.76190476 -6 20 C-8.875 18.1875 -8.875 18.1875 -11 15 C-11.64141437 11.22959901 -11.64481759 7.77014972 -11 4 C-7.76598985 -0.52761421 -5.25597633 -1.43344809 0 0 Z " fill="#05366F" transform="translate(340,153)"/>
<path d="M0 0 C0 2.31 0 4.62 0 7 C3.465 6.505 3.465 6.505 7 6 C7 4.02 7 2.04 7 0 C9.475 0.495 9.475 0.495 12 1 C12.06058594 1.63808594 12.12117188 2.27617188 12.18359375 2.93359375 C12.30927734 4.17302734 12.30927734 4.17302734 12.4375 5.4375 C12.51871094 6.26121094 12.59992188 7.08492188 12.68359375 7.93359375 C12.78930815 9.98662025 12.78930815 9.98662025 14 11 C14.04063832 12.66617115 14.042721 14.33388095 14 16 C13.34 16 12.68 16 12 16 C12.33 18.97 12.66 21.94 13 25 C11.68 25.33 10.36 25.66 9 26 C6.94077598 23.94077598 7.58572421 19.78291876 7.4375 16.9375 C7.39431641 16.17888672 7.35113281 15.42027344 7.30664062 14.63867188 C7.20026367 12.75934562 7.09960066 10.87969756 7 9 C4.69 9 2.38 9 0 9 C0 13.29 0 17.58 0 22 C1.65 22 3.3 22 5 22 C5.33 23.32 5.66 24.64 6 26 C2.7 26 -0.6 26 -4 26 C-5.82517113 22.34965773 -5.41169113 17.99640885 -5.62109375 13.96875 C-5.70697327 10.88509744 -5.70697327 10.88509744 -8 9 C-8 8.01 -8 7.02 -8 6 C-7.34 6 -6.68 6 -6 6 C-5.87625 5.195625 -5.7525 4.39125 -5.625 3.5625 C-5.41875 2.716875 -5.2125 1.87125 -5 1 C-3 0 -3 0 0 0 Z " fill="#032E61" transform="translate(430,112)"/>
<path d="M0 0 C1.32 0 2.64 0 4 0 C4.33 17.82 4.66 35.64 5 54 C7.64 54.33 10.28 54.66 13 55 C13 37.84 13 20.68 13 3 C13.33 3 13.66 3 14 3 C14 6.63 14 10.26 14 14 C14.66 14.33 15.32 14.66 16 15 C16 16.65 16 18.3 16 20 C15.34 20 14.68 20 14 20 C14 31.88 14 43.76 14 56 C9.71 56 5.42 56 1 56 C0 55 0 55 -0.12025452 52.79173279 C-0.11803391 51.81688431 -0.11581329 50.84203583 -0.11352539 49.83764648 C-0.11344986 48.73658066 -0.11337433 47.63551483 -0.11329651 46.50108337 C-0.10813522 45.3031868 -0.10297394 44.10529022 -0.09765625 42.87109375 C-0.0962413 41.65172623 -0.09482635 40.4323587 -0.09336853 39.17604065 C-0.08774967 35.2631693 -0.07519396 31.35035419 -0.0625 27.4375 C-0.05748743 24.79231853 -0.0529241 22.14713617 -0.04882812 19.50195312 C-0.03777411 13.00128274 -0.02101764 6.50064539 0 0 Z " fill="#073161" transform="translate(510,36)"/>
<path d="M0 0 C1.953125 0.9921875 1.953125 0.9921875 3.953125 2.9921875 C4.078125 6.1171875 4.078125 6.1171875 3.953125 8.9921875 C2.963125 9.3221875 1.973125 9.6521875 0.953125 9.9921875 C0.623125 8.0121875 0.293125 6.0321875 -0.046875 3.9921875 C-2.686875 3.6621875 -5.326875 3.3321875 -8.046875 2.9921875 C-8.376875 4.6421875 -8.706875 6.2921875 -9.046875 7.9921875 C-8.44359375 8.30671875 -7.8403125 8.62125 -7.21875 8.9453125 C1.65742943 13.69836342 1.65742943 13.69836342 3.953125 16.9921875 C4.578125 19.9296875 4.578125 19.9296875 3.953125 22.9921875 C0.70662223 26.63460524 -0.76963066 27.81292514 -5.609375 28.4921875 C-9.31801263 27.9527493 -11.30469734 27.56817257 -14.046875 24.9921875 C-14.359375 21.3046875 -14.359375 21.3046875 -14.046875 17.9921875 C-13.056875 18.3221875 -12.066875 18.6521875 -11.046875 18.9921875 C-10.716875 20.6421875 -10.386875 22.2921875 -10.046875 23.9921875 C-7.406875 23.9921875 -4.766875 23.9921875 -2.046875 23.9921875 C-1.92258636 21.19998968 -1.92258636 21.19998968 -3.046875 17.9921875 C-4.93514411 16.26480231 -6.89774189 14.88294971 -9.0390625 13.484375 C-11.23913077 11.8493048 -12.60341133 10.31801924 -14.046875 7.9921875 C-14.109375 4.9921875 -14.109375 4.9921875 -13.046875 1.9921875 C-8.49666111 -2.67178173 -5.62034606 -2.16020104 0 0 Z " fill="#06326B" transform="translate(476.046875,146.0078125)"/>
<path d="M0 0 C0.66 1.32 1.32 2.64 2 4 C2.66 4 3.32 4 4 4 C4 6.64 4 9.28 4 12 C0.37 12 -3.26 12 -7 12 C-6.67 12.99 -6.34 13.98 -6 15 C-2.4780279 15.08004482 0.61981469 15.04005702 4 14 C4 15.32 4 16.64 4 18 C0.78169935 20.14553377 -0.26786507 20.29583868 -4 20.3125 C-5.299375 20.33763672 -5.299375 20.33763672 -6.625 20.36328125 C-9 20 -9 20 -10.76171875 18.75 C-13.048097 15.51877774 -13 11.86296595 -13 8 C-11.95575221 2.77876106 -11.95575221 2.77876106 -9.3125 0.625 C-6.16859163 -0.22470496 -3.23851421 -0.12455824 0 0 Z " fill="#0A3068" transform="translate(362,118)"/>
<path d="M0 0 C1.65322266 0.01740234 1.65322266 0.01740234 3.33984375 0.03515625 C4.99693359 0.04869141 4.99693359 0.04869141 6.6875 0.0625 C7.54214844 0.07410156 8.39679688 0.08570312 9.27734375 0.09765625 C11.84514846 3.93925385 11.50423257 7.91157375 11.40234375 12.34765625 C11.39332031 13.09273437 11.38429688 13.8378125 11.375 14.60546875 C11.35152733 16.43633684 11.315659 18.26703863 11.27734375 20.09765625 C8.96490583 20.12451037 6.65238105 20.14398466 4.33984375 20.16015625 C3.05207031 20.17175781 1.76429688 20.18335938 0.4375 20.1953125 C-2.72265625 20.09765625 -2.72265625 20.09765625 -3.72265625 19.09765625 C-3.79445589 17.57837587 -3.80657632 16.05598143 -3.78515625 14.53515625 C-3.77613281 13.70886719 -3.76710938 12.88257813 -3.7578125 12.03125 C-3.74621094 11.39316406 -3.73460937 10.75507813 -3.72265625 10.09765625 C0.06773741 7.96765628 2.93470513 7.93063169 7.27734375 8.09765625 C6.94734375 6.77765625 6.61734375 5.45765625 6.27734375 4.09765625 C0.72681089 4.84125298 0.72681089 4.84125298 -4.72265625 6.09765625 C-3.65171431 0.13097971 -3.65171431 0.13097971 0 0 Z " fill="#052C61" transform="translate(408.72265625,117.90234375)"/>
<path d="M0 0 C0.99 0.66 1.98 1.32 3 2 C3 2.66 3 3.32 3 4 C3.66 4 4.32 4 5 4 C5 9.28 5 14.56 5 20 C2.73125 20.061875 0.4625 20.12375 -1.875 20.1875 C-3.78925781 20.23970703 -3.78925781 20.23970703 -5.7421875 20.29296875 C-6.81726563 20.19628906 -7.89234375 20.09960938 -9 20 C-11.4294516 16.3558226 -11.16179575 14.28758728 -11 10 C-7.17010894 8.19769832 -4.21878192 7.80377759 0 8 C0 6.68 0 5.36 0 4 C-3.3 4.33 -6.6 4.66 -10 5 C-10 3.68 -10 2.36 -10 1 C-6.87293041 -0.5635348 -3.42017557 -0.39958487 0 0 Z " fill="#082E65" transform="translate(573,118)"/>
<path d="M0 0 C2.0078125 0.23046875 2.0078125 0.23046875 5.0078125 2.23046875 C5.34838867 4.10986328 5.34838867 4.10986328 5.30078125 6.36328125 C5.29111328 7.16894531 5.28144531 7.97460938 5.27148438 8.8046875 C5.24634766 9.64644531 5.22121094 10.48820313 5.1953125 11.35546875 C5.17500977 12.62970703 5.17500977 12.62970703 5.15429688 13.9296875 C5.11889469 16.03021712 5.06508651 18.13042168 5.0078125 20.23046875 C2.90539647 20.36543126 0.8005164 20.46244182 -1.3046875 20.54296875 C-2.47644531 20.60097656 -3.64820313 20.65898437 -4.85546875 20.71875 C-7.9921875 20.23046875 -7.9921875 20.23046875 -9.953125 17.84375 C-10.9921875 15.23046875 -10.9921875 15.23046875 -10.3046875 13.10546875 C-9.8715625 12.48671875 -9.4384375 11.86796875 -8.9921875 11.23046875 C-8.3321875 10.24046875 -7.6721875 9.25046875 -6.9921875 8.23046875 C-5.046875 7.9375 -5.046875 7.9375 -2.8671875 8.04296875 C-1.5884375 8.10484375 -0.3096875 8.16671875 1.0078125 8.23046875 C1.0078125 6.58046875 1.0078125 4.93046875 1.0078125 3.23046875 C-0.9721875 3.23046875 -2.9521875 3.23046875 -4.9921875 3.23046875 C-5.3221875 4.22046875 -5.6521875 5.21046875 -5.9921875 6.23046875 C-6.6521875 6.23046875 -7.3121875 6.23046875 -7.9921875 6.23046875 C-6.89032946 0.09154541 -6.35496092 0.12897522 0 0 Z " fill="#062558" transform="translate(496.9921875,117.76953125)"/>
<path d="M0 0 C2.31 0 4.62 0 7 0 C7 2.64 7 5.28 7 8 C7.66 7.67 8.32 7.34 9 7 C12.41264635 6.62906018 14.29531386 6.52389485 17.1796875 8.47265625 C19.83915544 12.1650935 19.44085758 15.32357229 19.25 19.75 C19.23195313 20.54277344 19.21390625 21.33554688 19.1953125 22.15234375 C19.14833082 24.10208348 19.07659044 26.05119878 19 28 C17.35 27.34 15.7 26.68 14 26 C14 20.39 14 14.78 14 9 C11.69 9.66 9.38 10.32 7 11 C7 16.61 7 22.22 7 28 C5.68 27.67 4.36 27.34 3 27 C3 18.75 3 10.5 3 2 C2.01 2 1.02 2 0 2 C0 1.34 0 0.68 0 0 Z " fill="#082F5E" transform="translate(499,146)"/>
<path d="M0 0 C4.15548573 0.84805831 5.46337391 2.29759529 8.0625 5.625 C8.65060011 8.42895811 8.54049114 11.08850638 8.375 13.9375 C8.35244141 14.67806641 8.32988281 15.41863281 8.30664062 16.18164062 C8.2480815 17.99697357 8.15840886 19.81125681 8.0625 21.625 C7.258125 21.439375 6.45375 21.25375 5.625 21.0625 C4.779375 20.918125 3.93375 20.77375 3.0625 20.625 C2.7325 20.955 2.4025 21.285 2.0625 21.625 C-1.56266277 22.02779586 -3.33516602 22.04200045 -6.375 19.9375 C-7.9375 17.625 -7.9375 17.625 -7.8125 15 C-6.9375 12.625 -6.9375 12.625 -4.9375 10.625 C-2.95393517 9.91091666 -0.95434563 9.23882258 1.0625 8.625 C1.3925 6.975 1.7225 5.325 2.0625 3.625 C-0.9075 4.285 -3.8775 4.945 -6.9375 5.625 C-3.80787037 0.81018519 -3.80787037 0.81018519 0 0 Z " fill="#073066" transform="translate(355.9375,151.375)"/>
<path d="M0 0 C6.75 -0.125 6.75 -0.125 9 1 C11.24435544 0.99133453 13.47036969 0.86957764 15.7109375 0.7421875 C18.80228269 1.09035948 19.95442931 1.62584216 22 4 C22.29561076 6.87038052 22.37943016 9.33754745 22.25 12.1875 C22.23195313 12.93708984 22.21390625 13.68667969 22.1953125 14.45898438 C22.14824109 16.3065371 22.07649766 18.15343159 22 20 C20.35 20 18.7 20 17 20 C16.67 14.72 16.34 9.44 16 4 C13.03 3.505 13.03 3.505 10 3 C10 8.61 10 14.22 10 20 C8.02 20 6.04 20 4 20 C4 14.06 4 8.12 4 2 C2.68 2 1.36 2 0 2 C0 1.34 0 0.68 0 0 Z " fill="#052C63" transform="translate(312,118)"/>
<path d="M0 0 C0 5.94 0 11.88 0 18 C-5.28 18 -10.56 18 -16 18 C-16 11.71977651 -15.87423699 10.55222846 -12 6 C-3.83870968 0 -3.83870968 0 0 0 Z " fill="#000102" transform="translate(50,140)"/>
<path d="M0 0 C15.84 0 31.68 0 48 0 C48 9.9 48 19.8 48 30 C47.67 30 47.34 30 47 30 C46.505 17.625 46.505 17.625 46 5 C30.98402802 3.97326687 16.04766267 3.89110465 1 4 C0.67 2.68 0.34 1.36 0 0 Z " fill="#083662" transform="translate(224,158)"/>
<path d="M0 0 C2.95857409 -0.05379226 5.91617721 -0.09357093 8.875 -0.125 C9.71675781 -0.14175781 10.55851562 -0.15851563 11.42578125 -0.17578125 C12.23144531 -0.18222656 13.03710938 -0.18867187 13.8671875 -0.1953125 C14.98262939 -0.21102295 14.98262939 -0.21102295 16.12060547 -0.22705078 C18 0 18 0 20 2 C20.22705078 3.87939453 20.22705078 3.87939453 20.1953125 6.1328125 C20.18886719 6.93847656 20.18242187 7.74414062 20.17578125 8.57421875 C20.15902344 9.41597656 20.14226562 10.25773438 20.125 11.125 C20.11597656 11.97449219 20.10695313 12.82398438 20.09765625 13.69921875 C20.07405647 15.79959884 20.03818483 17.89983444 20 20 C18.35 20 16.7 20 15 20 C15 14.72 15 9.44 15 4 C12.69 4 10.38 4 8 4 C8 9.28 8 14.56 8 20 C6.68 20 5.36 20 4 20 C4 14.39 4 8.78 4 3 C2.68 2.67 1.36 2.34 0 2 C0 1.34 0 0.68 0 0 Z " fill="#093671" transform="translate(464,118)"/>
<path d="M0 0 C2.95019181 0.23920474 4.71746908 0.80258729 7.15234375 2.50390625 C9.863036 6.16591967 9.44087789 9.32310126 9.25 13.75 C9.23195313 14.54277344 9.21390625 15.33554688 9.1953125 16.15234375 C9.14833082 18.10208348 9.07659044 20.05119878 9 22 C5.125 21.125 5.125 21.125 4 20 C3.92674832 17.13732433 3.90761795 14.299281 3.9375 11.4375 C3.94426758 10.22803711 3.94426758 10.22803711 3.95117188 8.99414062 C3.96299482 6.99606244 3.98093086 4.99802217 4 3 C1.69 3.66 -0.62 4.32 -3 5 C-3 10.61 -3 16.22 -3 22 C-4.32 22 -5.64 22 -7 22 C-7 16.06 -7 10.12 -7 4 C-8.32 4 -9.64 4 -11 4 C-11 3.34 -11 2.68 -11 2 C-10.28972656 1.93941406 -9.57945312 1.87882813 -8.84765625 1.81640625 C-7.46900391 1.69072266 -7.46900391 1.69072266 -6.0625 1.5625 C-5.14597656 1.48128906 -4.22945313 1.40007812 -3.28515625 1.31640625 C-1.03840268 1.23955024 -1.03840268 1.23955024 0 0 Z " fill="#063263" transform="translate(421,152)"/>
<path d="M0 0 C5.61 0 11.22 0 17 0 C17 0.33 17 0.66 17 1 C15.35 1 13.7 1 12 1 C12.0407666 2.03406982 12.0815332 3.06813965 12.12353516 4.13354492 C12.27235936 7.98166104 12.40686025 11.83016916 12.53710938 15.67895508 C12.59539442 17.34250736 12.65752784 19.00592956 12.72363281 20.66918945 C12.81815134 23.06437486 12.89867526 25.45969183 12.9765625 27.85546875 C13.00875885 28.5952446 13.0409552 29.33502045 13.0741272 30.09721375 C13.19285022 34.21917884 12.86202812 37.29818642 11 41 C10.67 41 10.34 41 10 41 C9.67 46.28 9.34 51.56 9 57 C8.67 57 8.34 57 8 57 C7.99857498 56.39722733 7.99714996 55.79445465 7.99568176 55.17341614 C7.97598288 48.89501543 7.92170521 42.61758672 7.84741211 36.33959961 C7.82422668 33.99722265 7.80983514 31.65474136 7.80444336 29.31225586 C7.79515824 25.94318584 7.7541743 22.57575809 7.70703125 19.20703125 C7.7109639 18.16102249 7.71489655 17.11501373 7.71894836 16.03730774 C7.61692289 9.99088026 7.61692289 9.99088026 4.58081055 4.86206055 C2.1721829 3.01914782 2.1721829 3.01914782 0 2 C0 1.34 0 0.68 0 0 Z " fill="#04376B" transform="translate(360,34)"/>
<path d="M0 0 C1.97265625 0.265625 1.97265625 0.265625 4.97265625 2.265625 C5.16015625 4.890625 5.16015625 4.890625 4.97265625 7.265625 C4.31265625 7.265625 3.65265625 7.265625 2.97265625 7.265625 C2.64265625 6.605625 2.31265625 5.945625 1.97265625 5.265625 C-0.5546761 4.61007381 -0.5546761 4.61007381 -3.02734375 4.265625 C-1.8498979 7.79796255 -1.07128734 8.12870575 2.03515625 9.953125 C2.76863281 10.39011719 3.50210938 10.82710937 4.2578125 11.27734375 C4.82371094 11.60347656 5.38960937 11.92960938 5.97265625 12.265625 C5.64265625 14.905625 5.31265625 17.545625 4.97265625 20.265625 C0.35265625 20.265625 -4.26734375 20.265625 -9.02734375 20.265625 C-9.02734375 18.615625 -9.02734375 16.965625 -9.02734375 15.265625 C-4.07734375 16.255625 -4.07734375 16.255625 0.97265625 17.265625 C0.97265625 15.945625 0.97265625 14.625625 0.97265625 13.265625 C0.04453125 12.976875 -0.88359375 12.688125 -1.83984375 12.390625 C-5.02734375 11.265625 -5.02734375 11.265625 -8.02734375 9.265625 C-8.33984375 5.765625 -8.33984375 5.765625 -8.02734375 2.265625 C-5.42029477 -0.34142398 -3.55396134 0.02657167 0 0 Z " fill="#032F6E" transform="translate(545.02734375,117.734375)"/>
<path d="M0 0 C0.33 0 0.66 0 1 0 C1.33 2.31 1.66 4.62 2 7 C2.66 5.68 3.32 4.36 4 3 C3.98839844 3.59167969 3.97679687 4.18335937 3.96484375 4.79296875 C3.95582031 5.58316406 3.94679687 6.37335938 3.9375 7.1875 C3.92589844 7.96480469 3.91429687 8.74210937 3.90234375 9.54296875 C3.92839004 12.000162 3.92839004 12.000162 4.51367188 14.34960938 C4.99696838 16.98347829 5.03370747 19.19726031 4.87890625 21.86328125 C4.83056641 22.74951172 4.78222656 23.63574219 4.73242188 24.54882812 C4.67634766 25.46083984 4.62027344 26.37285156 4.5625 27.3125 C4.51029297 28.24384766 4.45808594 29.17519531 4.40429688 30.13476562 C4.2751852 32.42356353 4.14024585 34.71186186 4 37 C3.34 37 2.68 37 2 37 C1.67 53.17 1.34 69.34 1 86 C0.67 86 0.34 86 0 86 C0 57.62 0 29.24 0 0 Z " fill="#0A3560" transform="translate(130,72)"/>
<path d="M0 0 C3.3125 1.8125 3.3125 1.8125 6 4 C6 8 6 8 4.5 9.75 C4.005 10.1625 3.51 10.575 3 11 C0 10 0 10 -1.25 8.375 C-1.8275 7.92125 -2.405 7.4675 -3 7 C-5.31 7.33 -7.62 7.66 -10 8 C-10 19.55 -10 31.1 -10 43 C-14.29 43 -18.58 43 -23 43 C-23 42.67 -23 42.34 -23 42 C-19.04 42 -15.08 42 -11 42 C-11.33 28.8 -11.66 15.6 -12 2 C-3.86486486 -1.48648649 -3.86486486 -1.48648649 0 0 Z " fill="#023266" transform="translate(624,49)"/>
<path d="M0 0 C6.875 0.875 6.875 0.875 8 2 C8.08748207 3.92667507 8.10697334 5.85651861 8.09765625 7.78515625 C8.09443359 8.95498047 8.09121094 10.12480469 8.08789062 11.33007812 C8.07951172 12.56177734 8.07113281 13.79347656 8.0625 15.0625 C8.05798828 16.29806641 8.05347656 17.53363281 8.04882812 18.80664062 C8.03699608 21.87114117 8.02051173 24.93554721 8 28 C6.02 28 4.04 28 2 28 C1.97494385 27.29391602 1.9498877 26.58783203 1.92407227 25.86035156 C1.80792631 22.65672491 1.68528397 19.45337882 1.5625 16.25 C1.52318359 15.13882813 1.48386719 14.02765625 1.44335938 12.8828125 C1.40146484 11.81289062 1.35957031 10.74296875 1.31640625 9.640625 C1.27974854 8.65610352 1.24309082 7.67158203 1.20532227 6.65722656 C1.02401258 4.31076449 0.65668181 2.25281588 0 0 Z " fill="#04275F" transform="translate(504,110)"/>
<path d="M0 0 C0.66 0 1.32 0 2 0 C2.82418495 1.68182391 3.63377351 3.37080374 4.4375 5.0625 C4.88996094 6.00222656 5.34242188 6.94195312 5.80859375 7.91015625 C7 11 7 11 8 18 C2.72 18 -2.56 18 -8 18 C-6.50748294 13.52244882 -4.99752948 9.77777506 -2.875 5.625 C-2.33617187 4.56539062 -1.79734375 3.50578125 -1.2421875 2.4140625 C-0.83226562 1.61742187 -0.42234375 0.82078125 0 0 Z " fill="#000205" transform="translate(430,52)"/>
<path d="M0 0 C3.81735076 0.53018761 6.21499549 1.28876802 9 4 C9.45410156 6.54370117 9.45410156 6.54370117 9.390625 9.54296875 C9.37773438 10.61611328 9.36484375 11.68925781 9.3515625 12.79492188 C9.31804688 13.91447266 9.28453125 15.03402344 9.25 16.1875 C9.23195313 17.31865234 9.21390625 18.44980469 9.1953125 19.61523438 C9.14812652 22.41100376 9.08230595 25.20507972 9 28 C7.02 28 5.04 28 3 28 C3 19.75 3 11.5 3 3 C1.68 3 0.36 3 -1 3 C-0.67 2.01 -0.34 1.02 0 0 Z " fill="#04295D" transform="translate(551,110)"/>
<path d="M0 0 C4 1 4 1 6 2 C6.33 10.58 6.66 19.16 7 28 C4.69 28 2.38 28 0 28 C0 18.76 0 9.52 0 0 Z " fill="#02245D" transform="translate(526,110)"/>
<path d="M0 0 C0.66 0 1.32 0 2 0 C3.00904375 2.2463236 4.0073602 4.49643937 5 6.75 C5.28617187 7.38421875 5.57234375 8.0184375 5.8671875 8.671875 C7.36006702 12.08417104 8 14.20781917 8 18 C2.72 18 -2.56 18 -8 18 C-6.50748294 13.52244882 -4.99752948 9.77777506 -2.875 5.625 C-2.33617187 4.56539062 -1.79734375 3.50578125 -1.2421875 2.4140625 C-0.83226562 1.61742187 -0.42234375 0.82078125 0 0 Z " fill="#000205" transform="translate(330,52)"/>
<path d="M0 0 C6.6 0 13.2 0 20 0 C20 0.33 20 0.66 20 1 C17.36 1 14.72 1 12 1 C11.67 2.32 11.34 3.64 11 5 C10.34 5 9.68 5 9 5 C9 5.66 9 6.32 9 7 C9.99 7.33 10.98 7.66 12 8 C12 8.66 12 9.32 12 10 C12.66 10 13.32 10 14 10 C14 10.66 14 11.32 14 12 C10.88016769 13.0399441 9.22213621 13.00875465 6 12.6875 C5.13375 12.60886719 4.2675 12.53023437 3.375 12.44921875 C1 12 1 12 -2 10 C-2.1875 6.875 -2.1875 6.875 -2 4 C-1.34 4 -0.68 4 0 4 C0 2.68 0 1.36 0 0 Z " fill="#02386D" transform="translate(2,158)"/>
<path d="M0 0 C0.66 0 1.32 0 2 0 C2 1.98 2 3.96 2 6 C3.98 6 5.96 6 8 6 C8 7.32 8 8.64 8 10 C6.02 10 4.04 10 2 10 C2 13.96 2 17.92 2 22 C3.65 22 5.3 22 7 22 C7.33 23.32 7.66 24.64 8 26 C1.56211925 26.36440834 1.56211925 26.36440834 -0.69921875 24.8984375 C-3.10988551 21.3801671 -2.48298991 17.07325229 -2.59375 12.93359375 C-2.7278125 11.96550781 -2.861875 10.99742188 -3 10 C-3.99 9.34 -4.98 8.68 -6 8 C-6 7.34 -6 6.68 -6 6 C-4.68 6 -3.36 6 -2 6 C-1.855625 5.38125 -1.71125 4.7625 -1.5625 4.125 C-1 2 -1 2 0 0 Z " fill="#072B60" transform="translate(340,112)"/>
<path d="M0 0 C0.05429959 1.74965358 0.09292823 3.49979787 0.125 5.25 C0.14820313 6.22453125 0.17140625 7.1990625 0.1953125 8.203125 C-0.00499981 11.07159723 -0.33485432 12.66664052 -2 15 C-5.85909105 15.91214879 -8.21603308 16.26132231 -12 15 C-12.48220677 11.55088215 -12.69101093 8.42888002 -12 5 C-8.50879936 1.21786598 -5.0728318 0 0 0 Z " fill="#000204" transform="translate(580,71)"/>
<path d="M0 0 C5.40540541 1.40540541 5.40540541 1.40540541 7 3 C7.04063832 4.66617115 7.042721 6.33388095 7 8 C5 7 5 7 4 4 C0.70924004 4.37904208 0.70924004 4.37904208 -2 6 C-2.1245486 7.64230364 -2.17568524 9.29052276 -2.1875 10.9375 C-2.20167969 11.83339844 -2.21585937 12.72929687 -2.23046875 13.65234375 C-2.23194769 16.19114534 -2.23194769 16.19114534 0 18 C1.32 18 2.64 18 4 18 C4.33 17.34 4.66 16.68 5 16 C5.66 16 6.32 16 7 16 C6.42655063 18.86724686 6.1385485 19.8614515 4 22 C-0.61575651 22.51286183 -3.32995906 21.85447629 -7 19 C-9.30855938 16.03185223 -9.53314868 12.68075839 -9.45703125 8.96484375 C-8.38509717 4.35644338 -3.68951002 2.45967334 0 0 Z " fill="#042D5F" transform="translate(491,152)"/>
<path d="M0 0 C1 1 1 1 1.0625 4.0625 C1.041875 5.031875 1.02125 6.00125 1 7 C0.34 6.67 -0.32 6.34 -1 6 C-1 5.01 -1 4.02 -1 3 C-3.91652174 2.83318891 -3.91652174 2.83318891 -7 3 C-9.15705515 4.7564331 -9.15705515 4.7564331 -9.265625 6.875 C-9.26046875 7.57625 -9.2553125 8.2775 -9.25 9 C-9.25515625 9.70125 -9.2603125 10.4025 -9.265625 11.125 C-9.15705515 13.2435669 -9.15705515 13.2435669 -7 15 C-5.0068433 15.02375926 -5.0068433 15.02375926 -2.875 14.625 C-1.59625 14.41875 -0.3175 14.2125 1 14 C0.67 15.32 0.34 16.64 0 18 C-1.93681161 18.08107583 -3.8745934 18.13922475 -5.8125 18.1875 C-6.89144531 18.22230469 -7.97039063 18.25710937 -9.08203125 18.29296875 C-12 18 -12 18 -13.859375 16.828125 C-16.25157562 12.99405003 -15.54420917 8.32775867 -15 4 C-12.20270709 -1.72779025 -5.58347876 -0.56296232 0 0 Z " fill="#08336B" transform="translate(636,119)"/>
<path d="M0 0 C0.33 0 0.66 0 1 0 C1.22527296 3.45745022 1.42733544 6.91587025 1.625 10.375 C1.68945312 11.35984375 1.75390625 12.3446875 1.8203125 13.359375 C1.871875 14.30039063 1.9234375 15.24140625 1.9765625 16.2109375 C2.02893066 17.08024902 2.08129883 17.94956055 2.13525391 18.84521484 C2 21 2 21 0 23 C0 18.05 0 13.1 0 8 C-2.31 8 -4.62 8 -7 8 C-7 12.62 -7 17.24 -7 22 C-5.02 22 -3.04 22 -1 22 C-1 22.99 -1 23.98 -1 25 C-3.85352915 25.23389583 -6.20284991 25.40826254 -9 25 C-11.58034594 22.66156149 -11.91134467 20.75862026 -12.30859375 17.359375 C-12.4972805 13.08247541 -12.62102378 10.0270778 -10.375 6.3125 C-7.36640438 4.64985505 -5.39011269 4.63150949 -2 5 C-1.34 5.33 -0.68 5.66 0 6 C0 4.02 0 2.04 0 0 Z " fill="#05316D" transform="translate(395,148)"/>
<path d="M0 0 C4.62 0 9.24 0 14 0 C14.33 1.32 14.66 2.64 15 4 C12.69 3.34 10.38 2.68 8 2 C8 8.27 8 14.54 8 21 C6.35 21 4.7 21 3 21 C0.91176625 18.91176625 1.62777989 14.52134425 1.5 11.625 C1.30184009 5.72811687 1.30184009 5.72811687 0 0 Z " fill="#02316D" transform="translate(366,153)"/>
<path d="M0 0 C0.33 0 0.66 0 1 0 C1 1.98 1 3.96 1 6 C2.093125 5.95875 3.18625 5.9175 4.3125 5.875 C8 6 8 6 11 8 C11.22107787 10.7885289 11.28107535 13.34653181 11.1875 16.125 C11.17396484 16.87910156 11.16042969 17.63320312 11.14648438 18.41015625 C11.11109985 20.27374127 11.05729167 22.13695978 11 24 C9.02 24.33 7.04 24.66 5 25 C5 19.39 5 13.78 5 8 C3.68 8 2.36 8 1 8 C1 13.28 1 18.56 1 24 C0.67 24 0.34 24 0 24 C0 16.08 0 8.16 0 0 Z " fill="#042B57" transform="translate(399,148)"/>
<path d="M0 0 C1.65 0 3.3 0 5 0 C4.979375 1.134375 4.95875 2.26875 4.9375 3.4375 C4.58422523 6.81575674 4.58422523 6.81575674 6 8 C6.07325168 10.86267567 6.09238205 13.700719 6.0625 16.5625 C6.05798828 17.36880859 6.05347656 18.17511719 6.04882812 19.00585938 C6.03700518 21.00393756 6.01906914 23.00197783 6 25 C4.33388095 25.042721 2.66617115 25.04063832 1 25 C-0.54950268 23.45049732 -0.21655193 21.90009406 -0.31640625 19.74609375 C-0.35830078 18.89208984 -0.40019531 18.03808594 -0.44335938 17.15820312 C-0.48267578 16.26037109 -0.52199219 15.36253906 -0.5625 14.4375 C-0.60568359 13.53580078 -0.64886719 12.63410156 -0.69335938 11.70507812 C-0.79978142 9.47021515 -0.90179988 7.23523692 -1 5 C-0.34 5 0.32 5 1 5 C0.67 3.35 0.34 1.7 0 0 Z " fill="#052F68" transform="translate(612,113)"/>
<path d="M0 0 C1.65 0.33 3.3 0.66 5 1 C5.06058594 1.63808594 5.12117188 2.27617188 5.18359375 2.93359375 C5.26738281 3.75988281 5.35117187 4.58617188 5.4375 5.4375 C5.51871094 6.26121094 5.59992188 7.08492188 5.68359375 7.93359375 C5.78930815 9.98662025 5.78930815 9.98662025 7 11 C7.04063832 12.66617115 7.042721 14.33388095 7 16 C6.34 16 5.68 16 5 16 C5.33 18.97 5.66 21.94 6 25 C4.68 25.33 3.36 25.66 2 26 C-0.05922402 23.94077598 0.58572421 19.78291876 0.4375 16.9375 C0.39431641 16.17888672 0.35113281 15.42027344 0.30664062 14.63867188 C0.20026367 12.75934562 0.09960066 10.87969756 0 9 C-2.64 9 -5.28 9 -8 9 C-7.67 8.34 -7.34 7.68 -7 7 C-4.67843403 6.59270772 -2.3431213 6.25561323 0 6 C0 4.02 0 2.04 0 0 Z " fill="#05326D" transform="translate(437,112)"/>
<path d="M0 0 C2.413125 -0.0825 4.82625 -0.165 7.3125 -0.25 C8.06829346 -0.28641602 8.82408691 -0.32283203 9.6027832 -0.36035156 C12.87817038 -0.41474396 14.5526026 -0.41927026 16.98828125 1.86328125 C18.34888004 4.73682388 18.01994289 6.0130244 17 9 C15.75 11.8125 15.75 11.8125 14 14 C11.3125 14.3125 11.3125 14.3125 9 14 C8.67 13.34 8.34 12.68 8 12 C8.680625 11.236875 9.36125 10.47375 10.0625 9.6875 C10.701875 8.800625 11.34125 7.91375 12 7 C11.67 6.01 11.34 5.02 11 4 C7.49705129 2.28432339 7.49705129 2.28432339 4 1 C4 3.31 4 5.62 4 8 C3.01 8.495 3.01 8.495 2 9 C1.34227572 12.02934491 1.34227572 12.02934491 1 15 C0.67 15 0.34 15 0 15 C0 10.05 0 5.1 0 0 Z " fill="#053874" transform="translate(307,147)"/>
<path d="M0 0 C4.95 0 9.9 0 15 0 C14.67 0.99 14.34 1.98 14 3 C11.36 3 8.72 3 6 3 C6 8.28 6 13.56 6 19 C4.35 19 2.7 19 1 19 C0.67 12.73 0.34 6.46 0 0 Z " fill="#0B346E" transform="translate(368,119)"/>
<path d="M0 0 C1.32 0 2.64 0 4 0 C4.01981934 0.70608398 4.03963867 1.41216797 4.06005859 2.13964844 C4.15540415 5.34346994 4.26504513 8.54664801 4.375 11.75 C4.4059375 12.86117187 4.436875 13.97234375 4.46875 15.1171875 C4.50742187 16.18710938 4.54609375 17.25703125 4.5859375 18.359375 C4.6173584 19.34389648 4.6487793 20.32841797 4.68115234 21.34277344 C5.00102258 24.00852201 5.64368621 25.70616405 7 28 C4.69 28 2.38 28 0 28 C0 18.76 0 9.52 0 0 Z " fill="#0D2F5E" transform="translate(306,110)"/>
<path d="M0 0 C1.65 0 3.3 0 5 0 C4.67 1.65 4.34 3.3 4 5 C9.28 5.33 14.56 5.66 20 6 C20.33 5.01 20.66 4.02 21 3 C21.33 4.32 21.66 5.64 22 7 C21.01 7.495 21.01 7.495 20 8 C20.95865509 10.33075929 20.95865509 10.33075929 24 12 C16.74 12 9.48 12 2 12 C2.99 10.68 3.98 9.36 5 8 C1.28400809 7.79913557 0.22791555 7.8480563 -3 10 C-2.01 6.7 -1.02 3.4 0 0 Z " fill="#083367" transform="translate(318,64)"/>
<path d="M0 0 C2.31 0 4.62 0 7 0 C7 8.91 7 17.82 7 27 C5.68 27 4.36 27 3 27 C3 19.08 3 11.16 3 3 C2.01 2.67 1.02 2.34 0 2 C0 1.34 0 0.68 0 0 Z " fill="#09356D" transform="translate(561,146)"/>
<path d="M0 0 C3 1.25 3 1.25 5 4 C5.41300474 8.03350084 5.28580211 11.96066356 5 16 C3.68 15.34 2.36 14.68 1 14 C0.67 14.66 0.34 15.32 0 16 C-0.33 12.04 -0.66 8.08 -1 4 C-2.32 3.67 -3.64 3.34 -5 3 C-7.01136276 5.55991624 -8.62845496 8.04590299 -10 11 C-10.66 11 -11.32 11 -12 11 C-12.47863248 4.77777778 -12.47863248 4.77777778 -10.5 1.5625 C-7.00781895 -0.62011316 -3.94474737 -0.71864705 0 0 Z " fill="#06336B" transform="translate(459,118)"/>
<path d="M0 0 C11.25 3.375 11.25 3.375 15.625 5.1875 C16.46289062 5.53167969 17.30078125 5.87585938 18.1640625 6.23046875 C18.76992187 6.48441406 19.37578125 6.73835937 20 7 C19.67 7.66 19.34 8.32 19 9 C13.36529617 9.5497272 10.61012242 7.95047835 6 5 C6 4.34 6 3.68 6 3 C5.34 3 4.68 3 4 3 C3.67 9.6 3.34 16.2 3 23 C2.67 23 2.34 23 2 23 C1.67 27.29 1.34 31.58 1 36 C0.67 36 0.34 36 0 36 C0 24.12 0 12.24 0 0 Z " fill="#083564" transform="translate(208,122)"/>
<path d="M0 0 C0.75990234 0.56267578 0.75990234 0.56267578 1.53515625 1.13671875 C0.54515625 1.5234375 -0.44484375 1.91015625 -1.46484375 2.30859375 C-14.71239847 6.81875361 -14.71239847 6.81875361 -25.46484375 15.13671875 C-25.79484375 16.12671875 -26.12484375 17.11671875 -26.46484375 18.13671875 C-28.11484375 18.46671875 -29.76484375 18.79671875 -31.46484375 19.13671875 C-29.82758836 13.13344899 -25.22049931 9.01037383 -20.20703125 5.6015625 C-16.87922862 3.82389016 -13.46475878 2.53270762 -9.90234375 1.32421875 C-9.24298828 1.08251953 -8.58363281 0.84082031 -7.90429688 0.59179688 C-3.04110504 -1.06510969 -3.04110504 -1.06510969 0 0 Z " fill="#0C3F73" transform="translate(56.46484375,125.86328125)"/>
<path d="M0 0 C4.75 0.75 4.75 0.75 7 3 C7.3359375 5.27734375 7.3359375 5.27734375 7.375 7.9375 C7.40335938 8.81277344 7.43171875 9.68804687 7.4609375 10.58984375 C7 13 7 13 5.1640625 14.81640625 C3 16 3 16 0 16 C-0.82622671 10.39436958 -1.06795656 5.57710648 0 0 Z " fill="#010409" transform="translate(548,155)"/>
<path d="M0 0 C3.07678004 -0.34186445 4.56245107 -0.29804058 7.15625 1.46875 C9.84588545 5.16130036 9.44151679 8.30828359 9.25 12.75 C9.23195313 13.54277344 9.21390625 14.33554688 9.1953125 15.15234375 C9.14833082 17.10208348 9.07659044 19.05119878 9 21 C6.525 20.01 6.525 20.01 4 19 C4 13.39 4 7.78 4 2 C2.68 2 1.36 2 0 2 C0 1.34 0 0.68 0 0 Z " fill="#0B3B71" transform="translate(509,153)"/>
<path d="M0 0 C1.91595968 -0.08133791 3.83291932 -0.13934367 5.75 -0.1875 C7.35101562 -0.23970703 7.35101562 -0.23970703 8.984375 -0.29296875 C12.30027855 0.02917214 13.59016673 0.77148914 16 3 C14.329375 3.433125 14.329375 3.433125 12.625 3.875 C8.99708908 4.69241329 8.99708908 4.69241329 7 7 C6.75470419 9.57579385 6.62658207 12.05229007 6.5859375 14.6328125 C6.56657135 15.38464813 6.5472052 16.13648376 6.5272522 16.91110229 C6.46740853 19.31561899 6.42105274 21.72018344 6.375 24.125 C6.33682454 25.75392728 6.29777307 27.38283428 6.2578125 29.01171875 C6.16170334 33.00764806 6.07769059 37.00367187 6 41 C5.67 41 5.34 41 5 41 C5 29.12 5 17.24 5 5 C3.02 4.34 1.04 3.68 -1 3 C-0.67 2.01 -0.34 1.02 0 0 Z " fill="#022F59" transform="translate(595,50)"/>
<path d="M0 0 C3.875 1.875 3.875 1.875 5 3 C5.203125 5.1796875 5.203125 5.1796875 5.25 7.875 C5.28867187 9.20144531 5.28867187 9.20144531 5.328125 10.5546875 C4.94503183 13.40964372 4.21462117 14.23995897 2 16 C-1 15 -1 15 -2.25 12.875 C-3.19852514 9.23898698 -2.81091733 6.649128 -2 3 C-1.34 2.01 -0.68 1.02 0 0 Z " fill="#000103" transform="translate(529,155)"/>
<path d="M0 0 C0 4.29 0 8.58 0 13 C-1.98 13 -3.96 13 -6 13 C-7.88646445 10.22578757 -7.99303187 8.86760546 -7.8125 5.4375 C-7 2 -7 2 -5.6875 0 C-4 -1 -4 -1 0 0 Z " fill="#000205" transform="translate(458,121)"/>
<path d="M0 0 C4.29 0 8.58 0 13 0 C12.67 0.66 12.34 1.32 12 2 C9.69 2.33 7.38 2.66 5 3 C4.67 7.95 4.34 12.9 4 18 C2.68 18 1.36 18 0 18 C0 12.06 0 6.12 0 0 Z " fill="#05306F" transform="translate(385,119)"/>
<path d="M0 0 C0.33 0 0.66 0 1 0 C1 10.23 1 20.46 1 31 C0.01 31 -0.98 31 -2 31 C-2.04939115 26.90661348 -2.08571501 22.81334202 -2.10986328 18.71972656 C-2.11992877 17.32679219 -2.13358234 15.93387898 -2.15087891 14.54101562 C-2.1751022 12.5404564 -2.18540814 10.53974385 -2.1953125 8.5390625 C-2.20578613 7.33459473 -2.21625977 6.13012695 -2.22705078 4.88916016 C-2 2 -2 2 0 0 Z " fill="#013C79" transform="translate(603,60)"/>
<path d="M0 0 C0 2.31 0 4.62 0 7 C-1.98 7.66 -3.96 8.32 -6 9 C-2.04 9.33 1.92 9.66 6 10 C6 10.33 6 10.66 6 11 C3.70890403 11.08075665 1.41700733 11.13907731 -0.875 11.1875 C-2.15117188 11.22230469 -3.42734375 11.25710937 -4.7421875 11.29296875 C-5.81726563 11.19628906 -6.89234375 11.09960938 -8 11 C-10.4294516 7.3558226 -10.16179575 5.28758728 -10 1 C-6.52674819 -0.1577506 -3.63932552 -0.06866652 0 0 Z " fill="#06244D" transform="translate(572,127)"/>
<path d="M0 0 C0.78375 0.04125 1.5675 0.0825 2.375 0.125 C2.55951025 9.53502278 2.55951025 9.53502278 1.375 14.125 C-3.5 13.25 -3.5 13.25 -4.625 12.125 C-4.7495486 10.48269636 -4.80068524 8.83447724 -4.8125 7.1875 C-4.82667969 6.29160156 -4.84085937 5.39570313 -4.85546875 4.47265625 C-4.51092568 0.96298874 -3.48296643 0.16585554 0 0 Z " fill="#000205" transform="translate(338.625,155.875)"/>
<path d="M0 0 C0.66 1.32 1.32 2.64 2 4 C1.01 4.33 0.02 4.66 -1 5 C-1.0825 5.721875 -1.165 6.44375 -1.25 7.1875 C-2 10 -2 10 -4.0625 12.4375 C-6.4065339 15.53767386 -6.3529412 17.20588212 -6 21 C-9 21 -9 21 -11.6875 18.5 C-12.450625 17.675 -13.21375 16.85 -14 16 C-13.24074219 15.26394531 -12.48148437 14.52789062 -11.69921875 13.76953125 C-10.69504479 12.7841269 -9.69115346 11.79843448 -8.6875 10.8125 C-8.18798828 10.32974609 -7.68847656 9.84699219 -7.17382812 9.34960938 C-4.23648806 6.45117447 -1.94921782 3.63898344 0 0 Z " fill="#0D3C6E" transform="translate(137,48)"/>
<path d="M0 0 C2.31 0 4.62 0 7 0 C7.33 0.66 7.66 1.32 8 2 C8.99 1.34 9.98 0.68 11 0 C11.33 1.98 11.66 3.96 12 6 C10.4375 7.5625 10.4375 7.5625 8 9 C1.56363636 8.56363636 1.56363636 8.56363636 0 7 C-0.04092937 4.66702567 -0.04241723 2.33294775 0 0 Z " fill="#04295C" transform="translate(438,155)"/>
<path d="M0 0 C1.98 0 3.96 0 6 0 C6 4.62 6 9.24 6 14 C4.02 14 2.04 14 0 14 C0 9.38 0 4.76 0 0 Z " fill="#000000" transform="translate(388,156)"/>
<path d="M0 0 C3.625 0.375 3.625 0.375 7 1 C7 3.64 7 6.28 7 9 C5.02 9.66 3.04 10.32 1 11 C-1.0625 9.3125 -1.0625 9.3125 -3 7 C-2.83849795 3.60845705 -2.41703243 2.41703243 0 0 Z " fill="#042E62" transform="translate(351,162)"/>
<path d="M0 0 C0 0.66 0 1.32 0 2 C-0.60328125 2.29132813 -1.2065625 2.58265625 -1.828125 2.8828125 C-6.97928282 5.52485796 -10.36647397 7.62321769 -13 13 C-13.33 14.98 -13.66 16.96 -14 19 C-8.72 19 -3.44 19 2 19 C2 19.33 2 19.66 2 20 C-0.79192205 20.05380578 -3.5828141 20.09357669 -6.375 20.125 C-7.1690625 20.14175781 -7.963125 20.15851563 -8.78125 20.17578125 C-10.85492015 20.19335473 -12.92883241 20.10335168 -15 20 C-17 18 -17 18 -18 15.875 C-18 11.30483201 -15.12604819 8.18936055 -12 5 C-11.34 5 -10.68 5 -10 5 C-10 4.34 -10 3.68 -10 3 C-6.27034861 0.96564469 -4.33094958 0 0 0 Z " fill="#053669" transform="translate(48,139)"/>
<path d="M0 0 C0 11.88 0 23.76 0 36 C-0.66 36 -1.32 36 -2 36 C-2.33 25.11 -2.66 14.22 -3 3 C-3.99 3.495 -3.99 3.495 -5 4 C-5 3.34 -5 2.68 -5 2 C-5.99 1.67 -6.98 1.34 -8 1 C-5.10765685 0.17361624 -3.11257569 0 0 0 Z " fill="#063A6F" transform="translate(64,123)"/>
<path d="M0 0 C1.91015625 0.1328125 1.91015625 0.1328125 3.91015625 1.1328125 C4.27917675 11.69089906 4.27917675 11.69089906 1.91015625 16.1328125 C1.58015625 16.1328125 1.25015625 16.1328125 0.91015625 16.1328125 C0.91015625 14.4828125 0.91015625 12.8328125 0.91015625 11.1328125 C-1.39984375 11.1328125 -3.70984375 11.1328125 -6.08984375 11.1328125 C-6.08984375 10.4728125 -6.08984375 9.8128125 -6.08984375 9.1328125 C-3.77984375 9.1328125 -1.46984375 9.1328125 0.91015625 9.1328125 C0.91015625 7.1528125 0.91015625 5.1728125 0.91015625 3.1328125 C-1.06984375 3.1328125 -3.04984375 3.1328125 -5.08984375 3.1328125 C-5.41984375 4.1228125 -5.74984375 5.1128125 -6.08984375 6.1328125 C-6.74984375 6.1328125 -7.40984375 6.1328125 -8.08984375 6.1328125 C-6.97719122 -0.0662516 -6.41542236 0.02328647 0 0 Z " fill="#09326E" transform="translate(497.08984375,117.8671875)"/>
<path d="M0 0 C4.29 0.33 8.58 0.66 13 1 C13 1.33 13 1.66 13 2 C11.02 2 9.04 2 7 2 C7 7.28 7 12.56 7 18 C5.68 18 4.36 18 3 18 C3 12.39 3 6.78 3 1 C2.01 0.67 1.02 0.34 0 0 Z " fill="#0A3266" transform="translate(465,120)"/>
<path d="M0 0 C0.66 0.33 1.32 0.66 2 1 C1.95875 1.7425 1.9175 2.485 1.875 3.25 C2.00398134 6.08758952 2.57051222 7.58773938 4 10 C7.06550592 9.01041003 7.06550592 9.01041003 10 7 C10.97873538 3.40614946 10.97873538 3.40614946 11 0 C11.33 0 11.66 0 12 0 C12 2.31 12 4.62 12 7 C12.99 6.67 13.98 6.34 15 6 C15 7.32 15 8.64 15 10 C11.2592807 11.87035965 8.95627578 13.01838992 4.75 12.9375 C2 12 2 12 0.0625 10.4375 C-1.55541707 6.72580791 -0.72388102 3.94844195 0 0 Z " fill="#0C3D78" transform="translate(544,161)"/>
<path d="M0 0 C0.33 0 0.66 0 1 0 C1.12375 0.78375 1.2475 1.5675 1.375 2.375 C1.79117993 5.14057822 1.79117993 5.14057822 4 7 C4.23046875 9.34765625 4.23046875 9.34765625 4.1875 12.0625 C4.18105469 12.96097656 4.17460937 13.85945312 4.16796875 14.78515625 C4 17 4 17 3 18 C1.00035018 18.08758003 -1.0023611 18.10696576 -3.00390625 18.09765625 C-4.21884766 18.09443359 -5.43378906 18.09121094 -6.68554688 18.08789062 C-7.96494141 18.07951172 -9.24433594 18.07113281 -10.5625 18.0625 C-11.84576172 18.05798828 -13.12902344 18.05347656 -14.45117188 18.04882812 C-17.63416022 18.03699545 -20.81705762 18.02051068 -24 18 C-24 17.67 -24 17.34 -24 17 C-16.08 17 -8.16 17 0 17 C0 11.39 0 5.78 0 0 Z " fill="#0D315B" transform="translate(190,141)"/>
<path d="M0 0 C3 3 3 3 3.34057617 5.72729492 C3.32486572 6.80084229 3.30915527 7.87438965 3.29296875 8.98046875 C3.28330078 10.14384766 3.27363281 11.30722656 3.26367188 12.50585938 C3.23853516 13.72080078 3.21339844 14.93574219 3.1875 16.1875 C3.17396484 17.41404297 3.16042969 18.64058594 3.14648438 19.90429688 C3.11108741 22.93663664 3.0617076 25.96809996 3 29 C2.01 29.33 1.02 29.66 0 30 C0 20.1 0 10.2 0 0 Z M-3 30 C0 31 0 31 0 31 Z " fill="#084079" transform="translate(209,128)"/>
<path d="M0 0 C5.75 0.875 5.75 0.875 8 2 C8.125 4.875 8.125 4.875 8 8 C6 10 6 10 2.875 10.125 C1.451875 10.063125 1.451875 10.063125 0 10 C0 6.7 0 3.4 0 0 Z " fill="#000002" transform="translate(312,160)"/>
<path d="M0 0 C1.80328001 1.07222055 3.56688393 2.21125595 5.3125 3.375 C4.6525 7.335 3.9925 11.295 3.3125 15.375 C2.9825 15.375 2.6525 15.375 2.3125 15.375 C2.27382813 14.32699219 2.27382813 14.32699219 2.234375 13.2578125 C2.17765625 12.34773437 2.1209375 11.43765625 2.0625 10.5 C2.01609375 9.59507812 1.9696875 8.69015625 1.921875 7.7578125 C1.55638852 5.20389456 1.55638852 5.20389456 -0.734375 4.0546875 C-1.37890625 3.83039063 -2.0234375 3.60609375 -2.6875 3.375 C-3.6775 6.015 -4.6675 8.655 -5.6875 11.375 C-6.3475 10.055 -7.0075 8.735 -7.6875 7.375 C-8.6775 7.87 -8.6775 7.87 -9.6875 8.375 C-9.5625 6.125 -9.5625 6.125 -8.6875 3.375 C-3.86558219 -0.8989726 -3.86558219 -0.8989726 0 0 Z " fill="#092E60" transform="translate(531.6875,152.625)"/>
<path d="M0 0 C0.33 0.66 0.66 1.32 1 2 C2.98 2 4.96 2 7 2 C7.33 3.32 7.66 4.64 8 6 C4.31265242 8.45823172 1.30300029 9.01242616 -3 10 C-3 7.03 -3 4.06 -3 1 C-2.01 0.67 -1.02 0.34 0 0 Z " fill="#062F67" transform="translate(408,127)"/>
<path d="M0 0 C0 0.33 0 0.66 0 1 C-2.31 1 -4.62 1 -7 1 C-7 1.66 -7 2.32 -7 3 C-4.69 3 -2.38 3 0 3 C0 4.65 0 6.3 0 8 C-2.01822917 7.90234375 -4.03645833 7.8046875 -6.0546875 7.70703125 C-6.69664062 7.80371094 -7.33859375 7.90039062 -8 8 C-8.99 9.485 -8.99 9.485 -10 11 C-11.25 8.3125 -11.25 8.3125 -12 5 C-9.18420062 -0.88758052 -5.8607383 -0.48839486 0 0 Z " fill="#082553" transform="translate(498,126)"/>
<path d="M0 0 C0.33 0 0.66 0 1 0 C1 2.64 1 5.28 1 8 C2.0725 7.835 3.145 7.67 4.25 7.5 C8 7 8 7 12 7 C10.06745228 9.0245738 8.36841312 10.42105792 6 12 C2.02382887 11.68609175 -0.70155506 10.16754953 -4 8 C-3.67 5.69 -3.34 3.38 -3 1 C-2.34 1.33 -1.68 1.66 -1 2 C-0.67 1.34 -0.34 0.68 0 0 Z " fill="#063167" transform="translate(437,170)"/>
<path d="M0 0 C0.33 0 0.66 0 1 0 C1 4.62 1 9.24 1 14 C-0.98 14.66 -2.96 15.32 -5 16 C-5.99 15.34 -6.98 14.68 -8 14 C-7.01 14 -6.02 14 -5 14 C-4.67 11.36 -4.34 8.72 -4 6 C-2.68 5.67 -1.36 5.34 0 5 C0 3.35 0 1.7 0 0 Z " fill="#052B56" transform="translate(345,156)"/>
<path d="M0 0 C3.37309983 0.46525515 5.57394431 1.62438206 8 4 C8.390625 6.91796875 8.390625 6.91796875 8.25 10.1875 C8.21390625 11.27417969 8.1778125 12.36085937 8.140625 13.48046875 C8.07101562 14.72763672 8.07101562 14.72763672 8 16 C6.06640625 15.30859375 6.06640625 15.30859375 4 14 C3.27734375 11.72265625 3.27734375 11.72265625 2.9375 9.0625 C2.4445084 5.30136182 1.97682445 3.44438431 -1 1 C-0.67 0.67 -0.34 0.34 0 0 Z " fill="#06356B" transform="translate(552,154)"/>
<path d="M0 0 C3.375 -0.125 3.375 -0.125 7 0 C9 2 9 2 9.125 4.625 C9.08375 5.40875 9.0425 6.1925 9 7 C8.01 7 7.02 7 6 7 C6 7.66 6 8.32 6 9 C3.69 9 1.38 9 -1 9 C-0.125 5.125 -0.125 5.125 1 4 C3.33944736 4.28730055 5.6739143 4.61936779 8 5 C8 4.34 8 3.68 8 3 C5.36 2.67 2.72 2.34 0 2 C0 1.34 0 0.68 0 0 Z " fill="#0A2958" transform="translate(355,118)"/>
<path d="M0 0 C2.64 0 5.28 0 8 0 C7.34 1.32 6.68 2.64 6 4 C5.34 4 4.68 4 4 4 C4 6.64 4 9.28 4 12 C2.68 12 1.36 12 0 12 C0 8.04 0 4.08 0 0 Z " fill="#073057" transform="translate(238,184)"/>
<path d="M0 0 C2.875 -0.125 2.875 -0.125 6 0 C8 2 8 2 8.1875 4.5625 C8 7 8 7 7 8 C4.66702567 8.04092937 2.33294775 8.04241723 0 8 C0 5.36 0 2.72 0 0 Z " fill="#000103" transform="translate(438,170)"/>
<path d="M0 0 C1.32 0 2.64 0 4 0 C4 4.95 4 9.9 4 15 C2.68 15 1.36 15 0 15 C0 10.05 0 5.1 0 0 Z " fill="#052F69" transform="translate(397,122)"/>
<path d="M0 0 C2.31 0 4.62 0 7 0 C6.67 5.94 6.34 11.88 6 18 C6.99 17.67 7.98 17.34 9 17 C9.33 17.99 9.66 18.98 10 20 C8.02 20 6.04 20 4 20 C4 14.06 4 8.12 4 2 C2.68 2 1.36 2 0 2 C0 1.34 0 0.68 0 0 Z " fill="#0B2A57" transform="translate(312,118)"/>
<path d="M0 0 C0.33 0 0.66 0 1 0 C1 5.61 1 11.22 1 17 C-0.32 17 -1.64 17 -3 17 C-3.08126087 14.91731407 -3.13930839 12.83371342 -3.1875 10.75 C-3.22230469 9.58984375 -3.25710938 8.4296875 -3.29296875 7.234375 C-2.97975384 3.77648237 -2.40220047 2.44455665 0 0 Z " fill="#023578" transform="translate(558,120)"/>
<path d="M0 0 C0.99 0.66 1.98 1.32 3 2 C2.52269162 3.4589426 2.04308958 4.91713496 1.5625 6.375 C1.29566406 7.18710938 1.02882813 7.99921875 0.75390625 8.8359375 C0 11 0 11 -1 13 C-2.65 13 -4.3 13 -6 13 C-5.33501617 8.61110675 -3.81242323 5.0188515 -2 1 C-1.67 1.66 -1.34 2.32 -1 3 C-0.67 2.01 -0.34 1.02 0 0 Z " fill="#093270" transform="translate(313,79)"/>
<path d="M0 0 C3.465 1.485 3.465 1.485 7 3 C7 7 7 7 5.75 8.75 C4 10 4 10 0 10 C0 6.7 0 3.4 0 0 Z " fill="#000205" transform="translate(312,148)"/>
<path d="M0 0 C0.33 0 0.66 0 1 0 C1 4.95 1 9.9 1 15 C1.99 15 2.98 15 4 15 C4 10.05 4 5.1 4 0 C4.66 0 5.32 0 6 0 C6 5.61 6 11.22 6 17 C4.35 17 2.7 17 1 17 C0 16 0 16 -0.09765625 12.40234375 C-0.0909822 10.91403133 -0.07902183 9.42573568 -0.0625 7.9375 C-0.05798828 7.17888672 -0.05347656 6.42027344 -0.04882812 5.63867188 C-0.0370068 3.75908129 -0.01907078 1.87953101 0 0 Z " fill="#0A2854" transform="translate(612,121)"/>
<path d="M0 0 C4.82360189 -0.19294408 8.49646738 0.24252386 13 2 C12.01 2.66 11.02 3.32 10 4 C9.01 5.485 9.01 5.485 8 7 C8 5.68 8 4.36 8 3 C7.34 3 6.68 3 6 3 C5.67 8.28 5.34 13.56 5 19 C6.65 19 8.3 19 10 19 C10 19.33 10 19.66 10 20 C8.02 20 6.04 20 4 20 C4 14.06 4 8.12 4 2 C2.68 2 1.36 2 0 2 C0 1.34 0 0.68 0 0 Z " fill="#0B284F" transform="translate(578,118)"/>
<path d="M0 0 C4.62 0 9.24 0 14 0 C14.33 1.32 14.66 2.64 15 4 C14.28972656 3.91621094 13.57945312 3.83242187 12.84765625 3.74609375 C11.46900391 3.59333984 11.46900391 3.59333984 10.0625 3.4375 C9.14597656 3.33308594 8.22945313 3.22867188 7.28515625 3.12109375 C6.15400391 3.06115234 6.15400391 3.06115234 5 3 C2.94077598 5.05922402 3.58572421 9.21708124 3.4375 12.0625 C3.39431641 12.82111328 3.35113281 13.57972656 3.30664062 14.36132812 C3.20026367 16.24065438 3.09960066 18.12030244 3 20 C2.67 20 2.34 20 2 20 C1.93941406 18.80761719 1.87882812 17.61523438 1.81640625 16.38671875 C1.73198851 14.82030075 1.64734113 13.25389512 1.5625 11.6875 C1.52318359 10.90181641 1.48386719 10.11613281 1.44335938 9.30664062 C1.40146484 8.54931641 1.35957031 7.79199219 1.31640625 7.01171875 C1.26141968 5.96697388 1.26141968 5.96697388 1.20532227 4.90112305 C1.04418847 2.7783428 1.04418847 2.7783428 0 0 Z " fill="#06285C" transform="translate(366,153)"/>
<path d="M0 0 C0.66 0 1.32 0 2 0 C2 0.66 2 1.32 2 2 C3.0828125 1.8453125 3.0828125 1.8453125 4.1875 1.6875 C9.11235864 2.23470652 11.31251537 6.16387005 14.3125 9.8125 C14.869375 10.534375 15.42625 11.25625 16 12 C11.91017188 11.48167109 9.94271412 10.41622075 7 7.5625 C4.13890972 4.91815898 1.82552668 3.07592938 -2 2 C-1.34 1.34 -0.68 0.68 0 0 Z " fill="#073C6F" transform="translate(227,140)"/>
<path d="M0 0 C6.10643016 0.45232816 6.10643016 0.45232816 8.9375 2.1875 C10.47273259 4.80642619 10.1980568 7.02914805 10 10 C9.01 10.33 8.02 10.66 7 11 C6.938125 10.05125 6.87625 9.1025 6.8125 8.125 C6.544375 7.09375 6.27625 6.0625 6 5 C3.60470331 3.67518454 3.60470331 3.67518454 1 3 C0.34 2.34 -0.32 1.68 -1 1 C-0.67 0.67 -0.34 0.34 0 0 Z " fill="#093775" transform="translate(470,145)"/>
<path d="M0 0 C0.556875 0.309375 1.11375 0.61875 1.6875 0.9375 C4.12540433 2.05761821 6.36224186 2.56037364 9 3 C9.33 2.34 9.66 1.68 10 1 C10.66 1 11.32 1 12 1 C11.42655063 3.86724686 11.1385485 4.8614515 9 7 C5.49662019 7.38080215 3.63721374 7.40245078 0.625 5.5 C0.08875 5.005 -0.4475 4.51 -1 4 C-0.67 2.68 -0.34 1.36 0 0 Z " fill="#0D3465" transform="translate(486,167)"/>
<path d="M0 0 C2.5 1.625 2.5 1.625 5 4 C5.3125 7.25 5.3125 7.25 5 10 C2.37886292 10 0.49064888 9.68707555 -2 9 C-1.67 7.02 -1.34 5.04 -1 3 C-1.66 2.67 -2.32 2.34 -3 2 C-2.01 2 -1.02 2 0 2 C0 1.34 0 0.68 0 0 Z " fill="#052E5D" transform="translate(321,159)"/>
<path d="M0 0 C0.81984375 0.54914063 0.81984375 0.54914063 1.65625 1.109375 C-0.37779358 1.98153909 -2.42140486 2.83141005 -4.46875 3.671875 C-6.17417969 4.38537109 -6.17417969 4.38537109 -7.9140625 5.11328125 C-11.57294405 6.17594047 -13.69149355 6.03631547 -17.34375 5.109375 C-14.24288745 3.50043689 -11.09834066 2.129023 -7.84375 0.859375 C-6.9053125 0.48296875 -5.966875 0.1065625 -5 -0.28125 C-2.34375 -0.890625 -2.34375 -0.890625 0 0 Z " fill="#0B3B6E" transform="translate(56.34375,125.890625)"/>
<path d="M0 0 C1.22589844 0.15275391 1.22589844 0.15275391 2.4765625 0.30859375 C3.41628906 0.43427734 3.41628906 0.43427734 4.375 0.5625 C4.375 0.8925 4.375 1.2225 4.375 1.5625 C2.395 1.5625 0.415 1.5625 -1.625 1.5625 C-1.625 5.5225 -1.625 9.4825 -1.625 13.5625 C-2.285 12.2425 -2.945 10.9225 -3.625 9.5625 C-3.955 11.2125 -4.285 12.8625 -4.625 14.5625 C-4.955 14.5625 -5.285 14.5625 -5.625 14.5625 C-5.955 9.9425 -6.285 5.3225 -6.625 0.5625 C-4.10446405 -0.69776798 -2.7707902 -0.35624445 0 0 Z " fill="#042556" transform="translate(343.625,120.4375)"/>
<path d="M0 0 C0.33 1.32 0.66 2.64 1 4 C-2.63 4.33 -6.26 4.66 -10 5 C-10 3.68 -10 2.36 -10 1 C-6.78548731 -0.60725635 -3.56387464 -0.05748185 0 0 Z " fill="#0B3771" transform="translate(573,118)"/>
<path d="M0 0 C1.8125 1.125 1.8125 1.125 3 3 C3.1875 6.1875 3.1875 6.1875 3 9 C1.125 8.8125 1.125 8.8125 -1 8 C-1.28875 7.175 -1.5775 6.35 -1.875 5.5 C-2.24625 4.675 -2.6175 3.85 -3 3 C-6.05272465 2.10169161 -6.05272465 2.10169161 -9 2 C-5.88578592 0.1545398 -3.61678684 -0.46369062 0 0 Z " fill="#052B62" transform="translate(447,168)"/>
<path d="M0 0 C1.98 0 3.96 0 6 0 C6 2.31 6 4.62 6 7 C4.02 7 2.04 7 0 7 C0 4.69 0 2.38 0 0 Z " fill="#000206" transform="translate(438,155)"/>
<path d="M0 0 C0.33 0.99 0.66 1.98 1 3 C-4.75 6 -4.75 6 -7 6 C-7 4.35 -7 2.7 -7 1 C-9.31 1 -11.62 1 -14 1 C-14 0.67 -14 0.34 -14 0 C-9.02936879 -0.91297308 -4.97063121 -0.91297308 0 0 Z " fill="#043871" transform="translate(577,68)"/>
<path d="M0 0 C0.33 0.99 0.66 1.98 1 3 C0.360625 3.2475 -0.27875 3.495 -0.9375 3.75 C-3.16351592 4.784099 -3.16351592 4.784099 -3.5625 6.875 C-3.706875 7.57625 -3.85125 8.2775 -4 9 C-5.5625 11.25 -5.5625 11.25 -7 13 C-8.32 12.34 -9.64 11.68 -11 11 C-11 10.34 -11 9.68 -11 9 C-9.00715862 7.6559907 -7.00580329 6.32458708 -5 5 C-3.29671681 3.3707726 -1.61838719 1.71358643 0 0 Z " fill="#093C71" transform="translate(155,18)"/>
<path d="M0 0 C1.32 0.99 2.64 1.98 4 3 C4.13170447 5.73885424 4.06601942 8.00133489 3.75 10.6875 C3.68425781 11.38939453 3.61851562 12.09128906 3.55078125 12.81445312 C3.38598044 14.54486164 3.19545358 16.27278524 3 18 C2.34 18 1.68 18 1 18 C0.67 12.06 0.34 6.12 0 0 Z " fill="#063D72" transform="translate(519,35)"/>
<path d="M0 0 C5.61 0 11.22 0 17 0 C17 0.33 17 0.66 17 1 C14.36 1 11.72 1 9 1 C8.34 2.65 7.68 4.3 7 6 C3.535 4.02 3.535 4.02 0 2 C0 1.34 0 0.68 0 0 Z " fill="#02295A" transform="translate(360,34)"/>
<path d="M0 0 C3 3.75 3 3.75 3 6 C-2.64399358 8.44064587 -7.97751478 8.19289099 -14 8 C-10.51856576 5.67904384 -8.11096446 5.50485528 -4 5 C-2.66082739 4.69096017 -1.32346746 4.37057089 0 4 C0 2.68 0 1.36 0 0 Z " fill="#0A397A" transform="translate(321,165)"/>
<path d="M0 0 C1.81242052 -0.02687279 3.62495233 -0.04633715 5.4375 -0.0625 C6.44683594 -0.07410156 7.45617187 -0.08570312 8.49609375 -0.09765625 C11 0 11 0 12 1 C12.04080783 2.99958364 12.04254356 5.00045254 12 7 C11.34 6.67 10.68 6.34 10 6 C10 5.01 10 4.02 10 3 C6.65747276 2.92572162 4.1964086 2.93453047 1 4 C0.67 2.68 0.34 1.36 0 0 Z " fill="#103A80" transform="translate(625,119)"/>
<path d="M0 0 C0.99 0.33 1.98 0.66 3 1 C3.33 2.65 3.66 4.3 4 6 C6.64 6 9.28 6 12 6 C12 6.33 12 6.66 12 7 C10.56666979 7.39063507 9.12807321 7.76198474 7.6875 8.125 C6.48673828 8.43824219 6.48673828 8.43824219 5.26171875 8.7578125 C3 9 3 9 0 7 C-0.1875 3.375 -0.1875 3.375 0 0 Z " fill="#052958" transform="translate(462,164)"/>
<path d="M0 0 C0.33 0.66 0.66 1.32 1 2 C1.66 2 2.32 2 3 2 C2.67 4.97 2.34 7.94 2 11 C1.01 11 0.02 11 -1 11 C-1.33 11.66 -1.66 12.32 -2 13 C-2.05447047 11.58376784 -2.09300508 10.16691809 -2.125 8.75 C-2.14820312 7.96109375 -2.17140625 7.1721875 -2.1953125 6.359375 C-1.9828378 3.79268059 -1.28654105 2.2083933 0 0 Z " fill="#0A3A6B" transform="translate(24,145)"/>
<path d="M0 0 C0 2.97 0 5.94 0 9 C-1.32 9.33 -2.64 9.66 -4 10 C-4 7.03 -4 4.06 -4 1 C-1 0 -1 0 0 0 Z " fill="#053D76" transform="translate(409,163)"/>
<path d="M0 0 C2.22825644 2.22825644 2.69239369 3.65761628 3.625 6.625 C3.88539063 7.44226563 4.14578125 8.25953125 4.4140625 9.1015625 C4.60742188 9.72804688 4.80078125 10.35453125 5 11 C4.01 11.66 3.02 12.32 2 13 C1.46605821 11.5882217 0.94834896 10.17029756 0.4375 8.75 C0.14746094 7.96109375 -0.14257812 7.1721875 -0.44140625 6.359375 C-1.04522837 3.80896548 -0.8473932 2.44677771 0 0 Z " fill="#07396A" transform="translate(450,64)"/>
<path d="M0 0 C0.66 0 1.32 0 2 0 C2 2.64 2 5.28 2 8 C-1.63 8 -5.26 8 -9 8 C-9 7.67 -9 7.34 -9 7 C-7.02 6.67 -5.04 6.34 -3 6 C-3 5.01 -3 4.02 -3 3 C-2.01 3 -1.02 3 0 3 C0 2.01 0 1.02 0 0 Z " fill="#0A2958" transform="translate(364,122)"/>
<path d="M0 0 C0.33 0 0.66 0 1 0 C1 3.3 1 6.6 1 10 C1.99 10.33 2.98 10.66 4 11 C2.0085944 11.38133299 0.00720923 11.71325582 -2 12 C-3 11 -3 11 -3.1875 7.625 C-3.00077939 4.01506822 -2.58446645 2.58446645 0 0 Z " fill="#043062" transform="translate(567,76)"/>
<path d="M0 0 C0.66 0.33 1.32 0.66 2 1 C2 1.99 2 2.98 2 4 C-0.88834003 6.10770759 -2.38462395 7 -6 7 C-6.33 7.99 -6.66 8.98 -7 10 C-6.875 7.25 -6.875 7.25 -6 4 C-2.9375 1.625 -2.9375 1.625 0 0 Z " fill="#072F62" transform="translate(469,144)"/>
<path d="M0 0 C1.485 0.99 1.485 0.99 3 2 C5.06910593 2.02749478 5.06910593 2.02749478 7.1875 1.625 C9.0746875 1.315625 9.0746875 1.315625 11 1 C10.67 2.32 10.34 3.64 10 5 C6.37 5 2.74 5 -1 5 C-0.34 4.34 0.32 3.68 1 3 C0.67 2.01 0.34 1.02 0 0 Z " fill="#164082" transform="translate(626,132)"/>
<path d="M0 0 C0.33 0 0.66 0 1 0 C1 1.98 1 3.96 1 6 C-2.96 6 -6.92 6 -11 6 C-10.67 4.68 -10.34 3.36 -10 2 C-5.545 2.99 -5.545 2.99 -1 4 C-0.67 2.68 -0.34 1.36 0 0 Z " fill="#09387D" transform="translate(500,131)"/>
<path d="M0 0 C0.66 0.33 1.32 0.66 2 1 C0.56771184 2.31818554 -0.87102484 3.62936704 -2.3125 4.9375 C-3.11300781 5.66839844 -3.91351563 6.39929688 -4.73828125 7.15234375 C-7 9 -7 9 -10 10 C-8.5741914 6.54804233 -6.90253666 4.8985744 -3.875 2.75 C-3.15054688 2.22921875 -2.42609375 1.7084375 -1.6796875 1.171875 C-1.12539062 0.78515625 -0.57109375 0.3984375 0 0 Z " fill="#083B74" transform="translate(88,112)"/>
<path d="M0 0 C2.66666667 1.33333333 5.33333333 2.66666667 8 4 C8 4.66 8 5.32 8 6 C2.375 6.25 2.375 6.25 -1 4 C-0.67 2.68 -0.34 1.36 0 0 Z " fill="#0B3E78" transform="translate(332,167)"/>
<path d="M0 0 C4.8125 4.8125 4.8125 4.8125 5 8 C4.0625 11.25 4.0625 11.25 3 14 C2.67 14 2.34 14 2 14 C1.34 9.38 0.68 4.76 0 0 Z " fill="#093B6D" transform="translate(544,53)"/>
<path d="M0 0 C0.33 0 0.66 0 1 0 C1.65272294 3.0244984 2.13871893 5.90016549 2 9 C-0.3125 11.5625 -0.3125 11.5625 -3 13 C-3.66 13 -4.32 13 -5 13 C-4.70351563 12.43796875 -4.40703125 11.8759375 -4.1015625 11.296875 C-2.99056497 8.98032695 -2.16535294 6.69290908 -1.375 4.25 C-1.11460937 3.45078125 -0.85421875 2.6515625 -0.5859375 1.828125 C-0.39257812 1.22484375 -0.19921875 0.6215625 0 0 Z " fill="#054075" transform="translate(269,180)"/>
<path d="M0 0 C4.12751449 0.60698743 7.3321148 2.03810791 11 4 C10.67 4.99 10.34 5.98 10 7 C5.56541027 5.6062718 3.12621626 3.39417765 0 0 Z " fill="#0A3D7A" transform="translate(169,120)"/>
<path d="M0 0 C0.99 0.33 1.98 0.66 3 1 C1.06745228 3.0245738 -0.63158688 4.42105792 -3 6 C-5.6875 5.625 -5.6875 5.625 -8 5 C-8 4.34 -8 3.68 -8 3 C-6.865625 2.690625 -5.73125 2.38125 -4.5625 2.0625 C-1.21224901 1.37075469 -1.21224901 1.37075469 0 0 Z " fill="#0F367D" transform="translate(446,176)"/>
<path d="M0 0 C0.66 0.66 1.32 1.32 2 2 C1.9375 4 1.9375 4 1 6 C-2.88779613 8.33267768 -5.68066349 8.00449686 -10 7 C-10 6.67 -10 6.34 -10 6 C-8.906875 5.938125 -7.81375 5.87625 -6.6875 5.8125 C-2.85667284 5.3867767 -2.85667284 5.3867767 -1.0625 2.4375 C-0.711875 1.633125 -0.36125 0.82875 0 0 Z " fill="#073667" transform="translate(471,80)"/>
<path d="M0 0 C2.475 0.99 2.475 0.99 5 2 C4.34 5.96 3.68 9.92 3 14 C2.67 14 2.34 14 2 14 C1.92652344 12.96939453 1.92652344 12.96939453 1.8515625 11.91796875 C1.77679687 11.01691406 1.70203125 10.11585938 1.625 9.1875 C1.55539062 8.29417969 1.48578125 7.40085938 1.4140625 6.48046875 C1.13354964 3.75601501 1.13354964 3.75601501 -1 1 C-0.67 0.67 -0.34 0.34 0 0 Z " fill="#092651" transform="translate(532,154)"/>
<path d="M0 0 C1.65 0 3.3 0 5 0 C5.33 1.32 5.66 2.64 6 4 C4.02 4.33 2.04 4.66 0 5 C0 3.35 0 1.7 0 0 Z " fill="#01060F" transform="translate(410,129)"/>
<path d="M0 0 C0.68359375 1.734375 0.68359375 1.734375 1 4 C-0.21484375 6.140625 -0.21484375 6.140625 -1.9375 8.25 C-2.50339844 8.95640625 -3.06929688 9.6628125 -3.65234375 10.390625 C-4.31943359 11.18726563 -4.31943359 11.18726563 -5 12 C-5.33 11.01 -5.66 10.02 -6 9 C-4.78515625 6.73828125 -4.78515625 6.73828125 -3.0625 4.3125 C-2.49660156 3.50425781 -1.93070312 2.69601563 -1.34765625 1.86328125 C-0.90292969 1.24839844 -0.45820312 0.63351563 0 0 Z " fill="#073D6E" transform="translate(77,122)"/>
<path d="M0 0 C7.50769231 -0.36923077 7.50769231 -0.36923077 10 1.5 C10.495 2.2425 10.495 2.2425 11 3 C10.67 3.66 10.34 4.32 10 5 C9.01 5 8.02 5 7 5 C6.67 4.34 6.34 3.68 6 3 C2.97065509 2.34227572 2.97065509 2.34227572 0 2 C0 1.34 0 0.68 0 0 Z " fill="#0A3675" transform="translate(322,119)"/>
<path d="M0 0 C3.3 0 6.6 0 10 0 C10 1.32 10 2.64 10 4 C6.7 3.34 3.4 2.68 0 2 C0 1.34 0 0.68 0 0 Z " fill="#07397A" transform="translate(408,119)"/>
<path d="M0 0 C4.29 0.33 8.58 0.66 13 1 C13 1.33 13 1.66 13 2 C10.36 2 7.72 2 5 2 C4.67 3.98 4.34 5.96 4 8 C3.67 8 3.34 8 3 8 C3 5.69 3 3.38 3 1 C2.01 0.67 1.02 0.34 0 0 Z " fill="#072C5E" transform="translate(465,120)"/>
<path d="M0 0 C1.890625 0.24609375 1.890625 0.24609375 4 1 C5.046875 2.84765625 5.046875 2.84765625 5.75 5.0625 C5.99234375 5.79597656 6.2346875 6.52945313 6.484375 7.28515625 C6.65453125 7.85105469 6.8246875 8.41695312 7 9 C4.60510457 8.25675659 3.29222384 7.52942646 2.06640625 5.30859375 C1.32780077 3.55926499 0.65950315 1.78065851 0 0 Z " fill="#07386D" transform="translate(343,79)"/>
<path d="M0 0 C3.96 0 7.92 0 12 0 C12 0.33 12 0.66 12 1 C9.36 1 6.72 1 4 1 C3.67 2.32 3.34 3.64 3 5 C1.68 4.34 0.36 3.68 -1 3 C-0.67 2.01 -0.34 1.02 0 0 Z " fill="#04315D" transform="translate(595,50)"/>
<path d="M0 0 C0 2.97 0 5.94 0 9 C-1.32 8.67 -2.64 8.34 -4 8 C-4 5.69 -4 3.38 -4 1 C-1 0 -1 0 0 0 Z " fill="#052E5C" transform="translate(540,158)"/>
<path d="M0 0 C-2.36797991 2.61724095 -4.89600354 4.32861729 -8 6 C-8.66 6 -9.32 6 -10 6 C-7.82304683 0.97626191 -5.41372848 -0.29263397 0 0 Z " fill="#063E77" transform="translate(107,119)"/>
<path d="M0 0 C1.32 0 2.64 0 4 0 C4 1.98 4 3.96 4 6 C2.68 6 1.36 6 0 6 C0 4.02 0 2.04 0 0 Z " fill="#000102" transform="translate(354,164)"/>
<path d="M0 0 C3.625 0.375 3.625 0.375 7 1 C7 1.33 7 1.66 7 2 C5.2984375 2.4021875 5.2984375 2.4021875 3.5625 2.8125 C2.386875 3.204375 1.21125 3.59625 0 4 C-0.33 4.99 -0.66 5.98 -1 7 C-1.66 7 -2.32 7 -3 7 C-2.25 2.25 -2.25 2.25 0 0 Z " fill="#062858" transform="translate(351,162)"/>
<path d="M0 0 C0 2.64 0 5.28 0 8 C-1.32 7.67 -2.64 7.34 -4 7 C-4 5.02 -4 3.04 -4 1 C-1 0 -1 0 0 0 Z " fill="#023164" transform="translate(334,159)"/>
<path d="M0 0 C2.31 0 4.62 0 7 0 C7 4.26826873 6.62386487 4.93882432 4 8 C4 6.02 4 4.04 4 2 C2.68 2 1.36 2 0 2 C0 1.34 0 0.68 0 0 Z " fill="#06254B" transform="translate(390,146)"/>
<path d="M0 0 C4.81449408 0.48144941 7.60171741 0.8008587 12 3 C8.04 3 4.08 3 0 3 C0 2.01 0 1.02 0 0 Z " fill="#08397E" transform="translate(537,134)"/>
<path d="M0 0 C1.98 0 3.96 0 6 0 C6 1.32 6 2.64 6 4 C4.02 4 2.04 4 0 4 C0 2.68 0 1.36 0 0 Z " fill="#000000" transform="translate(492,130)"/>
<path d="M0 0 C2.6855594 2.6855594 3.06049974 5.37621328 4 9 C3.01 9 2.02 9 1 9 C-0.61949011 6.42786866 -1.04408751 5.32330841 -0.625 2.25 C-0.41875 1.5075 -0.2125 0.765 0 0 Z " fill="#083A6A" transform="translate(442,44)"/>
<path d="M0 0 C1.2065625 0.0309375 1.2065625 0.0309375 2.4375 0.0625 C3.0975 1.7125 3.7575 3.3625 4.4375 5.0625 C1.08154172 4.46322174 -0.94051226 3.21627564 -3.5625 1.0625 C-2.5625 0.0625 -2.5625 0.0625 0 0 Z " fill="#0A3764" transform="translate(435.5625,33.9375)"/>
<path d="M0 0 C2.64 0 5.28 0 8 0 C7.625 1.9375 7.625 1.9375 7 4 C6.01 4.495 6.01 4.495 5 5 C5 4.01 5 3.02 5 2 C3.02 2 1.04 2 -1 2 C-0.67 1.34 -0.34 0.68 0 0 Z " fill="#073778" transform="translate(440,153)"/>
<path d="M0 0 C0.33 0 0.66 0 1 0 C1 3.63 1 7.26 1 11 C0.01 11.495 0.01 11.495 -1 12 C-2.36884358 7.48281619 -1.47075246 4.41225737 0 0 Z " fill="#073A79" transform="translate(521,70)"/>
<path d="M0 0 C0.66 0 1.32 0 2 0 C2 2.31 2 4.62 2 7 C2.99 6.67 3.98 6.34 5 6 C4.67 6.99 4.34 7.98 4 9 C2.68 8.67 1.36 8.34 0 8 C0 5.36 0 2.72 0 0 Z " fill="#0D3766" transform="translate(558,53)"/>
<path d="M0 0 C3.3 0 6.6 0 10 0 C9.01 0.495 9.01 0.495 8 1 C8 1.66 8 2.32 8 3 C6.02 3 4.04 3 2 3 C2 2.34 2 1.68 2 1 C1.34 0.67 0.68 0.34 0 0 Z " fill="#0A395E" transform="translate(246,182)"/>
<path d="M0 0 C0.66 0 1.32 0 2 0 C2 0.66 2 1.32 2 2 C2.66 2 3.32 2 4 2 C4 2.66 4 3.32 4 4 C0.79984144 5.06671952 -0.88544294 4.94845472 -4.1875 4.5625 C-5.08855469 4.46066406 -5.98960938 4.35882813 -6.91796875 4.25390625 C-7.60503906 4.17011719 -8.29210937 4.08632812 -9 4 C-9 3.67 -9 3.34 -9 3 C-6.03 3 -3.06 3 0 3 C0 2.01 0 1.02 0 0 Z " fill="#04224B" transform="translate(12,166)"/>
<path d="M0 0 C1.9375 0.8125 1.9375 0.8125 4 2 C4.33 2.99 4.66 3.98 5 5 C4.01 5.33 3.02 5.66 2 6 C1.01 5.34 0.02 4.68 -1 4 C-0.67 2.68 -0.34 1.36 0 0 Z " fill="#06386E" transform="translate(486,167)"/>
<path d="M0 0 C1.32 0 2.64 0 4 0 C4 1.65 4 3.3 4 5 C2.35 4.67 0.7 4.34 -1 4 C-0.67 2.68 -0.34 1.36 0 0 Z " fill="#06386E" transform="translate(404,146)"/>
<path d="M0 0 C0 2.64 0 5.28 0 8 C-0.99 8 -1.98 8 -3 8 C-3 5.69 -3 3.38 -3 1 C-1 0 -1 0 0 0 Z " fill="#07396D" transform="translate(242,188)"/>
<path d="M0 0 C1.32 0.33 2.64 0.66 4 1 C4 3.31 4 5.62 4 8 C3.67 7.34 3.34 6.68 3 6 C2.01 6 1.02 6 0 6 C0 4.02 0 2.04 0 0 Z " fill="#063C79" transform="translate(359,164)"/>
<path d="M0 0 C1.32 0 2.64 0 4 0 C4 1.32 4 2.64 4 4 C2.02 4 0.04 4 -2 4 C-1.34 2.68 -0.68 1.36 0 0 Z " fill="#010307" transform="translate(356,122)"/>
<path d="M0 0 C1.65 0 3.3 0 5 0 C4.67 1.98 4.34 3.96 4 6 C3.01 5.67 2.02 5.34 1 5 C0.67 3.35 0.34 1.7 0 0 Z " fill="#04255A" transform="translate(612,113)"/>
<path d="M0 0 C1 4 1 4 -0.9375 7.25 C-1.618125 8.1575 -2.29875 9.065 -3 10 C-3.66 9.01 -4.32 8.02 -5 7 C-3.35 4.69 -1.7 2.38 0 0 Z " fill="#09356A" transform="translate(482,64)"/>
<path d="M0 0 C0.96706319 3.00864103 1.27677226 5.05360248 0 8 C-2.0625 9.25 -2.0625 9.25 -4 10 C-2.8905928 6.51329166 -1.73662334 3.22515763 0 0 Z " fill="#07386B" transform="translate(163,4)"/>
<path d="M0 0 C0.66 0.33 1.32 0.66 2 1 C1.979375 1.928125 1.95875 2.85625 1.9375 3.8125 C1.84230396 7.02286011 1.84230396 7.02286011 3 10 C2.01 10 1.02 10 0 10 C-1.6415049 6.7169902 -0.51888624 3.57454967 0 0 Z " fill="#053972" transform="translate(544,161)"/>
<path d="M0 0 C0 1.32 0 2.64 0 4 C-0.99 4.33 -1.98 4.66 -3 5 C-3 4.34 -3 3.68 -3 3 C-4.98 3 -6.96 3 -9 3 C-9 2.67 -9 2.34 -9 2 C-3.375 0 -3.375 0 0 0 Z " fill="#0C2856" transform="translate(366,132)"/>
<path d="M0 0 C0.66 0 1.32 0 2 0 C2 0.66 2 1.32 2 2 C4.97 2.495 4.97 2.495 8 3 C6.3125 4.125 6.3125 4.125 4 5 C1.25 4.125 1.25 4.125 -1 3 C-0.67 2.01 -0.34 1.02 0 0 Z " fill="#053C72" transform="translate(451,86)"/>
<path d="M0 0 C2.64 0 5.28 0 8 0 C6.71034824 1.37562854 5.37310707 2.70766393 4 4 C3.34 4 2.68 4 2 4 C1.34 2.68 0.68 1.36 0 0 Z " fill="#0E375F" transform="translate(144,158)"/>
<path d="M0 0 C-0.33 0.99 -0.66 1.98 -1 3 C-3.3125 3.625 -3.3125 3.625 -6 4 C-6.99 3.34 -7.98 2.68 -9 2 C-3.375 0 -3.375 0 0 0 Z " fill="#0B3563" transform="translate(48,128)"/>
<path d="M0 0 C4.95 0.99 4.95 0.99 10 2 C10 2.33 10 2.66 10 3 C6.7 3.33 3.4 3.66 0 4 C0 2.68 0 1.36 0 0 Z " fill="#0A3068" transform="translate(563,119)"/>
<path d="M0 0 C0 0.33 0 0.66 0 1 C-0.78375 1.12375 -1.5675 1.2475 -2.375 1.375 C-5.14057822 1.79117993 -5.14057822 1.79117993 -7 4 C-9.125 3.625 -9.125 3.625 -11 3 C-8.21756596 -1.17365106 -4.53441502 -0.22300402 0 0 Z " fill="#092C5E" transform="translate(459,118)"/>
<path d="M0 0 C0.928125 0.0825 1.85625 0.165 2.8125 0.25 C1.8125 2.25 1.8125 2.25 -0.03515625 2.8828125 C-0.76605469 3.04523438 -1.49695313 3.20765625 -2.25 3.375 C-3.35021484 3.62636719 -3.35021484 3.62636719 -4.47265625 3.8828125 C-5.03855469 4.00398437 -5.60445313 4.12515625 -6.1875 4.25 C-4.36434338 1.00883268 -3.82500054 0.30000004 0 0 Z " fill="#0D3573" transform="translate(355.1875,152.75)"/>
<path d="M0 0 C0.66 0 1.32 0 2 0 C2 2.64 2 5.28 2 8 C1.01 8.495 1.01 8.495 0 9 C-0.87890625 2.84765625 -0.87890625 2.84765625 -1 1 C-0.67 0.67 -0.34 0.34 0 0 Z " fill="#053E78" transform="translate(220,144)"/>
<path d="M0 0 C0.99 0.99 1.98 1.98 3 3 C2.34 4.98 1.68 6.96 1 9 C0.66666667 7.66666667 0.33333333 6.33333333 0 5 C-0.20625 4.278125 -0.4125 3.55625 -0.625 2.8125 C-0.74875 2.214375 -0.8725 1.61625 -1 1 C-0.67 0.67 -0.34 0.34 0 0 Z " fill="#0B3D6B" transform="translate(588,56)"/>
<path d="M0 0 C2.6855594 2.6855594 3.06049974 5.37621328 4 9 C3.01 8.67 2.02 8.34 1 8 C-0.35439668 5.29120665 -0.06501451 2.99066732 0 0 Z " fill="#073A69" transform="translate(345,53)"/>
<path d="M0 0 C1.65 0 3.3 0 5 0 C5.33 1.32 5.66 2.64 6 4 C3.69 3.34 1.38 2.68 -1 2 C-0.67 1.34 -0.34 0.68 0 0 Z " fill="#0A3964" transform="translate(333,34)"/>
<path d="M0 0 C1.32 0 2.64 0 4 0 C3.67 1.65 3.34 3.3 3 5 C2.01 5 1.02 5 0 5 C0 3.35 0 1.7 0 0 Z " fill="#063B75" transform="translate(341,166)"/>
<path d="M0 0 C0.99 0.33 1.98 0.66 3 1 C3 1.66 3 2.32 3 3 C2.01 3.33 1.02 3.66 0 4 C-0.66 4.66 -1.32 5.32 -2 6 C-2.66 5.34 -3.32 4.68 -4 4 C-3.01 3.67 -2.02 3.34 -1 3 C-0.67 2.01 -0.34 1.02 0 0 Z " fill="#0B3469" transform="translate(529,152)"/>
<path d="M0 0 C0.66 0.66 1.32 1.32 2 2 C0.02 4.97 0.02 4.97 -2 8 C-2.66 7.67 -3.32 7.34 -4 7 C-2.79618552 4.50638429 -1.54571278 2.31856917 0 0 Z " fill="#063773" transform="translate(495,62)"/>
</svg>
