<?xml version="1.0" encoding="UTF-8"?>
<svg version="1.1" xmlns="http://www.w3.org/2000/svg" width="3000" height="697">
<path d="M0 0 C2.2195231 0.00028282 4.43904629 0.00012229 6.65856934 -0.0004425 C12.62213842 -0.00072677 18.58568696 0.00510954 24.54925132 0.01213145 C30.80454638 0.01842717 37.05984203 0.01897367 43.31513977 0.02015686 C53.79424382 0.02290139 64.27334092 0.02912686 74.75244141 0.03808594 C85.53564416 0.04729529 96.31884488 0.05435879 107.10205078 0.05859375 C107.76913304 0.05885647 108.4362153 0.0591192 109.12351217 0.05938988 C112.47078614 0.06069512 115.81806012 0.06195878 119.16533411 0.06320179 C146.83980148 0.07362492 174.51426056 0.09118876 202.1887207 0.11352539 C201.24251635 1.22751502 200.29486024 2.34027164 199.34660339 3.45251465 C198.81903537 4.07231453 198.29146734 4.69211441 197.74791241 5.33069611 C195.67099776 7.70550623 193.44941763 9.89489954 191.17700195 12.08227539 C177.75091384 25.15237767 166.43984877 37.85414586 157.3215332 54.35571289 C154.91422278 58.66679888 152.27715163 62.82419957 149.6262207 66.98852539 C149.1213916 67.78202393 148.6165625 68.57552246 148.09643555 69.39306641 C147.02513624 71.07651308 145.95367931 72.75985946 144.88208008 74.44311523 C141.85656018 79.21432871 138.86753782 84.00832237 135.8762207 88.80102539 C135.2486084 89.80593018 134.62099609 90.81083496 133.97436523 91.84619141 C132.04539869 94.93504176 130.11697684 98.02423151 128.1887207 101.11352539 C120.73200228 113.06006822 113.27009223 125.00262175 105.73999023 136.90307617 C99.17937945 147.27926318 92.68892135 157.6994369 86.1887207 168.11352539 C78.73200228 180.06006822 71.27009223 192.00262175 63.73999023 203.90307617 C57.17937945 214.27926318 50.68892135 224.6994369 44.1887207 235.11352539 C36.73200228 247.06006822 29.27009223 259.00262175 21.73999023 270.90307617 C15.17937945 281.27926318 8.68892135 291.6994369 2.1887207 302.11352539 C-14.16343767 328.31161271 -14.16343767 328.31161271 -20.4621582 338.23046875 C-22.95203274 342.15300586 -25.41455087 346.08893719 -27.8347168 350.05493164 C-42.33235788 373.69476797 -59.93572833 390.54351901 -87.1237793 398.48852539 C-87.89133545 398.71499756 -88.6588916 398.94146973 -89.44970703 399.17480469 C-106.52505591 403.77327684 -123.70621781 404.54720329 -141.28686523 404.45410156 C-143.56564828 404.45325302 -145.84443215 404.45373486 -148.12321472 404.45542908 C-154.24380988 404.45628158 -160.36422474 404.43877784 -166.4847784 404.4177072 C-172.90555315 404.39881481 -179.32633309 404.39718014 -185.74713135 404.39363098 C-196.50276352 404.38539858 -207.25831778 404.36672466 -218.01391602 404.33984375 C-229.08129556 404.31221277 -240.14865727 404.29102374 -251.21606445 404.27832031 C-251.90080596 404.27753214 -252.58554747 404.27674397 -253.29103872 404.27593192 C-256.72694638 404.27201618 -260.16285417 404.2682252 -263.59876204 404.26449621 C-292.00297928 404.23350831 -320.40712576 404.18054172 -348.8112793 404.11352539 C-347.4349734 400.57869954 -345.91952709 397.46787483 -343.8972168 394.25415039 C-343.30932373 393.31619629 -342.72143066 392.37824219 -342.11572266 391.41186523 C-341.47900635 390.40591309 -340.84229004 389.39996094 -340.1862793 388.36352539 C-339.52184814 387.3072998 -338.85741699 386.25107422 -338.17285156 385.1628418 C-332.0712356 375.48116324 -325.90226558 365.84242397 -319.72143555 356.21118164 C-314.30206327 347.76604887 -308.92109651 339.29654836 -303.5378418 330.82836914 C-301.77601502 328.0580759 -300.01262568 325.28878314 -298.2487793 322.51977539 C-292.75464213 313.89375457 -287.26770118 305.26346268 -281.8112793 296.61352539 C-275.76546147 287.02923258 -269.68147996 277.46941933 -263.59350586 267.91186523 C-260.66473118 263.31328778 -257.73807582 258.71336201 -254.8112793 254.11352539 C-251.28891836 248.57768281 -247.7660755 243.04215002 -244.2409668 237.50805664 C-238.74968616 228.88578265 -233.26519651 220.25949208 -227.8112793 211.61352539 C-221.76546147 202.02923258 -215.68147996 192.46941933 -209.59350586 182.91186523 C-206.66473118 178.31328778 -203.73807582 173.71336201 -200.8112793 169.11352539 C-197.28891836 163.57768281 -193.7660755 158.04215002 -190.2409668 152.50805664 C-184.74968616 143.88578265 -179.26519651 135.25949208 -173.8112793 126.61352539 C-166.58260603 115.15407967 -159.2997141 103.72923084 -152.02026367 92.30200195 C-148.50733342 86.78689342 -144.99617828 81.27066402 -141.48852539 75.75219727 C-140.38509368 74.01625986 -139.28126355 72.28057563 -138.17700195 70.54516602 C-136.61557437 68.09006116 -135.05665475 65.63338549 -133.4987793 63.17602539 C-133.00361816 62.39694824 -132.50845703 61.61787109 -131.99829102 60.81518555 C-129.76012112 57.27598092 -127.56432385 53.72642321 -125.48706055 50.09008789 C-113.53016013 29.18544919 -96.85768385 13.04009053 -73.2487793 6.30102539 C-49.39296244 -0.02142493 -24.50159601 -0.04436571 0 0 Z " fill="#006BB8" transform="translate(348.811279296875,292.886474609375)"/>
<path d="M0 0 C2.06174213 0.00028284 4.12348437 0.00012225 6.18522644 -0.0004425 C11.72324914 -0.00072669 17.26124969 0.00510828 22.79926729 0.01213145 C28.60880194 0.01842855 34.41833722 0.01897378 40.22787476 0.02015686 C51.2026884 0.02325157 62.17749196 0.03143964 73.15230119 0.04150635 C85.65792068 0.05272557 98.16354067 0.05819251 110.66916394 0.06320179 C136.36978023 0.07362401 162.07038759 0.09118706 187.77099609 0.11352539 C186.97540002 1.55434993 186.17873602 2.99458482 185.38162231 4.43457031 C184.71633105 5.63771126 184.71633105 5.63771126 184.03759956 6.86515808 C182.5804395 9.45178534 181.02082509 11.94666428 179.38818359 14.42602539 C178.78433838 15.34689941 178.18049316 16.26777344 177.55834961 17.21655273 C176.92727295 18.17255371 176.29619629 19.12855469 175.64599609 20.11352539 C174.29812025 22.16806885 172.95046528 24.22275721 171.60302734 26.27758789 C170.94641113 27.27693359 170.28979492 28.2762793 169.61328125 29.3059082 C167.17310242 33.02470711 164.74896066 36.75363879 162.33349609 40.48852539 C161.90713867 41.14747803 161.48078125 41.80643066 161.04150391 42.48535156 C156.97181371 48.78534495 152.93532308 55.1065407 148.89599609 61.42602539 C142.39930017 71.590038 135.8472932 81.7164234 129.26171875 91.82299805 C125.52526223 97.56414366 121.81067758 103.31948381 118.09179688 109.07202148 C116.7975407 111.07249656 115.50138293 113.07172536 114.20458984 115.07055664 C108.77766084 123.43936654 103.390346 131.83264905 98.02099609 140.23852539 C92.20969358 149.33435767 86.34835832 158.39530471 80.4296875 167.42163086 C77.10810216 172.49629943 73.82594975 177.59229636 70.59130859 182.72290039 C69.89070313 183.83084961 69.19009766 184.93879883 68.46826172 186.08032227 C67.13523692 188.19230594 65.80793314 190.30791718 64.48779297 192.42797852 C48.59631521 217.57145798 26.56782615 232.17525644 -2.22900391 239.11352539 C-9.3843304 240.66255494 -16.19789175 241.40210977 -23.51127625 241.35403442 C-24.48439328 241.35574327 -25.45751031 241.35745212 -26.46011573 241.35921276 C-29.68743645 241.36248007 -32.91454447 241.35154979 -36.1418457 241.34057617 C-38.46856176 241.34001146 -40.79527817 241.34032979 -43.12199402 241.34146118 C-49.41456187 241.34203335 -55.70705297 241.33030093 -61.99960303 241.31631327 C-68.58459566 241.30378334 -75.16959018 241.30263362 -81.7545929 241.30026245 C-92.79938075 241.29509205 -103.84414182 241.28227934 -114.88891602 241.2644043 C-126.26033387 241.24601985 -137.63174409 241.23187593 -149.00317383 241.22338867 C-149.70521483 241.22286322 -150.40725582 241.22233778 -151.13057079 241.22179641 C-154.65283458 241.21918616 -158.17509842 241.21665878 -161.6973623 241.2141726 C-190.87459438 241.19347088 -220.05179877 241.15812273 -249.22900391 241.11352539 C-247.88476783 237.66191165 -246.43155647 234.63554706 -244.42822266 231.51586914 C-243.87021973 230.642771 -243.3122168 229.76967285 -242.73730469 228.87011719 C-242.13644043 227.93981689 -241.53557617 227.0095166 -240.91650391 226.05102539 C-239.97653564 224.58499878 -239.97653564 224.58499878 -239.01757812 223.08935547 C-234.46312907 215.99644556 -229.8712076 208.92777568 -225.2668457 201.8671875 C-220.88325478 195.13988145 -216.55121344 188.380398 -212.22900391 181.61352539 C-206.91081488 173.28800457 -201.55841406 164.98656091 -196.16259766 156.71118164 C-191.81509795 150.03504573 -187.51780318 143.3274901 -183.22900391 136.61352539 C-177.91077733 128.28802838 -172.55841427 119.98656124 -167.16259766 111.71118164 C-162.81509707 105.03504437 -158.51794393 98.32740136 -154.22900391 91.61352539 C-147.75970098 81.49027862 -141.26050021 71.38782969 -134.68115234 61.33569336 C-133.28805878 59.20389483 -131.90284785 57.06713475 -130.51806641 54.92993164 C-113.54807626 28.89404689 -93.90435542 10.92758599 -63.06201172 4.37670898 C-42.27527819 0.25741377 -21.11728562 -0.04119312 0 0 Z " fill="#ACC429" transform="translate(730.22900390625,292.886474609375)"/>
<path d="M0 0 C28.71289602 -0.04684798 57.42578626 -0.08205132 86.13871288 -0.10362434 C88.79991343 -0.1056772 91.46111396 -0.10774648 94.12231445 -0.10986328 C94.78371303 -0.1103879 95.4451116 -0.11091252 96.12655256 -0.11145304 C106.13101031 -0.1195841 116.13544584 -0.13365128 126.13989258 -0.15087891 C137.76985943 -0.17089602 149.39980901 -0.18373608 161.02979261 -0.18817699 C167.18020951 -0.19077035 173.33057703 -0.19680865 179.48097801 -0.21146011 C185.28640908 -0.22517592 191.09177107 -0.22919477 196.8972168 -0.22621536 C199.01213775 -0.22675933 201.12706136 -0.23065248 203.24196815 -0.23841095 C237.41804683 -0.35748719 272.30233763 1.92213283 298 27 C298.86625 27.825 299.7325 28.65 300.625 29.5 C307.35273517 36.58182649 313.16071728 43.81160709 318.5 52 C319.18360596 53.03672852 319.86721191 54.07345703 320.5715332 55.14160156 C326.86761072 64.72068006 333.04162056 74.37841856 339.19921875 84.046875 C342.6012277 89.38543843 346.04112935 94.69815201 349.5 100 C355.0700827 108.54212403 360.5688855 117.1287107 366.05859375 125.72265625 C370.17805883 132.1667331 374.32263671 138.59332064 378.5 145 C384.06984496 153.54228092 389.56888375 162.12870796 395.05859375 170.72265625 C399.17805926 177.16673378 403.3226967 183.59328101 407.5 190 C414.44262089 200.64964433 421.29703623 211.3556005 428.13183594 222.07470703 C429.42797212 224.10428148 430.72840749 226.13111427 432.03222656 228.15576172 C432.67385742 229.15494629 433.31548828 230.15413086 433.9765625 231.18359375 C434.55744629 232.0852124 435.13833008 232.98683105 435.73681641 233.91577148 C437 236 437 236 437 237 C408.42199593 237.06863366 379.84400169 237.12162962 351.26593123 237.15319599 C347.8818772 237.15694751 344.49782332 237.16083054 341.11376953 237.16479492 C340.10333451 237.16597532 340.10333451 237.16597532 339.07248667 237.16717956 C328.20604163 237.18018643 317.33964485 237.20381385 306.47322831 237.23145839 C295.29957565 237.25964466 284.12593932 237.27597987 272.95225072 237.28226548 C266.68614433 237.28615775 260.4201469 237.29522958 254.15407562 237.31719017 C248.2411041 237.3377429 242.32828515 237.3437963 236.4152813 237.33932304 C234.25962173 237.34013992 232.1039564 237.34599249 229.94832802 237.35761642 C212.861408 237.44513796 195.56414938 236.6778199 179.3125 230.875 C178.02315552 230.42821899 178.02315552 230.42821899 176.70776367 229.97241211 C163.89809401 225.35809363 152.1458522 219.1440213 142 210 C141.26813477 209.34950684 140.53626953 208.69901367 139.78222656 208.02880859 C131.77552219 200.49042089 126.13958552 191.74067079 120.1875 182.5625 C118.47173958 179.94713832 116.7516248 177.33467253 115.03144836 174.72221375 C113.83613525 172.90615155 112.64221292 171.08917326 111.44963074 169.27131653 C105.5494171 160.28370963 99.52770586 151.3802493 93.49551392 142.48092651 C82.43453391 126.15615597 71.52154493 109.73946069 60.69839478 93.25622559 C51.52472457 79.28917472 42.23889951 65.40266672 32.875 51.5625 C24.84479299 39.6880663 16.81892209 27.81185046 8.93829346 15.83737183 C8.11313691 14.58401408 7.2864677 13.33165072 6.45819092 12.08035278 C5.3462866 10.39914632 4.24127614 8.71338627 3.13671875 7.02734375 C2.52530029 6.09656006 1.91388184 5.16577637 1.28393555 4.20678711 C0 2 0 2 0 0 Z " fill="#ED1A2E" transform="translate(481,0)"/>
<path d="M0 0 C19.14 0 38.28 0 58 0 C64.24873014 20.0842894 70.44062772 40.18480611 76.58398438 60.30151367 C77.76260871 64.1609087 78.94250998 68.01991202 80.12272644 71.87882042 C86.14355482 91.56755372 92.10772777 111.27239552 98 131 C104.00847598 115.11112024 109.86742194 99.17266455 115.62857056 83.19256592 C117.89692778 76.90171022 120.17038257 70.61269996 122.4453125 64.32421875 C122.6753705 63.68821495 122.9054285 63.05221115 123.14245796 62.39693451 C130.67889229 41.56758572 138.34522836 20.78612787 146 0 C165.47 0 184.94 0 205 0 C208.5699707 29.97954786 212.1378498 59.95934233 215.70110357 89.93968914 C216.121677 93.47826871 216.54227593 97.01684525 216.96289062 100.55541992 C217.04662784 101.25989346 217.13036505 101.96436699 217.21663976 102.69018821 C218.57297861 114.10042409 219.93138384 125.51041307 221.29055142 136.92031231 C222.68489271 148.62587781 224.07701643 160.33170551 225.46707726 172.03778011 C226.24801734 178.61374144 227.03005824 185.18956892 227.81451416 191.76511192 C228.55245391 197.95101688 229.28766391 204.13724009 230.02075958 210.32372093 C230.29064147 212.59706133 230.5615301 214.87028247 230.83348846 217.1433754 C231.20402711 220.24168874 231.57097443 223.34040689 231.93701172 226.43925476 C232.04595827 227.34295435 232.15490482 228.24665394 232.26715279 229.17773837 C232.4134554 230.42579327 232.4134554 230.42579327 232.56271362 231.69906139 C232.64777098 232.41407478 232.73282833 233.12908816 232.82046318 233.86576861 C233.01987192 236.23622605 233 238.62116997 233 241 C215.18 241 197.36 241 179 241 C175.55353858 216.87477006 175.55353858 216.87477006 174.46606445 207.79370117 C174.33882996 206.74700256 174.21159546 205.70030396 174.08050537 204.62188721 C173.67266058 201.26249864 173.26792098 197.90274472 172.86328125 194.54296875 C172.576301 192.17399266 172.28912174 189.80504066 172.00175476 187.43611145 C171.25509701 181.27661481 170.51109721 175.1168001 169.7677002 168.95690918 C169.00497985 162.64099568 168.23967758 156.32539507 167.47460938 150.00976562 C165.9805829 137.6734775 164.4893715 125.33685093 163 113 C160.19883366 115.80116634 159.21933352 119.18992259 157.83203125 122.828125 C157.36522697 124.03274635 157.36522697 124.03274635 156.88899231 125.26170349 C156.21390871 127.00547611 155.54123295 128.75018235 154.8706665 130.49569702 C153.43246208 134.23920119 151.98280775 137.97823693 150.53381348 141.71757507 C149.78541833 143.64924059 149.0376226 145.58113845 148.29040527 147.51325989 C144.77915617 156.58881408 141.20871601 165.64037082 137.625 174.6875 C133.42132755 185.30482035 129.24113491 195.93086171 125.09375 206.5703125 C124.47287003 208.16196983 124.47287003 208.16196983 123.83944702 209.78578186 C121.79815977 215.01896678 119.75947959 220.25314046 117.72509766 225.48901367 C116.9861191 227.38464828 116.24702973 229.2802397 115.5078125 231.17578125 C114.99643738 232.49625961 114.99643738 232.49625961 114.47473145 233.84341431 C114.00601624 235.04301285 114.00601624 235.04301285 113.52783203 236.2668457 C113.25552765 236.96719437 112.98322327 237.66754303 112.70266724 238.38911438 C112 240 112 240 111 241 C109.36527118 241.08700342 107.72685945 241.10701063 106.08984375 241.09765625 C105.10048828 241.09443359 104.11113281 241.09121094 103.09179688 241.08789062 C102.05087891 241.07951172 101.00996094 241.07113281 99.9375 241.0625 C98.89271484 241.05798828 97.84792969 241.05347656 96.77148438 241.04882812 C94.1809334 241.03699913 91.59049441 241.02051689 89 241 C77.59292274 211.85768232 66.42823478 182.62387573 55.28729248 153.37896729 C54.0239755 150.06293243 52.76034112 146.74701873 51.49658203 143.43115234 C46.99567085 131.6215487 42.49653867 119.81126919 38 108 C36.34973056 109.65026944 36.49581137 111.72786604 36.16516113 113.99740601 C35.92546349 115.62110359 35.92546349 115.62110359 35.68092346 117.27760315 C35.50842575 118.47554001 35.33592804 119.67347687 35.15820312 120.90771484 C34.97434555 122.16125259 34.79048798 123.41479034 34.60105896 124.70631409 C34.20032554 127.43863212 33.80222282 130.17131625 33.40611267 132.90430832 C32.77996324 137.22407955 32.14780816 141.54295846 31.51477051 145.86172485 C30.28584326 154.25169125 29.06320434 162.64256835 27.8411026 171.03353119 C26.28616171 181.70728625 24.7280495 192.38057644 23.16504431 203.05315363 C22.53627179 207.34795132 21.91038091 211.64315632 21.28673553 215.93870139 C20.99180891 217.96737467 20.69564961 219.99586338 20.39894104 222.02427673 C20.03688671 224.49965823 19.67681998 226.97533154 19.31907654 229.45133972 C19.15927811 230.53944443 18.99947968 231.62754913 18.83483887 232.74862671 C18.69694695 233.69585287 18.55905502 234.64307903 18.41698456 235.61900902 C18 238 18 238 17 241 C-0.82 241 -18.64 241 -37 241 C-33.5296898 214.39428845 -33.5296898 214.39428845 -31.54362488 201.45291138 C-31.39803823 200.50224415 -31.25245159 199.55157692 -31.10245323 198.57210159 C-30.95182238 197.58884274 -30.80119152 196.60558388 -30.64599609 195.5925293 C-30.32185473 193.46436085 -29.99792222 191.33616058 -29.67417908 189.20793152 C-28.80683155 183.51063372 -27.93636804 177.81381643 -27.0650897 172.1171186 C-26.33581004 167.34696391 -25.60807524 162.57657403 -24.88031733 157.80618697 C-23.16565518 146.56697554 -21.44841234 135.32816056 -19.72949219 124.08959961 C-17.95641198 112.49663531 -16.18768998 100.90301187 -14.42105615 89.30906361 C-12.89987783 79.32695984 -11.3760877 69.34525721 -9.85016501 59.36387759 C-8.94044811 53.41307129 -8.0317237 47.46211775 -7.12549973 41.51077843 C-6.27651352 35.93611355 -5.4242771 30.36195538 -4.56947517 24.7881794 C-4.25586902 22.73962109 -3.94343069 20.69088363 -3.63221931 18.64196014 C-3.20889271 15.85612941 -2.78143425 13.07096422 -2.35287476 10.28593445 C-2.22943266 9.46700405 -2.10599057 8.64807366 -1.97880781 7.80432719 C-1.11414455 2.2282891 -1.11414455 2.2282891 0 0 Z " fill="#072212" transform="translate(2156,293)"/>
<path d="M0 0 C17.82 0 35.64 0 54 0 C67.08010563 17.44014085 67.08010563 17.44014085 73.3828125 26.3203125 C76.33569068 30.48067046 79.32327643 34.61571274 82.3125 38.75 C82.860271 39.50780762 83.40804199 40.26561523 83.97241211 41.04638672 C85.09038993 42.59284925 86.20847322 44.13923554 87.32666016 45.68554688 C90.05263139 49.45593019 92.77621534 53.22803694 95.5 57 C96.58332144 58.50000859 97.66665479 60.00000858 98.75 61.5 C115 84 115 84 131.25 106.5 C131.7869751 107.2434668 132.3239502 107.98693359 132.87719727 108.75292969 C133.9533492 110.24306093 135.02935985 111.73329422 136.10522461 113.22363281 C138.92224409 117.12550175 141.74217655 121.02522103 144.56640625 124.921875 C145.44425781 126.13423828 145.44425781 126.13423828 146.33984375 127.37109375 C147.45481628 128.91081772 148.57064563 130.44992175 149.6875 131.98828125 C150.19410156 132.68824219 150.70070313 133.38820313 151.22265625 134.109375 C151.66359619 134.71749023 152.10453613 135.32560547 152.55883789 135.95214844 C154.422478 138.60032957 156.2037631 141.30564465 158 144 C158.33 96.48 158.66 48.96 159 0 C176.82 0 194.64 0 213 0 C213 78.21 213 156.42 213 237 C193.53 237 174.06 237 154 237 C149.71 231.06 145.42 225.12 141 219 C138.42303319 215.4412747 138.42303319 215.4412747 135.84570312 211.8828125 C130.68600535 204.75513014 125.58067772 197.59206024 120.51928711 190.39428711 C116.88539314 185.23409805 113.20321926 180.11061851 109.5 175 C104.78959343 168.49941517 100.13702392 161.9613612 95.51953125 155.39453125 C91.34901437 149.4726162 87.11042838 143.6016762 82.85986328 137.73706055 C78.71377392 132.00876399 74.62128977 126.24459404 70.57226562 120.44726562 C65.49582196 113.20904712 60.23314416 106.13610567 55 99 C54.67 144.54 54.34 190.08 54 237 C36.18 237 18.36 237 0 237 C0 158.79 0 80.58 0 0 Z " fill="#072212" transform="translate(2535,297)"/>
<path d="M0 0 C133.85758514 0 133.85758514 0 155.68359375 20.5234375 C171.91173153 37.87358817 177.96932599 60.65453347 178.1015625 84.06640625 C177.36334724 99.51619712 173.23137111 112.23041801 162 123 C151.28258874 132.36317315 138.36544909 141.30787348 124 143 C131.13244567 152.4664852 138.39595378 161.78224397 145.97265625 170.89770508 C150.28210335 176.09393154 154.42438933 181.38999121 158.51171875 186.76171875 C161.26413643 190.3654682 164.09774671 193.90240779 166.9375 197.4375 C170.83727613 202.29339044 174.7183124 207.16245138 178.5625 212.0625 C179.00795166 212.63025146 179.45340332 213.19800293 179.91235352 213.78295898 C181.7651199 216.14593171 183.61646242 218.51001638 185.46728516 220.87451172 C186.93580826 222.75023592 188.40539452 224.62512379 189.875 226.5 C190.31529541 227.06340088 190.75559082 227.62680176 191.20922852 228.20727539 C193.35983666 230.95047737 195.54520568 233.64001566 197.8203125 236.28125 C200 239 200 239 200 241 C190.9688479 241.44274653 181.94148887 241.77898513 172.90180683 241.98443127 C168.70233702 242.08311706 164.51034623 242.21650745 160.31518555 242.43334961 C133.29845848 243.79360269 133.29845848 243.79360269 126.26242065 239.2208252 C121.98452342 234.91986636 119.47660188 230.04866728 117.16247559 224.49763489 C115.17143049 220.21977842 112.28962673 216.60919786 109.4375 212.875 C108.35078385 211.38657854 107.26702879 209.89598629 106.1875 208.40234375 C105.65769531 207.67257324 105.12789062 206.94280273 104.58203125 206.19091797 C102.00726581 202.6251857 99.47028278 199.03312482 96.9375 195.4375 C96.44556152 194.73923096 95.95362305 194.04096191 95.44677734 193.3215332 C93.47011102 190.51373163 91.4953433 187.70459723 89.52050781 184.89550781 C82.23338107 174.53404942 74.92266835 164.18761056 67.41064453 153.98730469 C66.47980072 152.6759394 65.59334186 151.33177039 64.75732422 149.95800781 C63.45066962 147.76598455 63.45066962 147.76598455 61 145 C58.69 144.67 56.38 144.34 54 144 C54 176.01 54 208.02 54 241 C36.18 241 18.36 241 0 241 C0 161.47 0 81.94 0 0 Z M54 50 C54 69.8 54 89.6 54 110 C82.63324618 111.1106726 82.63324618 111.1106726 107.3203125 98.92578125 C114.50812773 91.32685481 118.44153213 82.7252967 118.203125 72.17578125 C117.62396113 65.97204517 115.91693944 61.42187374 111.3125 57.125 C102.88399255 50.45629081 93.42844976 49.83437737 83.00390625 49.90234375 C82.26394409 49.90335083 81.52398193 49.90435791 80.76159668 49.90539551 C78.02854842 49.91058103 75.29552246 49.92454185 72.5625 49.9375 C63.3740625 49.9684375 63.3740625 49.9684375 54 50 Z " fill="#072212" transform="translate(1508,293)"/>
<path d="M0 0 C1.09920273 0.00222061 2.19840546 0.00444122 3.33091736 0.00672913 C4.57212845 0.00680466 5.81333954 0.00688019 7.09216309 0.00695801 C8.45682311 0.01206541 9.82148274 0.01728142 11.18614197 0.02259827 C12.57476755 0.02446251 13.96339379 0.02588638 15.35202026 0.02688599 C19.01319686 0.03071065 22.67433402 0.04054048 26.335495 0.05158997 C30.06890835 0.06180519 33.80232805 0.06638384 37.53575134 0.07142639 C44.86584748 0.08216281 52.19591108 0.0992386 59.52598572 0.12025452 C61.85684418 6.19971466 63.95746169 12.32891218 65.97520447 18.51869202 C66.30431824 19.52413055 66.63343201 20.52956909 66.97251892 21.56547546 C68.05486899 24.87474312 69.13434959 28.18493752 70.21348572 31.49525452 C70.59002289 32.64848206 70.96656006 33.80170959 71.35450745 34.98988342 C77.02278151 52.35214822 82.62443022 69.73495251 88.17524719 87.13508606 C94.24042005 106.14701554 100.3752476 125.13588634 106.52598572 144.12025452 C113.96081552 167.06853643 121.36065967 190.02731678 128.69200134 213.00892639 C129.00003189 213.97401627 129.30806244 214.93910614 129.62542725 215.93344116 C130.18694697 217.69317564 130.7479462 219.45307635 131.30825806 221.2131958 C131.68323174 222.38861687 131.68323174 222.38861687 132.06578064 223.58778381 C132.30404572 224.33675934 132.54231079 225.08573486 132.78779602 225.85740662 C133.30133915 227.43162255 133.83338268 228.99987377 134.37965393 230.56303406 C134.65522125 231.35382355 134.93078857 232.14461304 135.21470642 232.95936584 C135.46589737 233.66321915 135.71708832 234.36707245 135.97589111 235.09225464 C136.52598572 237.12025452 136.52598572 237.12025452 136.52598572 241.12025452 C117.38598572 241.12025452 98.24598572 241.12025452 78.52598572 241.12025452 C71.65098572 222.43275452 71.65098572 222.43275452 69.49131775 216.55897522 C68.9222001 215.01297496 68.35303041 213.46699386 67.78379822 211.92103577 C67.491745 211.12612732 67.19969177 210.33121887 66.89878845 209.51222229 C66.61479187 208.74132263 66.33079529 207.97042297 66.03819275 207.17616272 C65.79392548 206.51219986 65.5496582 205.848237 65.29798889 205.16415405 C64.40641363 202.80368413 63.46309239 200.46302121 62.52598572 198.12025452 C38.43598572 197.79025452 14.34598572 197.46025452 -10.47401428 197.12025452 C-11.13401428 200.09025452 -11.79401428 203.06025452 -12.47401428 206.12025452 C-13.43930606 208.99804514 -14.43354243 211.8227988 -15.51307678 214.65541077 C-15.76661926 215.33438416 -16.02016174 216.01335754 -16.28138733 216.71290588 C-17.2140678 219.20530822 -18.15711866 221.69382003 -19.09901428 224.18275452 C-21.20276428 229.77212952 -23.30651428 235.36150452 -25.47401428 241.12025452 C-44.94401428 241.12025452 -64.41401428 241.12025452 -84.47401428 241.12025452 C-79.47401428 226.12025452 -79.47401428 226.12025452 -77.7313385 220.89442444 C-75.01325865 212.74351391 -72.29756503 204.59182413 -69.5884552 196.43792725 C-62.85073449 176.1595161 -56.08743709 155.89152466 -49.15812683 135.6776886 C-43.43000684 118.96625423 -37.77147685 102.23160298 -32.11930847 85.49436951 C-27.57406958 72.03525286 -23.02459813 58.57756484 -18.47401428 45.12025452 C-18.25658569 44.4772213 -18.0391571 43.83418808 -17.81513977 43.17166901 C-15.3819225 35.97597528 -12.94563344 28.78134103 -10.50205994 21.5891571 C-9.86276626 19.70619182 -9.22450688 17.82287503 -8.58732605 15.93919373 C-7.73072041 13.40744688 -6.87050616 10.87695781 -6.00917053 8.34681702 C-5.7624762 7.61510788 -5.51578186 6.88339874 -5.26161194 6.1295166 C-3.21986249 0.15650799 -3.21986249 0.15650799 0 0 Z M25.52598572 81.12025452 C22.5254022 90.09888091 19.52641884 99.07803967 16.52950287 108.05789089 C15.13801101 112.2271378 13.74595916 116.396196 12.35264587 120.56483459 C11.00918276 124.5843945 9.66716664 128.60443477 8.32617188 132.6248188 C7.81314084 134.16205776 7.29957997 135.69911999 6.78549194 137.23600578 C6.06804804 139.38112632 5.35245504 141.52685564 4.63731384 143.67274475 C4.02442505 145.50808022 4.02442505 145.50808022 3.39915466 147.38049316 C2.47537669 149.79979531 2.47537669 149.79979531 2.52598572 151.12025452 C18.03598572 151.12025452 33.54598572 151.12025452 49.52598572 151.12025452 C48.32279338 145.705889 47.21014787 140.79470241 45.49473572 135.60658264 C45.10092712 134.409245 44.70711853 133.21190735 44.30137634 131.97828674 C43.876565 130.70258644 43.45142727 129.42699478 43.02598572 128.15150452 C42.58505711 126.82160594 42.14430495 125.49164885 41.70372009 124.16163635 C40.78558645 121.39387387 39.86395858 118.62730466 38.94004822 115.86146545 C37.75493937 112.31208085 36.58091218 108.75913697 35.40965271 105.20516205 C34.50548836 102.46689605 33.59449962 99.73093795 32.6815033 96.99560547 C32.24533996 95.68541996 31.81157261 94.37443433 31.38023376 93.06265259 C30.77968882 91.23899798 30.16872358 89.41878469 29.55723572 87.59877014 C29.2124115 86.56224304 28.86758728 85.52571594 28.51231384 84.45777893 C27.75931068 81.96599618 27.75931068 81.96599618 25.52598572 81.12025452 Z " fill="#072212" transform="translate(2863.4740142822266,292.87974548339844)"/>
<path d="M0 0 C114.75363464 0 114.75363464 0 128.375 4.125 C129.07850586 4.33745361 129.78201172 4.54990723 130.50683594 4.76879883 C151.85690966 11.5591893 170.26553795 25.2018892 182.2109375 44.23828125 C187.46393197 54.46911333 188.60478576 64.47051627 188.41162109 75.73803711 C188.37509233 77.9319549 188.37060381 80.12416832 188.37109375 82.31835938 C188.2859963 99.53061616 187.05614494 116.77552761 175 130 C174.42636719 130.66515625 173.85273437 131.3303125 173.26171875 132.015625 C167.94901068 137.79475926 161.57526392 141.93098956 154.85058594 145.8894043 C153.61968895 146.62810488 152.41312232 147.40897937 151.23535156 148.22973633 C143.26225369 153.38175175 133.80091849 154.60555932 124.625 156.3125 C123.69867767 156.48942383 122.77235535 156.66634766 121.81796265 156.84863281 C100.34640684 160.86695949 79.85679048 160.58091137 58 160 C58 186.73 58 213.46 58 241 C38.86 241 19.72 241 0 241 C0 161.47 0 81.94 0 0 Z M58 54 C58 73.8 58 93.6 58 114 C90.13371866 115.96524523 90.13371866 115.96524523 119.4921875 104.53515625 C125.14491226 98.82079742 126.26822638 92.37380773 126.5625 84.5 C126.28988629 76.29680549 124.62660719 70.57684243 118.72265625 64.75390625 C109.1243954 56.69373343 101.12864817 53.82685228 88.76171875 53.90234375 C87.58977966 53.90385437 87.58977966 53.90385437 86.39416504 53.90539551 C83.4919283 53.91060447 80.58971259 53.92456567 77.6875 53.9375 C71.190625 53.958125 64.69375 53.97875 58 54 Z " fill="#072212" transform="translate(1084,293)"/>
<path d="M0 0 C50.16 0 100.32 0 152 0 C152 16.5 152 33 152 50 C119.66 50 87.32 50 54 50 C54 63.2 54 76.4 54 90 C85.02 90 116.04 90 148 90 C148 107.82 148 125.64 148 144 C116.98 144 85.96 144 54 144 C54 158.19 54 172.38 54 187 C86.34 187 118.68 187 152 187 C152 204.82 152 222.64 152 241 C101.84 241 51.68 241 0 241 C0 161.47 0 81.94 0 0 Z " fill="#072213" transform="translate(1304,293)"/>
<path d="M0 0 C19.14 0 38.28 0 58 0 C62.49968673 11.24921683 62.49968673 11.24921683 64.38745117 16.859375 C64.5951992 17.4741571 64.80294724 18.08893921 65.01699066 18.72235107 C65.69494858 20.73069122 66.3689661 22.74032939 67.04296875 24.75 C67.52812574 26.18954101 68.01355005 27.62899195 68.4992218 29.06835938 C69.52921441 32.12251888 70.55753256 35.17723464 71.58447266 38.23242188 C73.20970505 43.06737159 74.83881267 47.90100965 76.46875 52.734375 C77.01828096 54.36401336 77.56781099 55.99365203 78.11734009 57.62329102 C78.52450697 58.83071457 78.52450697 58.83071457 78.93989944 60.06253052 C79.76166734 62.49984753 80.5830742 64.93728594 81.40438843 67.37475586 C85.74592388 80.2579208 90.11542517 93.1314188 94.5 106 C99.32469283 120.16601104 104.13203263 134.33779724 108.921875 148.515625 C109.18023132 149.28033993 109.43858765 150.04505486 109.70477295 150.83294296 C112.07606993 157.85210033 114.44683439 164.87143752 116.81713867 171.89093018 C123.36485984 191.28071827 129.92752212 210.66490954 136.59863281 230.01269531 C136.95819061 231.05790848 136.95819061 231.05790848 137.32501221 232.12423706 C137.94458666 233.92489107 138.56595535 235.72492745 139.1875 237.52490234 C140 240 140 240 140 241 C119.21 241 98.42 241 77 241 C74.2775 231.22375 74.2775 231.22375 71.5 221.25 C70.92572266 219.19813477 70.35144531 217.14626953 69.75976562 215.03222656 C69.30818665 213.40180541 68.85698886 211.77127861 68.40625 210.140625 C68.16874023 209.29741699 67.93123047 208.45420898 67.68652344 207.58544922 C67.46319336 206.77382324 67.23986328 205.96219727 67.00976562 205.12597656 C66.81435181 204.42426331 66.61893799 203.72255005 66.41760254 202.99957275 C66 201 66 201 66 197 C41.91 197.33 17.82 197.66 -7 198 C-11.89277244 211.40260442 -11.89277244 211.40260442 -16.78295898 224.80615234 C-17.3955766 226.48278173 -18.00828213 228.15937901 -18.62109375 229.8359375 C-18.93985474 230.71096924 -19.25861572 231.58600098 -19.58703613 232.48754883 C-19.8914563 233.31971924 -20.19587646 234.15188965 -20.50952148 235.00927734 C-20.77377426 235.73319672 -21.03802704 236.45711609 -21.31028748 237.20297241 C-22 239 -22 239 -23 241 C-42.14 241 -61.28 241 -81 241 C-79.65028781 234.92629515 -78.2164507 229.22423547 -76.234375 223.375 C-75.96510193 222.56864609 -75.69582886 221.76229218 -75.418396 220.9315033 C-74.5335078 218.28610942 -73.64191232 215.64303312 -72.75 213 C-72.11497107 211.10759159 -71.48021059 209.21509308 -70.84570312 207.32250977 C-66.21434127 193.52716323 -61.51975388 179.75341372 -56.80444336 165.98657227 C-51.50697999 150.51569503 -46.26187687 135.02723442 -41.02253723 119.53660583 C-39.83987116 116.0402522 -38.65673078 112.54405907 -37.47363281 109.04785156 C-33.75265891 98.05136781 -30.03175174 87.05486256 -26.31591797 76.05664062 C-8.9048823 24.52492175 -8.9048823 24.52492175 0 0 Z M28 81 C27.73326477 81.69189423 27.46652954 82.38378845 27.19171143 83.09664917 C24.66240475 89.65717706 22.13249127 96.21747056 19.60191727 102.77750969 C18.30134074 106.14907278 17.00098872 109.52072208 15.70117188 112.89257812 C14.44383363 116.1542147 13.1858768 119.41561209 11.92751312 122.67685318 C11.22040144 124.50990172 10.51390998 126.34318948 9.80743408 128.17648315 C9.14720245 129.88712448 9.14720245 129.88712448 8.47363281 131.63232422 C8.05714478 132.71237732 7.64065674 133.79243042 7.21154785 134.9052124 C5.7563349 138.6224201 4.23809854 142.31190858 2.69207764 145.99221802 C1.83705957 148.11875314 1.83705957 148.11875314 2 151 C17.51 151 33.02 151 49 151 C44.71529949 134.75047543 40.3703753 118.52000135 35.86001587 102.33157349 C35.36942731 100.56677865 34.88161933 98.80120853 34.39657593 97.03488159 C33.71220808 94.54576878 33.01764704 92.05972524 32.3203125 89.57421875 C32.11538681 88.82142639 31.91046112 88.06863403 31.69932556 87.29302979 C31.19306566 85.51048541 30.60425456 83.75175339 30 82 C29.34 81.67 28.68 81.34 28 81 Z " fill="#072212" transform="translate(1960,293)"/>
<path d="M0 0 C61.05 0 122.1 0 185 0 C185 17.82 185 35.64 185 54 C164.87 54 144.74 54 124 54 C124 115.71 124 177.42 124 241 C103.54 241 83.08 241 62 241 C62 179.29 62 117.58 62 54 C41.54 54 21.08 54 0 54 C0 36.18 0 18.36 0 0 Z " fill="#072212" transform="translate(1707,293)"/>
<path d="M0 0 C19.14 0 38.28 0 58 0 C58 79.53 58 159.06 58 241 C38.86 241 19.72 241 0 241 C0 161.47 0 81.94 0 0 Z " fill="#082312" transform="translate(2425,293)"/>
</svg>
