<?xml version="1.0" encoding="UTF-8"?>
<!DOCTYPE svg PUBLIC "-//W3C//DTD SVG 1.1//EN" "http://www.w3.org/Graphics/SVG/1.1/DTD/svg11.dtd">
<svg xmlns="http://www.w3.org/2000/svg" version="1.1" width="891px" height="139px" style="shape-rendering:geometricPrecision; text-rendering:geometricPrecision; image-rendering:optimizeQuality; fill-rule:evenodd; clip-rule:evenodd" xmlns:xlink="http://www.w3.org/1999/xlink">
<g><path style="opacity:0.997" fill="#e5262a" d="M 118.5,-0.5 C 166.167,-0.5 213.833,-0.5 261.5,-0.5C 232.343,39.804 203.176,80.1373 174,120.5C 165.744,129.206 155.911,135.206 144.5,138.5C 108.833,138.5 73.1667,138.5 37.5,138.5C 48.449,118.052 64.449,102.886 85.5,93C 61.8044,97.7651 41.6377,108.932 25,126.5C 22.2388,130.36 19.7388,134.36 17.5,138.5C 11.5,138.5 5.5,138.5 -0.5,138.5C -0.5,138.167 -0.5,137.833 -0.5,137.5C 28.2234,98.4108 56.7234,59.0775 85,19.5C 94.0215,9.07904 105.188,2.41237 118.5,-0.5 Z"/></g>
<g><path style="opacity:0.947" fill="#000000" d="M 301.5,-0.5 C 313.167,-0.5 324.833,-0.5 336.5,-0.5C 347.142,2.7265 352.476,10.0598 352.5,21.5C 352.788,31.3586 348.455,38.1919 339.5,42C 332.888,43.2104 326.222,43.7104 319.5,43.5C 319.5,50.5 319.5,57.5 319.5,64.5C 313.5,64.5 307.5,64.5 301.5,64.5C 301.5,42.8333 301.5,21.1667 301.5,-0.5 Z M 319.5,13.5 C 324.605,13.1455 329.105,14.4789 333,17.5C 334.183,21.2739 333.349,24.4406 330.5,27C 326.886,27.9358 323.22,28.4358 319.5,28.5C 319.5,23.5 319.5,18.5 319.5,13.5 Z"/></g>
<g><path style="opacity:0.944" fill="#000000" d="M 361.5,-0.5 C 375.5,-0.5 389.5,-0.5 403.5,-0.5C 403.5,4.5 403.5,9.5 403.5,14.5C 395.833,14.5 388.167,14.5 380.5,14.5C 380.5,17.8333 380.5,21.1667 380.5,24.5C 387.5,24.5 394.5,24.5 401.5,24.5C 401.5,29.5 401.5,34.5 401.5,39.5C 394.5,39.5 387.5,39.5 380.5,39.5C 380.5,42.8333 380.5,46.1667 380.5,49.5C 388.167,49.5 395.833,49.5 403.5,49.5C 403.5,54.5 403.5,59.5 403.5,64.5C 389.5,64.5 375.5,64.5 361.5,64.5C 361.5,42.8333 361.5,21.1667 361.5,-0.5 Z"/></g>
<g><path style="opacity:0.937" fill="#000000" d="M 414.5,-0.5 C 426.5,-0.5 438.5,-0.5 450.5,-0.5C 464.512,5.67787 468.678,16.0112 463,30.5C 460.038,34.4556 456.204,37.289 451.5,39C 457.537,46.9051 463.203,55.0718 468.5,63.5C 461.524,64.6644 454.524,64.8311 447.5,64C 442.291,56.4178 437.457,48.5844 433,40.5C 432.5,48.4931 432.334,56.4931 432.5,64.5C 426.5,64.5 420.5,64.5 414.5,64.5C 414.5,42.8333 414.5,21.1667 414.5,-0.5 Z M 432.5,13.5 C 442.675,11.5183 447.175,15.5183 446,25.5C 442.265,29.0961 437.765,30.4294 432.5,29.5C 432.5,24.1667 432.5,18.8333 432.5,13.5 Z"/></g>
<g><path style="opacity:0.954" fill="#000000" d="M 470.5,-0.5 C 486.833,-0.5 503.167,-0.5 519.5,-0.5C 519.5,4.83333 519.5,10.1667 519.5,15.5C 514.5,15.5 509.5,15.5 504.5,15.5C 504.5,31.8333 504.5,48.1667 504.5,64.5C 498.167,64.5 491.833,64.5 485.5,64.5C 485.5,48.1667 485.5,31.8333 485.5,15.5C 480.5,15.5 475.5,15.5 470.5,15.5C 470.5,10.1667 470.5,4.83333 470.5,-0.5 Z"/></g>
<g><path style="opacity:0.94" fill="#000000" d="M 542.5,-0.5 C 550.833,-0.5 559.167,-0.5 567.5,-0.5C 574.833,21.1667 582.167,42.8333 589.5,64.5C 583.167,64.5 576.833,64.5 570.5,64.5C 569.708,60.789 568.708,57.1223 567.5,53.5C 559.167,52.1667 550.833,52.1667 542.5,53.5C 540.883,57.014 539.883,60.6807 539.5,64.5C 532.825,64.6663 526.158,64.4996 519.5,64C 527.464,42.6069 535.131,21.1069 542.5,-0.5 Z M 554.5,12.5 C 557.562,21.2182 560.562,30.0516 563.5,39C 557.833,39.6667 552.167,39.6667 546.5,39C 549.669,30.3254 552.336,21.4921 554.5,12.5 Z"/></g>
<g><path style="opacity:0.937" fill="#000000" d="M 601.5,-0.5 C 607.833,-0.5 614.167,-0.5 620.5,-0.5C 624.497,11.8256 628.497,24.1589 632.5,36.5C 636.779,24.3316 640.446,11.9983 643.5,-0.5C 650.167,-0.5 656.833,-0.5 663.5,-0.5C 666.942,21.1498 670.275,42.8165 673.5,64.5C 667.5,64.5 661.5,64.5 655.5,64.5C 654.075,52.1004 652.242,39.767 650,27.5C 646.189,39.7642 642.689,52.0976 639.5,64.5C 634.833,64.5 630.167,64.5 625.5,64.5C 622.315,52.4287 618.815,40.4287 615,28.5C 612.478,40.3129 610.645,52.3129 609.5,64.5C 603.5,64.5 597.5,64.5 591.5,64.5C 594.725,42.8165 598.058,21.1498 601.5,-0.5 Z"/></g>
<g><path style="opacity:0.935" fill="#000000" d="M 682.5,-0.5 C 688.833,-0.5 695.167,-0.5 701.5,-0.5C 701.087,14.2168 701.587,28.8835 703,43.5C 705.335,47.0008 708.668,48.6675 713,48.5C 718.271,48.8692 721.604,46.5358 723,41.5C 723.5,27.504 723.667,13.504 723.5,-0.5C 730.167,-0.5 736.833,-0.5 743.5,-0.5C 743.667,12.5043 743.5,25.5043 743,38.5C 741.705,57.2816 731.538,65.9482 712.5,64.5C 704.631,64.7602 697.298,62.9268 690.5,59C 685.707,54.5781 683.207,49.0781 683,42.5C 682.5,28.1705 682.333,13.8372 682.5,-0.5 Z"/></g>
<g><path style="opacity:0.946" fill="#000000" d="M 756.5,-0.5 C 767.833,-0.5 779.167,-0.5 790.5,-0.5C 811.819,4.75334 820.652,18.42 817,40.5C 813.5,52 806,59.5 794.5,63C 781.875,64.3482 769.209,64.8482 756.5,64.5C 756.5,42.8333 756.5,21.1667 756.5,-0.5 Z M 775.5,14.5 C 793.681,13.5079 800.848,21.8412 797,39.5C 795.373,44.0622 792.206,46.8955 787.5,48C 783.509,48.6417 779.509,49.1417 775.5,49.5C 775.5,37.8333 775.5,26.1667 775.5,14.5 Z"/></g>
<g><path style="opacity:0.939" fill="#000000" d="M 843.5,-0.5 C 851.833,-0.5 860.167,-0.5 868.5,-0.5C 875.065,20.2014 882.398,40.5347 890.5,60.5C 890.5,61.8333 890.5,63.1667 890.5,64.5C 884.167,64.5 877.833,64.5 871.5,64.5C 870.708,60.789 869.708,57.1223 868.5,53.5C 860.167,52.1667 851.833,52.1667 843.5,53.5C 842.03,57.0485 841.03,60.7151 840.5,64.5C 833.825,64.6663 827.158,64.4996 820.5,64C 828.464,42.6069 836.131,21.1069 843.5,-0.5 Z M 855.5,12.5 C 858.572,21.215 861.572,30.0484 864.5,39C 858.833,39.6667 853.167,39.6667 847.5,39C 850.708,30.3369 853.374,21.5035 855.5,12.5 Z"/></g>
<g><path style="opacity:1" fill="#f8b6b6" d="M 183.5,41.5 C 182.167,41.8333 180.833,42.1667 179.5,42.5C 179.167,42.5 178.833,42.5 178.5,42.5C 178.5,41.8333 178.167,41.5 177.5,41.5C 179.914,40.0674 182.581,39.5674 185.5,40C 184.956,40.7172 184.289,41.2172 183.5,41.5 Z"/></g>
<g><path style="opacity:1" fill="#fef8f8" d="M 177.5,41.5 C 178.167,41.5 178.5,41.8333 178.5,42.5C 152.091,55.037 125.425,67.037 98.5,78.5C 90.7085,74.4362 83.0418,70.1029 75.5,65.5C 109.411,57.0712 143.411,49.0712 177.5,41.5 Z"/></g>
<g><path style="opacity:1" fill="#fefbfb" d="M 183.5,41.5 C 169.964,62.7052 155.631,83.3719 140.5,103.5C 130.664,97.4143 120.664,91.581 110.5,86C 133.564,71.4753 156.564,56.9753 179.5,42.5C 180.833,42.1667 182.167,41.8333 183.5,41.5 Z"/></g>
<g><path style="opacity:0.869" fill="#000000" d="M 476.5,138.5 C 474.167,138.5 471.833,138.5 469.5,138.5C 469.108,136.821 468.608,135.154 468,133.5C 466.035,135.55 463.868,137.217 461.5,138.5C 456.5,138.5 451.5,138.5 446.5,138.5C 435.39,131.008 431.89,120.675 436,107.5C 439.592,99.6159 445.758,95.6159 454.5,95.5C 460.252,95.6243 464.752,97.9576 468,102.5C 468.5,92.8391 468.666,83.1724 468.5,73.5C 471.167,73.5 473.833,73.5 476.5,73.5C 476.5,95.1667 476.5,116.833 476.5,138.5 Z M 451.5,103.5 C 467.771,104.357 472.604,112.357 466,127.5C 453,135.584 445.167,132.084 442.5,117C 442.664,110.48 445.664,105.98 451.5,103.5 Z"/></g>
<g><path style="opacity:0.871" fill="#000000" d="M 659.5,138.5 C 657.167,138.5 654.833,138.5 652.5,138.5C 652.663,136.143 652.497,133.81 652,131.5C 650.258,134.746 647.758,137.079 644.5,138.5C 639.5,138.5 634.5,138.5 629.5,138.5C 618.39,131.008 614.89,120.675 619,107.5C 624.542,96.9829 633.042,93.4829 644.5,97C 647.102,97.8834 649.269,99.3834 651,101.5C 651.5,92.1726 651.666,82.8393 651.5,73.5C 654.167,73.5 656.833,73.5 659.5,73.5C 659.5,95.1667 659.5,116.833 659.5,138.5 Z M 634.5,103.5 C 648.186,103.356 653.686,110.023 651,123.5C 647.422,130.816 641.589,133.316 633.5,131C 628.385,127.61 625.718,122.776 625.5,116.5C 625.827,110.194 628.827,105.861 634.5,103.5 Z"/></g>
<g><path style="opacity:0.884" fill="#000000" d="M 839.5,138.5 C 836.833,138.5 834.167,138.5 831.5,138.5C 831.5,116.833 831.5,95.1667 831.5,73.5C 834.167,73.5 836.833,73.5 839.5,73.5C 839.5,95.1667 839.5,116.833 839.5,138.5 Z"/></g>
<g><path style="opacity:1" fill="#feeeee" d="M 104.5,89.5 C 109.051,91.3741 113.385,93.7075 117.5,96.5C 113.464,99.9426 109.297,103.276 105,106.5C 104.501,100.843 104.334,95.1764 104.5,89.5 Z"/></g>
<g><path style="opacity:1" fill="#fef8f8" d="M 37.5,138.5 C 30.8333,138.5 24.1667,138.5 17.5,138.5C 19.7388,134.36 22.2388,130.36 25,126.5C 41.6377,108.932 61.8044,97.7651 85.5,93C 64.449,102.886 48.449,118.052 37.5,138.5 Z"/></g>
<g><path style="opacity:0.842" fill="#000000" d="M 325.5,138.5 C 320.167,138.5 314.833,138.5 309.5,138.5C 305.883,136.883 303.216,134.216 301.5,130.5C 303.228,128.774 305.228,127.441 307.5,126.5C 311.769,131.981 317.103,133.481 323.5,131C 326.1,128.541 326.1,126.041 323.5,123.5C 318.5,121.333 313.5,119.167 308.5,117C 300.541,110.72 300.541,104.386 308.5,98C 315.66,94.545 322.66,94.8783 329.5,99C 335.175,103.392 334.342,106.225 327,107.5C 322.803,102.412 317.803,101.412 312,104.5C 311.104,107.025 311.604,109.192 313.5,111C 318.553,112.848 323.553,114.848 328.5,117C 334.116,122.086 334.949,127.919 331,134.5C 329.188,135.977 327.355,137.31 325.5,138.5 Z"/></g>
<g><path style="opacity:0.87" fill="#000000" d="M 369.5,138.5 C 363.833,138.5 358.167,138.5 352.5,138.5C 340.781,131.679 336.947,121.679 341,108.5C 349.321,94.961 360.487,92.1277 374.5,100C 379.187,105.233 381.187,111.4 380.5,118.5C 369.833,118.5 359.167,118.5 348.5,118.5C 349.272,129.102 354.939,133.602 365.5,132C 369.261,130.237 372.428,127.737 375,124.5C 377.12,125.473 378.953,126.806 380.5,128.5C 377.829,132.99 374.163,136.323 369.5,138.5 Z M 357.5,102.5 C 365.176,101.661 370.176,104.828 372.5,112C 364.479,112.832 356.479,112.665 348.5,111.5C 349.911,106.755 352.911,103.755 357.5,102.5 Z"/></g>
<g><path style="opacity:0.867" fill="#000000" d="M 416.5,138.5 C 410.833,138.5 405.167,138.5 399.5,138.5C 387.409,130.846 383.909,120.18 389,106.5C 396.492,95.8329 406.326,92.9996 418.5,98C 425.645,102.91 428.645,109.743 427.5,118.5C 416.833,118.5 406.167,118.5 395.5,118.5C 396.272,129.102 401.939,133.602 412.5,132C 416.261,130.237 419.428,127.737 422,124.5C 426.565,125.334 427.898,127.668 426,131.5C 423.21,134.465 420.043,136.798 416.5,138.5 Z M 404.5,102.5 C 411.887,101.688 416.887,104.688 419.5,111.5C 411.5,112.833 403.5,112.833 395.5,111.5C 396.911,106.755 399.911,103.755 404.5,102.5 Z"/></g>
<g><path style="opacity:0.867" fill="#000000" d="M 556.5,138.5 C 553.833,138.5 551.167,138.5 548.5,138.5C 548.662,136.473 548.495,134.473 548,132.5C 545.937,134.734 543.771,136.734 541.5,138.5C 536.5,138.5 531.5,138.5 526.5,138.5C 515.56,131.917 511.726,122.25 515,109.5C 519.935,97.5047 528.768,93.3381 541.5,97C 543.96,98.4578 546.127,100.291 548,102.5C 548.494,100.866 548.66,99.1992 548.5,97.5C 551.167,97.5 553.833,97.5 556.5,97.5C 556.5,111.167 556.5,124.833 556.5,138.5 Z M 531.5,103.5 C 544.637,103.139 550.137,109.473 548,122.5C 544.116,131.401 537.616,133.901 528.5,130C 522.096,123.709 520.93,116.542 525,108.5C 526.805,106.174 528.972,104.508 531.5,103.5 Z"/></g>
<g><path style="opacity:0.874" fill="#000000" d="M 607.5,138.5 C 604.833,138.5 602.167,138.5 599.5,138.5C 599.666,128.828 599.5,119.161 599,109.5C 597.703,104.711 594.536,102.378 589.5,102.5C 585.292,102.733 581.792,104.4 579,107.5C 577.574,117.754 577.074,128.088 577.5,138.5C 574.833,138.5 572.167,138.5 569.5,138.5C 569.5,124.833 569.5,111.167 569.5,97.5C 572.167,97.5 574.833,97.5 577.5,97.5C 577.343,98.8734 577.51,100.207 578,101.5C 587.734,93.2309 597.068,93.5642 606,102.5C 607.438,114.424 607.938,126.424 607.5,138.5 Z"/></g>
<g><path style="opacity:0.85" fill="#000000" d="M 720.5,138.5 C 715.167,138.5 709.833,138.5 704.5,138.5C 701.106,136.618 698.106,134.118 695.5,131C 697.422,129.124 699.589,127.624 702,126.5C 706.077,131.964 711.244,133.464 717.5,131C 721.5,128.333 721.5,125.667 717.5,123C 711.933,121.217 706.599,118.883 701.5,116C 696.784,111.308 696.284,106.141 700,100.5C 706.962,95.0351 714.462,94.2018 722.5,98C 729.177,101.772 729.01,104.938 722,107.5C 719.844,106.015 717.677,104.515 715.5,103C 710.567,101.318 707.234,102.818 705.5,107.5C 705.529,109.029 706.196,110.196 707.5,111C 712.091,112.864 716.757,114.53 721.5,116C 727.177,119.636 729.01,124.803 727,131.5C 725.306,134.358 723.139,136.691 720.5,138.5 Z"/></g>
<g><path style="opacity:0.854" fill="#000000" d="M 765.5,138.5 C 759.5,138.5 753.5,138.5 747.5,138.5C 736.148,132.679 731.981,123.346 735,110.5C 738.734,100.601 745.901,95.6013 756.5,95.5C 760.596,95.8858 764.596,96.7192 768.5,98C 769.783,100.795 769.783,103.628 768.5,106.5C 761.887,102.803 755.22,102.636 748.5,106C 739.904,115.432 740.904,123.765 751.5,131C 758.012,132.364 764.012,131.198 769.5,127.5C 770.833,130.5 770.833,133.5 769.5,136.5C 767.974,136.994 766.641,137.661 765.5,138.5 Z"/></g>
<g><path style="opacity:0.858" fill="#000000" d="M 818.5,138.5 C 815.833,138.5 813.167,138.5 810.5,138.5C 810.662,136.473 810.495,134.473 810,132.5C 807.937,134.734 805.771,136.734 803.5,138.5C 798.167,138.5 792.833,138.5 787.5,138.5C 776.73,131.274 773.23,121.274 777,108.5C 780.095,99.8639 786.262,95.5306 795.5,95.5C 801.775,95.7175 806.608,98.3842 810,103.5C 810.495,101.527 810.662,99.5273 810.5,97.5C 813.167,97.5 815.833,97.5 818.5,97.5C 818.5,111.167 818.5,124.833 818.5,138.5 Z M 793.5,103.5 C 805.602,102.769 811.102,108.435 810,120.5C 807.854,129.901 802.021,133.401 792.5,131C 788.667,129.833 786.167,127.333 785,123.5C 784.333,119.5 784.333,115.5 785,111.5C 786.445,107.218 789.278,104.551 793.5,103.5 Z"/></g>
<g><path style="opacity:0.867" fill="#000000" d="M 890.5,109.5 C 890.5,112.5 890.5,115.5 890.5,118.5C 879.833,118.5 869.167,118.5 858.5,118.5C 859.272,129.102 864.939,133.602 875.5,132C 879.261,130.237 882.428,127.737 885,124.5C 887.085,125.124 888.918,126.124 890.5,127.5C 890.5,128.167 890.5,128.833 890.5,129.5C 887.73,133.605 884.063,136.605 879.5,138.5C 873.833,138.5 868.167,138.5 862.5,138.5C 849.829,130.037 846.662,118.704 853,104.5C 862.282,94.4686 872.782,92.9686 884.5,100C 887.163,102.843 889.163,106.009 890.5,109.5 Z M 867.5,102.5 C 874.887,101.688 879.887,104.688 882.5,111.5C 874.5,112.833 866.5,112.833 858.5,111.5C 859.911,106.755 862.911,103.755 867.5,102.5 Z"/></g>
</svg>
