<?xml version="1.0" encoding="UTF-8"?>
<!DOCTYPE svg PUBLIC "-//W3C//DTD SVG 1.1//EN" "http://www.w3.org/Graphics/SVG/1.1/DTD/svg11.dtd">
<!-- Creator: CorelDRAW X7 -->
<svg xmlns="http://www.w3.org/2000/svg" xml:space="preserve" width="167mm" height="127mm" version="1.1" style="shape-rendering:geometricPrecision; text-rendering:geometricPrecision; image-rendering:optimizeQuality; fill-rule:evenodd; clip-rule:evenodd"
viewBox="0 0 16700 12700"
 xmlns:xlink="http://www.w3.org/1999/xlink"
 xmlns:svg="http://www.w3.org/2000/svg">
 <defs>
  <style type="text/css">
   <![CDATA[
    .fil0 {fill:#037DC3}
   ]]>
  </style>
 </defs>
 <g id="Layer_x0020_1">
  <metadata id="CorelCorpID_0Corel-Layer"/>
 </g>
 <g id="svg2">
  <metadata id="CorelCorpID_1Corel-Layer"/>
  <path id="Logo_x0020_UNS_x0020__x0028_Universitas_x0020_Sebelas_x0020_Maret_x0029__x0020__x0028_CDR-X4_x0029__x0020_-_x0020_FileVector69.cdr" class="fil0" d="M5091 3804c-108,-94 33,-225 134,-142l625 597c55,54 46,135 27,155 -17,19 -5,-25 -67,-79l-634 -606c-57,-54 -107,0 -52,55l673 643c25,24 21,71 2,52l-708 -675zm-599 2800c8,-8 -4,-26 31,-22 32,4 85,46 188,36l315 -31c77,-8 75,-100 -8,-88 -186,18 -205,20 -365,36 -13,1 -28,-1 -44,-2 -170,-16 -178,-151 -18,-182l655 -65c132,-16 201,16 217,2 23,-21 -120,-46 -222,-34 -182,17 -358,23 -539,27 -268,-2 -194,-331 -159,-290 22,155 183,152 229,53 63,99 223,88 252,75 70,-31 94,-80 36,-127 -90,-74 -389,-101 -462,-177 -84,-87 -89,-258 83,-262 39,0 114,55 67,94 -21,17 -59,-19 -105,-6 -44,13 -66,79 29,101 127,30 259,-70 363,-73 166,-4 145,214 108,215 -48,1 8,-78 -116,-118 -93,-30 -231,66 -360,40 60,49 322,82 405,145 61,47 67,80 55,155 -14,80 -224,152 -362,23 -101,99 -187,38 -208,8 -25,14 53,106 148,102 195,-4 386,-2 579,-21 286,-34 382,264 345,278 -24,10 -55,-162 -367,-133l-684 68c-75,21 -28,72 20,70l416 -41c143,-13 177,161 20,204l-311 31c-123,6 -151,-55 -161,-38 -24,15 61,102 155,91l375 -37c41,-6 79,31 55,34l-427 42c-139,13 -222,-116 -228,-183zm6715 857c-10,3 -7,24 -37,6 -27,-17 -57,-78 -155,-114l-296 -111c-73,-27 -110,54 -30,81l343 128c13,5 26,13 40,21 146,89 92,222 -66,179l-374 -139c-71,-28 -97,-102 -88,-126 9,-22 16,20 93,46l414 154c77,15 61,-62 17,-81l-392 -146c-135,-51 -91,-219 69,-189l293 109c113,49 113,115 128,105 28,-3 -13,-121 -102,-153 -195,-72 -375,-124 -570,-197 -332,-106 -290,-392 -250,-393 26,-1 0,174 305,246l670 178c78,4 49,-61 4,-73l-407 -119c-140,-33 -117,-211 46,-203l304 69c119,34 126,102 140,89 28,-7 -25,-123 -118,-142l-367 -80c-40,-7 -65,-55 -41,-50 211,48 208,43 419,91 135,32 172,188 157,254 -9,6 -4,27 -36,12 -29,-14 -66,-72 -168,-95l-308 -71c-75,-18 -103,72 -20,88l357 106c13,3 27,10 41,16 157,70 121,203 -41,181l-641 -172c-130,-26 -185,-80 -205,-71 -28,13 85,84 195,116 187,61 367,117 548,185 131,49 152,203 129,265zm-393 649c-65,-30 -102,-135 -59,-148 30,-9 17,45 111,81 41,11 71,-65 32,-83 -122,-55 -244,-111 -366,-167 -113,-52 -166,-287 80,-179l401 183c29,12 38,-2 50,12 13,16 -30,82 -110,51l-378 -172c-95,-40 -92,33 -29,66l373 171c31,16 69,64 42,126 -21,46 -89,85 -147,59zm-50 225c-11,2 -13,23 -38,-3 -23,-22 -38,-88 -124,-146l-264 -177c-64,-44 -119,27 -47,72l304 204c12,8 23,19 34,30 122,121 38,237 -105,159l-332 -223c-62,-43 -70,-121 -56,-143 13,-19 10,23 80,66l367 247c71,32 73,-46 35,-75l-348 -233c-119,-82 -38,-235 111,-168l259 174c100,74 84,138 101,132 28,4 13,-111 -67,-163l-314 -210c-34,-22 -42,-74 -21,-61l357 240c116,79 104,224 68,278zm631 -2087c-8,8 3,26 -32,20 -31,-5 -82,-50 -186,-47l-316 11c-77,2 -81,92 3,86l366 -12c13,0 28,2 44,5 169,27 168,170 6,191l-398 12c-76,2 -128,-57 -129,-82 0,-24 22,12 104,7l441 -15c76,-15 32,-80 -15,-81l-418 13c-143,4 -166,-168 -6,-201l311 -10c124,2 148,63 159,48 25,-13 -54,-98 -149,-93l-377 12c-40,3 -76,-35 -51,-37l428 -13c140,-4 213,121 215,186zm-660 -1844l-365 253c-110,83 -18,146 77,79l358 -250c38,-26 85,13 100,35 20,29 54,89 10,126l-362 251c-63,43 -159,30 -174,7 -14,-21 44,-13 109,-63l346 -240c46,-33 10,-92 -39,-58l-315 219c-157,103 -322,-60 -152,-177l336 -233c42,-34 -5,-81 -46,-54l-557 449c-210,199 -466,15 -445,-20 14,-23 142,100 375,-111l510 -466c47,-61 -21,-75 -58,-45 -135,123 -175,160 -310,283 -108,96 -239,-25 -139,-155 105,-97 125,-115 231,-211 95,-79 154,-47 153,-66 10,-26 -111,-46 -180,19l-255 253c-29,29 -82,22 -65,5 161,-147 134,-142 295,-288 103,-94 247,-39 292,12 -1,11 20,19 -11,37 -28,16 -96,13 -173,84l-235 214c-57,52 0,126 60,67l271 -248c11,-10 24,-17 37,-26 147,-88 234,17 124,138l-488 446c-96,92 -171,107 -175,128 -6,31 125,-32 199,-105 174,-159 330,-291 529,-429 105,-73 222,77 132,140zm292 702l-316 165c-68,35 -140,3 -152,-20 -11,-22 25,2 96,-39l350 -183c107,-63 55,-136 10,-113 -120,63 -240,126 -360,188 -111,57 -317,-27 -80,-155l390 -204c27,-16 23,-31 41,-32 20,-1 43,71 -30,115l-368 192c-91,50 -39,80 26,51l364 -190c124,-56 202,134 29,225zm-866 -1257l-223 287c-49,60 -128,63 -148,48 -19,-15 23,-9 72,-77l248 -318c73,-104 -4,-146 -36,-105 -85,109 -170,218 -255,327 -79,99 -302,114 -136,-105l276 -354c19,-26 10,-39 25,-46 18,-9 68,44 18,116l-260 334c-63,85 -3,89 44,34l258 -331c92,-104 240,32 117,190zm1037 2111l-351 60c-75,11 -134,-41 -138,-67 -4,-24 23,10 103,-7l389 -67c121,-27 93,-113 43,-104l-400 68c-122,20 -293,-124 -29,-173l434 -74c30,-6 31,-22 48,-17 20,5 20,80 -63,100l-409 69c-101,20 -61,65 10,57l404 -69c135,-15 152,190 -41,224zm-1510 -2639c3,11 24,11 0,38 -21,24 -85,44 -137,134l-159 277c-38,67 35,118 75,43l183 -320c7,-12 17,-23 27,-35 112,-131 232,-54 164,95l-200 348c-38,66 -115,79 -137,66 -20,-12 22,-11 60,-85l221 -385c27,-74 -51,-70 -76,-30l-209 365c-73,125 -230,53 -173,-101l156 -272c66,-105 131,-93 124,-110 2,-29 -111,-6 -157,78l-189 329c-18,36 -69,47 -58,25l215 -375c70,-121 214,-118 270,-85zm-1058 -277l-69 378c-5,34 3,47 13,50 10,3 43,-10 47,-39l78 -431c17,-100 218,-58 192,87 -1,54 -38,231 -73,401 -14,75 -85,113 -111,108 -24,-5 18,-19 29,-101l82 -450c1,-52 -76,-66 -83,-20l-77 424c-17,91 -92,121 -138,111 -43,-8 -54,-58 -39,-144l74 -409c10,-58 -73,-73 -81,-31l-73 407c-24,124 -217,234 -172,-33l65 -437c4,-31 -11,-37 0,-52 12,-17 83,10 73,95l-61 412c-16,102 38,81 55,12l75 -414c24,-132 215,-46 194,76zm-682 -195c7,8 26,-1 18,34 -8,31 -55,79 -57,184l-8 319c-2,78 87,87 86,2l9 -369c0,-14 3,-29 7,-44 36,-169 178,-160 189,4l-10 402c-2,76 -63,125 -89,124 -23,-1 14,-21 13,-103l11 -445c-12,-78 -79,-37 -82,10l-10 422c-4,145 -176,157 -200,-5l8 -314c9,-125 71,-145 56,-157 -12,-26 -100,49 -100,144l-9 380c1,41 -39,75 -40,51l11 -433c4,-140 132,-208 197,-206zm-1310 332l172 411c57,126 133,50 87,-57l-170 -405c-18,-43 28,-81 50,-90 30,-12 93,-34 120,18l170 408c29,71 0,162 -24,172 -23,9 -4,-46 -39,-120l-164 -391c-22,-52 -84,-29 -61,26l149 356c68,175 -113,301 -192,109l-159 -379c-24,-49 -76,-12 -58,34l215 477c5,25 -39,-1 -46,-18l-205 -452c-49,-119 112,-200 155,-99zm-841 -12c-83,-116 83,-209 161,-104l468 730c29,50 56,14 19,-52l-207 -323c-73,-130 94,-251 205,-79l161 273c55,87 15,222 -4,212 -21,-12 3,-68 -54,-150l-183 -308c-67,-91 -121,-18 -90,30l205 320c85,108 20,289 -109,141l-167 -261 0 0 -307 -480c-42,-65 -102,-26 -61,40l503 786c18,29 4,73 -11,51l-529 -826zm-77 582l291 337c93,102 141,6 64,-82l-286 -331c-30,-35 1,-84 20,-101 25,-22 78,-61 119,-20l288 334c49,58 50,153 30,171 -18,15 -18,-42 -74,-103l-276 -319c-37,-43 -89,-2 -50,44l251 291c119,145 -15,322 -149,164l-268 -310c-38,-39 -76,12 -44,50l347 403c13,22 -37,12 -49,-2l-330 -383c-84,-98 44,-226 116,-143zm-697 905c-125,-69 -7,-242 109,-182l236 143 0 1 128 78c65,40 73,122 59,145 -13,22 -10,-23 -82,-63l-374 -228c-66,-41 -113,38 -48,79l420 256c29,19 35,65 12,51l-460 -280zm-263 -176c-59,-86 -7,-161 43,-180 34,-13 74,12 87,19 64,40 49,135 27,144 -33,15 3,-49 -67,-92 -53,-32 -102,60 -57,103 29,27 68,12 71,26 3,18 -65,36 -104,-20zm-359 473c-133,-51 -46,-220 77,-177l653 289 0 0 136 60c53,26 55,-19 -11,-54l-350 -154c-132,-68 -59,-262 128,-180l292 129c94,43 135,178 113,179 -26,2 -35,-58 -127,-95l-330 -145c-106,-40 -111,51 -58,74l345 153c130,43 175,230 -14,178l-282 -124 0 0 -519 -230c-70,-31 -99,35 -29,67l850 376c31,14 43,59 18,49l-892 -395zm4745 -2259c42,-137 208,-64 174,62l-289 819c-22,55 1,86 29,17l141 -399c57,-137 223,-90 155,103l-117 301c-47,130 -173,145 -176,123 -3,-25 65,-35 95,-130l134 -349c21,-65 -39,-76 -54,-33l-139 394c-28,119 -183,145 -150,-32 97,-277 195,-554 293,-830 26,-74 -39,-97 -66,-24 -112,317 -184,556 -296,872 -12,33 -54,49 -45,23 116,-330 195,-587 311,-917zm-4461 4164l347 -77c75,-16 137,36 143,63 5,25 -24,-9 -103,12l-385 85c-119,33 -86,120 -36,109 131,-29 263,-58 395,-87 122,-26 301,115 40,177l-429 95c-30,7 -29,24 -47,20 -20,-5 -25,-83 57,-106l405 -89c100,-25 57,-69 -13,-58l-401 88c-134,21 -164,-190 27,-232zm2666 -3869c19,70 -37,166 -74,141 -26,-17 23,-42 -11,-138 -18,-39 -95,-13 -83,29 37,130 73,260 109,390 33,121 -111,313 -188,53l-119 -427c-10,-29 -26,-28 -23,-46 4,-20 82,-29 110,52l112 402c31,99 85,50 70,-20l-112 -398c-7,-34 5,-94 69,-113 49,-13 122,13 140,75zm-2637 4598c5,-11 -11,-26 24,-31 32,-5 95,25 192,-13l296 -112c73,-27 45,-121 -32,-88l-343 131c-13,5 -28,7 -43,9 -170,28 -219,-119 -73,-193l373 -141c71,-27 140,17 150,42 9,25 -25,-6 -100,27l-413 157c-67,41 -2,93 43,79l391 -149c135,-50 216,118 76,203l-292 112c-117,37 -162,-17 -166,2 -19,21 85,82 173,47l353 -134c37,-17 84,11 62,20l-402 153c-131,49 -244,-55 -269,-121zm379 479l327 -197c29,-19 33,-34 29,-44 -5,-10 -37,-27 -61,-10l-373 224c-86,54 -190,-133 -65,-209l346 -209c66,-38 142,-8 156,16 13,23 -26,-1 -94,44l-390 235c-40,33 2,103 41,78l367 -221c79,-47 152,-7 176,35 22,39 -7,82 -81,126l-354 214c-49,30 -5,106 32,83l352 -212c108,-63 329,27 100,169l-377 228c-26,17 -20,32 -39,34 -20,2 -49,-72 21,-120l356 -215c87,-55 26,-95 -37,-62l-358 216c-114,68 -180,-139 -74,-203zm-798 -2791c-142,-52 -62,-226 63,-183l338 120c50,-83 79,-61 76,27l375 133c72,26 115,111 106,137 -4,12 -46,-30 -112,-51l-272 -97 0 0 -528 -187c-71,-25 -91,44 -24,69l872 309c25,9 47,56 23,47l-502 -177c-18,25 -45,58 -66,52 -20,-7 -17,-48 -13,-80 -118,-42 -208,-73 -336,-119zm3653 485c80,179 241,342 239,537 -2,120 -112,243 -252,250 -139,-11 -245,-137 -243,-258 3,-196 171,-352 256,-529zm1854 3526c-21,14 -42,27 -63,40l-1 0c-541,333 -1177,521 -1856,510 -699,-11 -1373,-235 -1942,-641l0 0 -36 -26c77,-107 149,-221 209,-354 -190,35 -379,47 -569,51 -58,-57 -115,-115 -169,-175 493,-15 1297,-43 1504,-494 101,-218 113,-517 132,-796l-8 -18c-317,-46 -493,-513 -490,-884 2,-154 47,-352 251,-373 -87,-286 -42,-514 163,-673 -36,-338 82,-568 353,-694 44,-256 184,-392 378,-460 58,-178 142,-275 318,-272 176,3 257,102 309,283 192,74 327,214 363,472 267,134 377,368 330,705 200,165 238,394 141,677 204,28 243,227 239,382 -9,370 -199,832 -517,867l-10 18c11,279 13,578 107,800 192,457 995,511 1487,542 -56,59 -114,115 -175,170 -189,-10 -378,-28 -567,-69 56,134 125,251 198,360 -26,18 -52,35 -79,52l0 0zm-3649 -174c500,329 1094,525 1732,535 638,10 1239,-166 1749,-478 -69,-109 -133,-225 -196,-350 -176,-68 -470,-212 -602,-412 -118,-179 -162,-488 -170,-733 -218,265 -511,457 -756,453 -245,-4 -532,-205 -741,-478 -16,245 -69,552 -194,727 -139,197 -437,330 -615,393 -67,122 -135,236 -207,343zm1820 -4912c106,2 136,114 152,256 205,34 346,156 357,453 313,110 379,347 294,664 300,142 252,454 49,845 72,-40 314,-132 362,31 53,179 -171,952 -442,747 -235,516 -603,749 -832,746 -230,-4 -589,-250 -808,-773 -277,196 -476,-583 -417,-761 53,-161 291,-61 362,-19 -190,-398 -228,-711 77,-843 -76,-319 -1,-554 314,-654 22,-296 166,-414 372,-441 21,-142 54,-253 160,-251zm-40 2477c164,1 381,-143 385,-376 6,-330 -288,-601 -364,-943 -86,339 -388,600 -394,931 -3,233 210,383 373,388zm3465 3277c506,-9 836,-272 1079,-702 509,-1114 34,-1953 934,-2813 -888,-867 -411,-1883 -884,-2919 -234,-399 -544,-635 -1015,-659 -8,-465 -240,-801 -620,-1044 -981,-526 -2045,-102 -2865,-986 -873,877 -1833,429 -2818,851 -434,231 -705,554 -730,1064 -472,8 -789,234 -1036,625 -508,966 -38,2012 -977,2889 904,907 396,1937 884,2919 234,400 544,636 1014,660l2 0 0 0c29,0 58,0 87,1l0 -4c26,-1 53,-2 80,-4 115,294 281,485 428,685 164,225 277,469 299,710 230,-74 431,-245 603,-462 399,288 682,588 692,970 241,-166 450,-346 621,-544 253,172 494,364 674,678 189,-308 437,-491 695,-655 164,203 367,390 603,563 22,-381 315,-672 722,-946 165,222 361,400 588,481 30,-240 151,-480 322,-699 153,-196 325,-382 450,-671 27,3 53,5 80,7l0 0c29,2 58,4 87,5l0 0 1 0zm2836 -2218l-8 6 4 -16 4 10zm-2735 -4676l-3 50c-17,134 -55,249 -136,358 -134,131 -312,147 -460,29 -130,-125 -149,-297 -47,-447 101,-116 250,-151 396,-176l66 -4c2,-446 -220,-691 -525,-883 -671,-422 -2043,-97 -2767,-879 -749,758 -2110,389 -2794,788 -310,181 -541,420 -553,866l65 5c145,30 292,70 390,189 97,154 73,325 -62,446 -151,113 -329,91 -458,-44 -78,-112 -112,-228 -125,-363l-1 -50c-441,-1 -683,222 -873,529 -418,677 -96,2061 -872,2791 752,755 386,2127 782,2817 188,329 438,567 922,558l33 -2c-79,-311 209,-681 508,-451 130,125 141,312 39,462 -80,92 -190,133 -305,159 84,203 239,383 364,569 121,181 244,352 320,579 127,-88 235,-192 322,-312 -110,-115 -227,-229 -239,-378 -13,-163 87,-357 278,-360 173,-3 297,159 309,336 9,125 -60,257 -109,372 365,261 621,517 713,794 132,-92 247,-191 350,-324 -107,-88 -216,-180 -234,-315 -31,-238 88,-404 281,-406 123,-2 280,126 291,318 6,110 -50,259 -88,359 224,152 435,316 578,507 148,-186 365,-343 594,-488 -35,-101 -86,-251 -77,-362 17,-191 178,-314 302,-308 192,9 306,178 267,415 -22,135 -134,222 -244,307 98,137 210,240 339,336 101,-274 365,-521 739,-771 -45,-116 -110,-251 -98,-375 19,-177 148,-334 320,-326 190,9 284,208 266,369 -16,148 -137,259 -251,371 84,122 188,229 313,322 83,-225 211,-391 338,-568 130,-182 291,-358 381,-557 -113,-30 -222,-75 -299,-169 -97,-153 -80,-340 54,-461 307,-219 582,160 493,468l33 3c483,25 741,-206 940,-528 418,-676 96,-2060 872,-2790 -752,-755 -386,-2127 -782,-2818 -180,-313 -415,-544 -856,-557zm-197 7c-10,108 -37,201 -91,269 -53,58 -134,52 -182,11 -54,-48 -68,-140 3,-198 62,-40 158,-65 269,-82l0 0 1 0zm-6621 -108c7,108 31,202 82,272 52,59 133,56 182,16 55,-45 73,-137 4,-197 -61,-43 -156,-70 -266,-92l0 1 -2 0zm3928 8008c-31,-72 -77,-187 -59,-270 43,-199 275,-144 219,52 -23,84 -88,164 -160,218zm1323 -410c-34,-72 -82,-186 -69,-270 30,-200 258,-145 216,52 -18,85 -80,164 -147,218zm992 -1120c-62,33 -66,152 3,213 44,30 106,53 178,72 51,-127 -2,-381 -181,-285zm-3804 1505c33,-70 83,-183 67,-268 -37,-200 -270,-153 -221,46 21,84 83,166 154,222zm-1310 -453c37,-70 89,-183 78,-268 -23,-200 -253,-153 -217,46 15,85 74,167 139,222zm-955 -1151c62,36 61,154 -10,212 -45,29 -107,50 -180,66 -47,-128 13,-382 190,-278z"/>
 </g>
</svg>
