<?xml version="1.0" encoding="UTF-8"?>
<!DOCTYPE svg PUBLIC "-//W3C//DTD SVG 1.1//EN" "http://www.w3.org/Graphics/SVG/1.1/DTD/svg11.dtd">
<svg xmlns="http://www.w3.org/2000/svg" version="1.1" width="761px" height="328px" style="shape-rendering:geometricPrecision; text-rendering:geometricPrecision; image-rendering:optimizeQuality; fill-rule:evenodd; clip-rule:evenodd" xmlns:xlink="http://www.w3.org/1999/xlink">
<g><path style="opacity:0.047" fill="#c8e4d8" d="M 24.5,10.5 C 22.8185,12.0075 20.8185,13.0075 18.5,13.5C 19.911,11.461 21.911,10.461 24.5,10.5 Z"/></g>
<g><path style="opacity:1" fill="#30857a" d="M 152.5,37.5 C 152.5,86.8333 152.5,136.167 152.5,185.5C 151.849,184.909 151.182,184.243 150.5,183.5C 149.667,138.17 149.167,92.837 149,47.5C 147.482,43.0446 145.649,42.7113 143.5,46.5C 145.008,66.5201 144.508,86.5201 142,106.5C 141.484,103.966 140.317,101.8 138.5,100C 139.167,99.6667 139.833,99.3333 140.5,99C 139.216,98.3162 138.049,98.4829 137,99.5C 136.503,103.524 136.669,107.524 137.5,111.5C 136.5,111.5 135.5,111.5 134.5,111.5C 133.989,114.693 133.322,117.859 132.5,121C 132.354,123.034 133.02,124.701 134.5,126C 133.572,126.388 132.905,127.055 132.5,128C 135.577,129.635 136.077,131.802 134,134.5C 133.492,132.096 132.325,131.429 130.5,132.5C 129.571,133.689 129.238,135.022 129.5,136.5C 127.126,137.214 125.126,138.548 123.5,140.5C 122.133,139.775 120.8,139.108 119.5,138.5C 119.833,137.833 120.167,137.167 120.5,136.5C 124.688,134.975 127.021,131.975 127.5,127.5C 132.112,115.451 135.112,103.117 136.5,90.5C 137.477,87.7131 137.81,84.7131 137.5,81.5C 134.956,81.8957 132.789,81.229 131,79.5C 130.508,80.549 130.674,81.549 131.5,82.5C 127.313,83.3589 124.313,85.6923 122.5,89.5C 115.929,94.5639 109.763,100.231 104,106.5C 100.398,111.702 97.8977,117.369 96.5,123.5C 95.8367,125.641 95.5034,127.975 95.5,130.5C 95.5286,133.269 96.1952,135.603 97.5,137.5C 98.6225,139.288 98.7891,141.288 98,143.5C 92.7211,152.599 86.8877,161.266 80.5,169.5C 79.3336,149.842 79.167,130.175 80,110.5C 88.8274,104.676 93.6607,96.5093 94.5,86C 92.8454,69.5423 87.1787,54.7089 77.5,41.5C 69.3272,54.3506 64.3272,68.3506 62.5,83.5C 62.8669,94.5633 67.2002,103.563 75.5,110.5C 75.8303,130.007 75.497,149.341 74.5,168.5C 68.1926,159.906 62.3592,150.906 57,141.5C 61.0194,129.91 59.6861,118.91 53,108.5C 43.449,95.9908 31.2823,87.3241 16.5,82.5C 17.3596,98.6013 21.0263,113.935 27.5,128.5C 26.2058,127.71 25.0391,126.71 24,125.5C 23.3268,121.98 22.1602,118.647 20.5,115.5C 19.8333,116.5 19.1667,117.5 18.5,118.5C 17.2888,117.726 17.2888,116.893 18.5,116C 16.6494,115.163 14.8161,114.329 13,113.5C 12.6667,114.167 12.3333,114.833 12,115.5C 11.3333,135.167 11.3333,154.833 12,174.5C 13.1182,177.139 13.6182,179.973 13.5,183C 12.8574,188.515 11.8574,194.015 10.5,199.5C 8.00626,175.294 7.00626,150.96 7.5,126.5C 7.52842,109.742 8.19509,93.0753 9.5,76.5C 9.71627,66.9121 9.38294,57.2454 8.5,47.5C 6.50815,54.095 6.17481,60.7616 7.5,67.5C 7.26187,71.7005 6.42854,75.7005 5,79.5C 4.17897,117.189 4.34563,154.856 5.5,192.5C 5.28107,193.938 4.78107,195.271 4,196.5C 3.66667,189.167 3.33333,181.833 3,174.5C 2.66535,185.692 2.49869,196.692 2.5,207.5C 1.82267,154.057 1.156,100.557 0.5,47C 0.16636,34.6571 4.49969,24.3237 13.5,16C 15.0779,14.9055 16.7446,14.0722 18.5,13.5C 20.8185,13.0075 22.8185,12.0075 24.5,10.5C 26.8766,9.11274 29.5432,8.27941 32.5,8C 64.2064,7.03749 95.8731,7.37083 127.5,9C 141.41,13.7356 149.743,23.2356 152.5,37.5 Z"/></g>
<g><path style="opacity:0.016" fill="#88bbba" d="M 165.5,12.5 C 166.167,22.8333 166.833,33.1667 167.5,43.5C 167.5,44.1667 167.5,44.8333 167.5,45.5C 166.883,45.3893 166.383,45.056 166,44.5C 165.5,33.8385 165.333,23.1719 165.5,12.5 Z"/></g>
<g><path style="opacity:1" fill="#2e8579" d="M 272.5,77.5 C 284.42,76.5214 296.42,76.1881 308.5,76.5C 308.5,77.5 308.5,78.5 308.5,79.5C 295.213,103.905 282.546,128.739 270.5,154C 284.194,179.556 297.194,205.389 309.5,231.5C 297.162,231.667 284.829,231.5 272.5,231C 268.755,224.344 265.422,217.511 262.5,210.5C 260.341,204.849 257.674,199.516 254.5,194.5C 251.13,188.078 248.13,181.412 245.5,174.5C 245.703,172.61 245.037,171.11 243.5,170C 236.321,169.179 229.321,169.345 222.5,170.5C 222.5,190.833 222.5,211.167 222.5,231.5C 211.162,231.667 199.828,231.5 188.5,231C 187.549,227.943 187.216,224.777 187.5,221.5C 188.283,219.924 189.45,218.591 191,217.5C 191.245,160.161 191.745,102.828 192.5,45.5C 186.703,44.4337 186.37,42.767 191.5,40.5C 188.833,39.1667 186.167,39.1667 183.5,40.5C 184.902,41.8425 184.569,42.6758 182.5,43C 177.511,43.4993 172.511,43.6659 167.5,43.5C 166.833,33.1667 166.167,22.8333 165.5,12.5C 167.056,10.0118 169.389,9.01184 172.5,9.5C 188.881,10.4402 205.215,10.7735 221.5,10.5C 222.5,52.4947 222.833,94.4947 222.5,136.5C 229.5,136.5 236.5,136.5 243.5,136.5C 251.821,116.191 261.488,96.5241 272.5,77.5 Z"/></g>
<g><path style="opacity:1" fill="#549187" d="M 78.5,79.5 C 80.4612,86.0869 81.1279,93.0869 80.5,100.5C 82.1667,100.5 83.8333,100.5 85.5,100.5C 84.7893,97.1362 85.956,94.8029 89,93.5C 89.2695,90.7759 89.7695,88.1092 90.5,85.5C 88.836,82.103 88.0027,78.4363 88,74.5C 87.6667,74.8333 87.3333,75.1667 87,75.5C 86.7811,74.062 86.2811,72.7287 85.5,71.5C 83.2046,70.5682 80.8713,69.7348 78.5,69C 79.2266,67.6012 79.7266,66.1012 80,64.5C 81,63.1667 82,63.1667 83,64.5C 83.8141,62.0982 83.6474,59.7649 82.5,57.5C 80.4373,55.2796 78.604,52.9463 77,50.5C 74.5425,54.098 72.3759,57.7646 70.5,61.5C 71.6251,56.2878 73.6251,51.4545 76.5,47C 77.635,46.2506 78.635,46.4173 79.5,47.5C 86.1105,59.3877 90.4439,72.0544 92.5,85.5C 91.9151,94.6752 87.7484,101.675 80,106.5C 79.8057,97.4227 79.3057,88.4227 78.5,79.5 Z"/></g>
<g><path style="opacity:0.133" fill="#73afa1" d="M 308.5,79.5 C 308.5,78.5 308.5,77.5 308.5,76.5C 296.42,76.1881 284.42,76.5214 272.5,77.5C 284.455,75.5203 296.788,74.8536 309.5,75.5C 309.768,77.099 309.434,78.4324 308.5,79.5 Z"/></g>
<g><path style="opacity:1" fill="#308679" d="M 335.5,150.5 C 339.167,147.5 342.5,144.167 345.5,140.5C 352.473,134.849 360.473,131.016 369.5,129C 383.798,127.797 398.131,127.13 412.5,127C 403.935,108.918 390.268,103.585 371.5,111C 365.966,114.927 361.466,119.76 358,125.5C 348.758,122.531 339.592,119.364 330.5,116C 329.483,114.951 329.316,113.784 330,112.5C 340.197,88.3359 358.53,76.0026 385,75.5C 416.413,76.1826 436.413,91.5159 445,121.5C 446.621,157.804 446.954,194.137 446,230.5C 435.577,231.652 425.077,231.819 414.5,231C 413.7,226.92 413.2,222.753 413,218.5C 403.974,228.623 392.641,233.29 379,232.5C 351.389,232.208 333.723,218.874 326,192.5C 325.147,183.114 325.481,173.781 327,164.5C 328.591,158.969 331.424,154.302 335.5,150.5 Z M 372.5,158.5 C 386.5,158.5 400.5,158.5 414.5,158.5C 415.436,168.592 413.936,178.259 410,187.5C 398.231,202.401 383.731,205.901 366.5,198C 364.833,196.333 363.167,194.667 361.5,193C 356.74,193.45 352.24,194.95 348,197.5C 346.136,195.045 346.302,192.878 348.5,191C 351.284,190.108 353.95,188.942 356.5,187.5C 354.278,173.608 359.611,163.941 372.5,158.5 Z"/></g>
<g><path style="opacity:1" fill="#2c8578" d="M 152.5,185.5 C 152.635,192.862 152.302,200.196 151.5,207.5C 148.09,219.411 140.423,227.244 128.5,231C 94.5,231.667 60.5,231.667 26.5,231C 14.018,227.684 6.01801,219.851 2.5,207.5C 2.49869,196.692 2.66535,185.692 3,174.5C 3.33333,181.833 3.66667,189.167 4,196.5C 4.78107,195.271 5.28107,193.938 5.5,192.5C 4.34563,154.856 4.17897,117.189 5,79.5C 6.42854,75.7005 7.26187,71.7005 7.5,67.5C 6.17481,60.7616 6.50815,54.095 8.5,47.5C 9.38294,57.2454 9.71627,66.9121 9.5,76.5C 8.19509,93.0753 7.52842,109.742 7.5,126.5C 7.00626,150.96 8.00626,175.294 10.5,199.5C 11.8574,194.015 12.8574,188.515 13.5,183C 13.6182,179.973 13.1182,177.139 12,174.5C 11.3333,154.833 11.3333,135.167 12,115.5C 12.3333,114.833 12.6667,114.167 13,113.5C 14.8161,114.329 16.6494,115.163 18.5,116C 17.2888,116.893 17.2888,117.726 18.5,118.5C 19.1667,117.5 19.8333,116.5 20.5,115.5C 22.1602,118.647 23.3268,121.98 24,125.5C 25.0391,126.71 26.2058,127.71 27.5,128.5C 29.6411,131.472 32.3078,133.972 35.5,136C 41.5996,138.774 47.9329,140.774 54.5,142C 62.0408,152.912 69.2075,164.079 76,175.5C 76.0257,185.327 76.6923,194.994 78,204.5C 79.3066,195.328 79.9733,185.994 80,176.5C 86.5407,164.58 93.7074,153.08 101.5,142C 105.834,141.1 110.168,140.266 114.5,139.5C 116.216,139.371 117.883,139.038 119.5,138.5C 120.8,139.108 122.133,139.775 123.5,140.5C 125.126,138.548 127.126,137.214 129.5,136.5C 129.238,135.022 129.571,133.689 130.5,132.5C 132.325,131.429 133.492,132.096 134,134.5C 136.077,131.802 135.577,129.635 132.5,128C 132.905,127.055 133.572,126.388 134.5,126C 133.02,124.701 132.354,123.034 132.5,121C 133.322,117.859 133.989,114.693 134.5,111.5C 135.5,111.5 136.5,111.5 137.5,111.5C 136.669,107.524 136.503,103.524 137,99.5C 138.049,98.4829 139.216,98.3162 140.5,99C 139.833,99.3333 139.167,99.6667 138.5,100C 140.317,101.8 141.484,103.966 142,106.5C 144.508,86.5201 145.008,66.5201 143.5,46.5C 145.649,42.7113 147.482,43.0446 149,47.5C 149.167,92.837 149.667,138.17 150.5,183.5C 151.182,184.243 151.849,184.909 152.5,185.5 Z"/></g>
<g><path style="opacity:0.176" fill="#a3c9c6" d="M 78.5,79.5 C 77.8826,79.6107 77.3826,79.944 77,80.5C 76.8294,89.0101 76.3294,97.3434 75.5,105.5C 75.3336,96.8269 75.5002,88.1603 76,79.5C 76.9772,78.2264 77.8106,78.2264 78.5,79.5 Z"/></g>
<g><path style="opacity:0.502" fill="#7ba8a5" d="M 136.5,90.5 C 136.813,87.7531 136.48,85.0865 135.5,82.5C 130.901,84.4548 126.567,86.7882 122.5,89.5C 124.313,85.6923 127.313,83.3589 131.5,82.5C 130.674,81.549 130.508,80.549 131,79.5C 132.789,81.229 134.956,81.8957 137.5,81.5C 137.81,84.7131 137.477,87.7131 136.5,90.5 Z"/></g>
<g><path style="opacity:1" fill="#35857a" d="M 78.5,79.5 C 77.8106,78.2264 76.9772,78.2264 76,79.5C 75.5002,88.1603 75.3336,96.8269 75.5,105.5C 74.2073,106.645 73.0407,106.311 72,104.5C 65.921,95.7807 63.921,86.114 66,75.5C 66.903,70.5245 68.403,65.8578 70.5,61.5C 72.3759,57.7646 74.5425,54.098 77,50.5C 78.604,52.9463 80.4373,55.2796 82.5,57.5C 83.6474,59.7649 83.8141,62.0982 83,64.5C 82,63.1667 81,63.1667 80,64.5C 79.7266,66.1012 79.2266,67.6012 78.5,69C 80.8713,69.7348 83.2046,70.5682 85.5,71.5C 86.2811,72.7287 86.7811,74.062 87,75.5C 87.3333,75.1667 87.6667,74.8333 88,74.5C 88.0027,78.4363 88.836,82.103 90.5,85.5C 89.7695,88.1092 89.2695,90.7759 89,93.5C 85.956,94.8029 84.7893,97.1362 85.5,100.5C 83.8333,100.5 82.1667,100.5 80.5,100.5C 81.1279,93.0869 80.4612,86.0869 78.5,79.5 Z"/></g>
<g><path style="opacity:0.999" fill="#35857a" d="M 129.5,86.5 C 130.833,86.5 132.167,86.5 133.5,86.5C 133.033,100.671 130.199,114.338 125,127.5C 120.129,134.687 113.296,138.354 104.5,138.5C 107.148,131.705 110.482,125.205 114.5,119C 114,118.5 113.5,118 113,117.5C 109.25,124.002 105.25,130.335 101,136.5C 99.0726,129.92 99.0726,123.254 101,116.5C 103.171,112.156 105.837,108.156 109,104.5C 115.73,98.2625 122.564,92.2625 129.5,86.5 Z"/></g>
<g><path style="opacity:1" fill="#2f8679" d="M 552.5,83.5 C 568.364,90.8802 578.198,103.214 582,120.5C 583.614,157.14 583.947,193.807 583,230.5C 577.579,231.156 572.079,231.489 566.5,231.5C 560.789,231.495 555.456,230.828 550.5,229.5C 551.138,225.573 551.971,221.573 553,217.5C 555.004,220.475 556.004,223.808 556,227.5C 557.011,228.337 558.178,228.67 559.5,228.5C 559.927,202.344 560.594,176.177 561.5,150C 560.258,149.689 559.258,150.189 558.5,151.5C 557.682,154.107 557.182,156.774 557,159.5C 556.667,155.833 556.333,152.167 556,148.5C 555.784,146.616 555.117,144.949 554,143.5C 553.883,159.327 554.05,175.16 554.5,191C 554.601,197.245 554.101,203.411 553,209.5C 552.833,182.161 552.333,154.827 551.5,127.5C 550.702,127.957 550.369,128.624 550.5,129.5C 548.069,119.065 541.736,112.065 531.5,108.5C 530.391,107.71 529.058,107.21 527.5,107C 526.663,105.989 526.33,104.822 526.5,103.5C 522.167,103.5 517.833,103.5 513.5,103.5C 513.261,101.533 513.594,99.6995 514.5,98C 517.305,97.5585 519.972,98.0585 522.5,99.5C 524.996,97.8636 527.496,96.1969 530,94.5C 531.28,94.6135 532.113,95.2801 532.5,96.5C 531.197,98.9371 529.53,101.104 527.5,103C 530.196,103.765 532.696,104.932 535,106.5C 537.737,105.44 540.57,104.606 543.5,104C 544.552,102.284 543.886,101.284 541.5,101C 543.937,99.6253 546.603,99.1253 549.5,99.5C 549.657,98.1266 549.49,96.7932 549,95.5C 546.963,93.5643 544.797,91.8976 542.5,90.5C 544.001,89.2485 545.668,88.2485 547.5,87.5C 548.429,86.3112 548.762,84.9778 548.5,83.5C 549.833,83.5 551.167,83.5 552.5,83.5 Z"/></g>
<g><path style="opacity:1" fill="#3f8a7f" d="M 19.5,85.5 C 32.8152,90.9734 43.6486,99.64 52,111.5C 56.3943,118.881 57.561,126.714 55.5,135C 54.365,135.749 53.365,135.583 52.5,134.5C 49.1982,128.701 45.6982,123.034 42,117.5C 41.5,118 41,118.5 40.5,119C 44.7123,124.943 48.2123,131.109 51,137.5C 36.8166,137.675 28.15,130.675 25,116.5C 22.0864,106.351 20.2531,96.018 19.5,85.5 Z"/></g>
<g><path style="opacity:0.137" fill="#73aea6" d="M 152.5,37.5 C 153.665,92.6652 153.832,147.998 153,203.5C 152.79,205.058 152.29,206.391 151.5,207.5C 152.302,200.196 152.635,192.862 152.5,185.5C 152.5,136.167 152.5,86.8333 152.5,37.5 Z"/></g>
<g><path style="opacity:0.075" fill="#beede4" d="M 631.5,119.5 C 631.46,122.881 631.793,126.214 632.5,129.5C 631.028,127.883 630.361,125.883 630.5,123.5C 630.511,121.955 630.844,120.622 631.5,119.5 Z"/></g>
<g><path style="opacity:1" fill="#33877c" d="M 552.5,83.5 C 551.167,83.5 549.833,83.5 548.5,83.5C 548.762,84.9778 548.429,86.3112 547.5,87.5C 545.668,88.2485 544.001,89.2485 542.5,90.5C 544.797,91.8976 546.963,93.5643 549,95.5C 549.49,96.7932 549.657,98.1266 549.5,99.5C 546.603,99.1253 543.937,99.6253 541.5,101C 543.886,101.284 544.552,102.284 543.5,104C 540.57,104.606 537.737,105.44 535,106.5C 532.696,104.932 530.196,103.765 527.5,103C 529.53,101.104 531.197,98.9371 532.5,96.5C 532.113,95.2801 531.28,94.6135 530,94.5C 527.496,96.1969 524.996,97.8636 522.5,99.5C 519.972,98.0585 517.305,97.5585 514.5,98C 513.594,99.6995 513.261,101.533 513.5,103.5C 517.833,103.5 522.167,103.5 526.5,103.5C 526.33,104.822 526.663,105.989 527.5,107C 529.058,107.21 530.391,107.71 531.5,108.5C 514.668,104.663 503.168,110.663 497,126.5C 495.527,161.451 495.027,196.451 495.5,231.5C 484.5,231.5 473.5,231.5 462.5,231.5C 462.234,180.847 462.067,130.181 462,79.5C 462.5,79 463,78.5 463.5,78C 473.5,77.3333 483.5,77.3333 493.5,78C 495.247,82.5314 496.08,87.3647 496,92.5C 501.812,84.5097 509.646,80.0097 519.5,79C 531.024,77.099 542.024,78.599 552.5,83.5 Z"/></g>
<g><path style="opacity:0.09" fill="#c0dad8" d="M 127.5,127.5 C 127.021,131.975 124.688,134.975 120.5,136.5C 123.246,133.762 125.58,130.762 127.5,127.5 Z"/></g>
<g><path style="opacity:0.58" fill="#85b7b2" d="M 96.5,123.5 C 96.4372,128.203 96.7705,132.87 97.5,137.5C 96.1952,135.603 95.5286,133.269 95.5,130.5C 95.5034,127.975 95.8367,125.641 96.5,123.5 Z"/></g>
<g><path style="opacity:0.071" fill="#baded6" d="M 120.5,136.5 C 120.167,137.167 119.833,137.833 119.5,138.5C 117.883,139.038 116.216,139.371 114.5,139.5C 116.181,137.992 118.181,136.992 120.5,136.5 Z"/></g>
<g><path style="opacity:0.961" fill="#74aea8" d="M 645.5,137.5 C 652.072,137.239 658.406,137.906 664.5,139.5C 660.958,139.38 657.458,139.714 654,140.5C 651.028,139.583 648.194,138.583 645.5,137.5 Z"/></g>
<g><path style="opacity:1" fill="#2f8c76" d="M 463.5,79.5 C 464.873,79.3433 466.207,79.51 467.5,80C 467,80.5 466.5,81 466,81.5C 465.191,129.185 465.358,176.851 466.5,224.5C 465.5,224.5 464.5,224.5 463.5,224.5C 463.5,176.167 463.5,127.833 463.5,79.5 Z"/></g>
<g><path style="opacity:0.192" fill="#a8d9d4" d="M 345.5,140.5 C 342.5,144.167 339.167,147.5 335.5,150.5C 337.833,146.167 341.167,142.833 345.5,140.5 Z"/></g>
<g><path style="opacity:0.176" fill="#accac9" d="M 75.5,110.5 C 76.8279,130.004 76.8279,149.671 75.5,169.5C 74.8933,169.376 74.56,169.043 74.5,168.5C 75.497,149.341 75.8303,130.007 75.5,110.5 Z"/></g>
<g><path style="opacity:1" fill="#30867a" d="M 631.5,119.5 C 630.844,120.622 630.511,121.955 630.5,123.5C 630.361,125.883 631.028,127.883 632.5,129.5C 636.074,133.451 640.407,136.118 645.5,137.5C 648.194,138.583 651.028,139.583 654,140.5C 657.458,139.714 660.958,139.38 664.5,139.5C 679.985,142.49 692.152,150.49 701,163.5C 705.859,174.674 706.693,186.007 703.5,197.5C 701.315,201.213 699.648,205.213 698.5,209.5C 686.376,225.309 670.209,232.976 650,232.5C 638.852,233.238 628.686,230.571 619.5,224.5C 619.815,222.774 619.981,221.107 620,219.5C 617.255,218.048 614.922,216.048 613,213.5C 611.391,209.289 609.557,205.289 607.5,201.5C 611.036,200.242 614.703,199.409 618.5,199C 619.267,197.53 619.933,196.03 620.5,194.5C 623.6,191.79 627.267,190.457 631.5,190.5C 632.548,194.719 635.215,197.553 639.5,199C 648.75,202.205 657.75,201.538 666.5,197C 672.987,192.052 674.653,185.885 671.5,178.5C 669.794,174.621 666.794,172.121 662.5,171C 660.866,170.506 659.199,170.34 657.5,170.5C 637.964,171.142 621.464,164.476 608,150.5C 593.788,126.146 597.288,104.646 618.5,86C 641.571,72.3594 664.904,72.0261 688.5,85C 694.765,89.2633 699.598,94.7633 703,101.5C 703.711,103.367 703.211,104.867 701.5,106C 693.261,109.119 685.261,112.786 677.5,117C 676.167,117.667 674.833,117.667 673.5,117C 668.401,110.398 661.567,107.231 653,107.5C 642.787,106.584 635.62,110.584 631.5,119.5 Z"/></g>
<g><path style="opacity:1" fill="#498f89" d="M 550.5,229.5 C 550.5,196.167 550.5,162.833 550.5,129.5C 550.369,128.624 550.702,127.957 551.5,127.5C 552.333,154.827 552.833,182.161 553,209.5C 554.101,203.411 554.601,197.245 554.5,191C 554.05,175.16 553.883,159.327 554,143.5C 555.117,144.949 555.784,146.616 556,148.5C 556.333,152.167 556.667,155.833 557,159.5C 557.182,156.774 557.682,154.107 558.5,151.5C 559.258,150.189 560.258,149.689 561.5,150C 560.594,176.177 559.927,202.344 559.5,228.5C 558.178,228.67 557.011,228.337 556,227.5C 556.004,223.808 555.004,220.475 553,217.5C 551.971,221.573 551.138,225.573 550.5,229.5 Z"/></g>
<g><path style="opacity:0.196" fill="#97bfba" d="M 222.5,170.5 C 229.321,169.345 236.321,169.179 243.5,170C 245.037,171.11 245.703,172.61 245.5,174.5C 244.636,173.312 243.636,172.145 242.5,171C 235.842,170.5 229.175,170.334 222.5,170.5 Z"/></g>
<g><path style="opacity:0.11" fill="#abd0cb" d="M 657.5,170.5 C 659.199,170.34 660.866,170.506 662.5,171C 666.794,172.121 669.794,174.621 671.5,178.5C 667.374,174.774 662.707,172.107 657.5,170.5 Z"/></g>
<g><path style="opacity:1" fill="#3c867e" d="M 187.5,221.5 C 187.5,162.833 187.5,104.167 187.5,45.5C 180.833,45.5 174.167,45.5 167.5,45.5C 167.5,44.8333 167.5,44.1667 167.5,43.5C 172.511,43.6659 177.511,43.4993 182.5,43C 184.569,42.6758 184.902,41.8425 183.5,40.5C 186.167,39.1667 188.833,39.1667 191.5,40.5C 186.37,42.767 186.703,44.4337 192.5,45.5C 191.745,102.828 191.245,160.161 191,217.5C 189.45,218.591 188.283,219.924 187.5,221.5 Z"/></g>
<g><path style="opacity:0.055" fill="#afd1cf" d="M 254.5,194.5 C 257.674,199.516 260.341,204.849 262.5,210.5C 258.793,205.753 256.126,200.419 254.5,194.5 Z"/></g>
<g><path style="opacity:0.125" fill="#9ec4c0" d="M 703.5,197.5 C 702.913,202.001 701.246,206.001 698.5,209.5C 699.648,205.213 701.315,201.213 703.5,197.5 Z"/></g>
<g><path style="opacity:1" fill="#408785" d="M 620.5,194.5 C 619.933,196.03 619.267,197.53 618.5,199C 614.703,199.409 611.036,200.242 607.5,201.5C 609.557,205.289 611.391,209.289 613,213.5C 614.922,216.048 617.255,218.048 620,219.5C 619.981,221.107 619.815,222.774 619.5,224.5C 611.416,219.747 605.416,213.08 601.5,204.5C 607.426,200.412 613.759,197.079 620.5,194.5 Z"/></g>
<g><path style="opacity:1" fill="#39887d" d="M 723.5,179.5 C 737.695,177.157 748.195,182.157 755,194.5C 757.443,203.757 756.776,212.757 753,221.5C 744.585,231.08 734.085,234.246 721.5,231C 706.053,223.609 700.886,211.776 706,195.5C 709.503,187.492 715.336,182.159 723.5,179.5 Z M 720.5,218.5 C 719.5,218.5 718.5,218.5 717.5,218.5C 717.5,212.833 717.5,207.167 717.5,201.5C 718.5,201.5 719.5,201.5 720.5,201.5C 720.5,207.167 720.5,212.833 720.5,218.5 Z M 717.5,194.5 C 718.675,194.281 719.675,194.614 720.5,195.5C 718.948,196.798 717.948,196.465 717.5,194.5 Z M 742.5,193.5 C 742.574,202.014 742.574,210.347 742.5,218.5C 738.566,218.17 734.566,218.003 730.5,218C 727.323,213.587 726.656,208.753 728.5,203.5C 731.215,201.877 734.215,201.21 737.5,201.5C 730.691,203.398 728.524,207.731 731,214.5C 734,218.5 737,218.5 740,214.5C 741.008,210.229 740.508,206.229 738.5,202.5C 738.863,201.817 739.196,201.15 739.5,200.5C 739.917,197.841 740.917,195.508 742.5,193.5 Z"/></g>
<g><path style="opacity:0.249" fill="#90bcb6" d="M 720.5,218.5 C 720.5,212.833 720.5,207.167 720.5,201.5C 719.5,201.5 718.5,201.5 717.5,201.5C 717.5,207.167 717.5,212.833 717.5,218.5C 716.51,212.69 716.177,206.69 716.5,200.5C 718.167,200.5 719.833,200.5 721.5,200.5C 721.823,206.69 721.49,212.69 720.5,218.5 Z M 720.5,218.5 C 719.5,218.5 718.5,218.5 717.5,218.5C 717.5,212.833 717.5,207.167 717.5,201.5C 718.5,201.5 719.5,201.5 720.5,201.5C 720.5,207.167 720.5,212.833 720.5,218.5 Z"/></g>
<g><path style="opacity:0.008" fill="#d4edea" d="M 737.5,201.5 C 734.215,201.21 731.215,201.877 728.5,203.5C 728.953,202.542 729.619,201.708 730.5,201C 733.039,200.204 735.372,200.371 737.5,201.5 Z"/></g>
<g><path style="opacity:0.016" fill="#baf5f1" d="M 742.5,193.5 C 740.917,195.508 739.917,197.841 739.5,200.5C 739.5,197.833 739.5,195.167 739.5,192.5C 740.791,192.263 741.791,192.596 742.5,193.5 Z"/></g>
<g><path style="opacity:1" fill="#36847a" d="M 151.5,257.5 C 155.5,257.5 159.5,257.5 163.5,257.5C 163.5,260.5 163.5,263.5 163.5,266.5C 159.5,266.5 155.5,266.5 151.5,266.5C 150.167,263.5 150.167,260.5 151.5,257.5 Z"/></g>
<g><path style="opacity:0.304" fill="#91bab9" d="M 151.5,257.5 C 155.634,256.515 159.968,256.182 164.5,256.5C 164.5,260.167 164.5,263.833 164.5,267.5C 159.968,267.818 155.634,267.485 151.5,266.5C 155.5,266.5 159.5,266.5 163.5,266.5C 163.5,263.5 163.5,260.5 163.5,257.5C 159.5,257.5 155.5,257.5 151.5,257.5 Z"/></g>
<g><path style="opacity:1" fill="#3b877e" d="M 92.5,256.5 C 96.5705,256.234 100.571,256.567 104.5,257.5C 105.666,274.157 105.833,290.823 105,307.5C 100.934,308.464 96.7675,308.797 92.5,308.5C 92.5,291.167 92.5,273.833 92.5,256.5 Z"/></g>
<g><path style="opacity:0.239" fill="#7bb3af" d="M 46.5,259.5 C 47.1664,267.493 47.4997,275.66 47.5,284C 47.4979,292.528 46.8312,300.695 45.5,308.5C 46.4845,292.244 46.8178,275.911 46.5,259.5 Z"/></g>
<g><path style="opacity:0.043" fill="#8bb0ad" d="M 324.5,271.5 C 321.167,271.5 317.833,271.5 314.5,271.5C 314.737,272.791 314.404,273.791 313.5,274.5C 312.347,273.687 312.347,272.687 313.5,271.5C 317.315,270.192 320.981,270.192 324.5,271.5 Z"/></g>
<g><path style="opacity:0.376" fill="#84b3b0" d="M 482.5,257.5 C 482.5,262.5 482.5,267.5 482.5,272.5C 477.167,272.5 471.833,272.5 466.5,272.5C 471.133,269.438 475.967,269.104 481,271.5C 481.174,266.649 481.674,261.982 482.5,257.5 Z"/></g>
<g><path style="opacity:0.235" fill="#8abbb4" d="M 74.5,270.5 C 82.5627,270.564 87.2293,274.564 88.5,282.5C 87.7784,282.082 87.2784,281.416 87,280.5C 86.6667,280.833 86.3333,281.167 86,281.5C 86.0527,278.387 84.886,275.887 82.5,274C 79.8421,272.522 77.1755,271.355 74.5,270.5 Z"/></g>
<g><path style="opacity:0.122" fill="#a0c1bf" d="M 135.5,270.5 C 131.452,270.84 127.785,272.173 124.5,274.5C 123.893,274.376 123.56,274.043 123.5,273.5C 127.23,270.694 131.23,269.694 135.5,270.5 Z"/></g>
<g><path style="opacity:0.995" fill="#358379" d="M 442.5,307.5 C 442.666,299.16 442.5,290.827 442,282.5C 439.643,280.354 437.143,280.021 434.5,281.5C 433.695,290.089 433.195,298.756 433,307.5C 428.934,308.464 424.767,308.797 420.5,308.5C 419.744,296.007 419.744,283.674 420.5,271.5C 424.122,270.341 427.789,270.175 431.5,271C 432.333,271.833 433.167,272.667 434,273.5C 439.228,269.45 444.728,268.95 450.5,272C 452.041,273.579 453.208,275.413 454,277.5C 454.5,287.828 454.666,298.161 454.5,308.5C 450.298,308.817 446.298,308.483 442.5,307.5 Z"/></g>
<g><path style="opacity:0.306" fill="#96c6c0" d="M 163.5,271.5 C 159.833,271.5 156.167,271.5 152.5,271.5C 152.187,283.913 152.521,296.247 153.5,308.5C 151.52,296.211 150.853,283.544 151.5,270.5C 155.702,270.183 159.702,270.517 163.5,271.5 Z"/></g>
<g><path style="opacity:1" fill="#2d7f76" d="M 338.5,279.5 C 338.5,280.5 338.5,281.5 338.5,282.5C 334.629,282.185 330.962,282.518 327.5,283.5C 325.741,291.571 324.908,299.905 325,308.5C 321.379,308.642 317.545,308.642 313.5,308.5C 313.392,297.254 313.392,285.92 313.5,274.5C 314.404,273.791 314.737,272.791 314.5,271.5C 317.833,271.5 321.167,271.5 324.5,271.5C 325.268,272.263 325.768,273.263 326,274.5C 329.452,271.903 333.286,270.737 337.5,271C 338.444,273.719 338.777,276.552 338.5,279.5 Z"/></g>
<g><path style="opacity:1" fill="#2b7f75" d="M 18.5,276.5 C 23.6405,277.488 28.9738,277.821 34.5,277.5C 34.2114,271.409 34.5447,265.409 35.5,259.5C 39.3008,258.285 42.9674,258.285 46.5,259.5C 46.8178,275.911 46.4845,292.244 45.5,308.5C 42.8333,308.5 40.1667,308.5 37.5,308.5C 36.791,307.596 35.791,307.263 34.5,307.5C 34.5,300.5 34.5,293.5 34.5,286.5C 28.9738,286.179 23.6405,286.512 18.5,287.5C 18.8306,294.863 18.4973,302.197 17.5,309.5C 13.5328,309.769 9.53275,309.436 5.5,308.5C 5.81778,292.785 5.48445,277.119 4.5,261.5C 4.97665,260.522 5.64332,259.689 6.5,259C 10.4862,258.501 14.4862,258.334 18.5,258.5C 18.5,264.5 18.5,270.5 18.5,276.5 Z"/></g>
<g><path style="opacity:0.129" fill="#93bcba" d="M 35.5,259.5 C 34.5447,265.409 34.2114,271.409 34.5,277.5C 28.9738,277.821 23.6405,277.488 18.5,276.5C 23.5,276.5 28.5,276.5 33.5,276.5C 32.8833,270.402 33.55,264.735 35.5,259.5 Z"/></g>
<g><path style="opacity:1" fill="#33847a" d="M 74.5,270.5 C 77.1755,271.355 79.8421,272.522 82.5,274C 84.886,275.887 86.0527,278.387 86,281.5C 86.3333,281.167 86.6667,280.833 87,280.5C 87.2784,281.416 87.7784,282.082 88.5,282.5C 89.8333,285.833 89.8333,289.167 88.5,292.5C 80.5,292.5 72.5,292.5 64.5,292.5C 64.2627,293.791 64.596,294.791 65.5,295.5C 67.9584,298.307 71.1251,299.641 75,299.5C 79.3965,298.885 83.5632,297.552 87.5,295.5C 87.9843,299.827 87.3177,303.827 85.5,307.5C 81.7773,308.997 77.7773,309.663 73.5,309.5C 70.6445,309.497 67.9779,309.164 65.5,308.5C 65.6107,307.883 65.944,307.383 66.5,307C 63.3669,307.046 60.7002,306.046 58.5,304C 58.8333,303.667 59.1667,303.333 59.5,303C 55.3092,301.811 53.1425,298.977 53,294.5C 52.5017,291.183 52.335,287.85 52.5,284.5C 52.9713,279.53 55.3047,275.696 59.5,273C 64.3724,270.252 69.3724,269.419 74.5,270.5 Z M 67.5,279.5 C 71.8108,278.536 74.8108,280.036 76.5,284C 72.8484,284.499 69.1817,284.665 65.5,284.5C 65.3915,282.486 66.0582,280.82 67.5,279.5 Z"/></g>
<g><path style="opacity:1" fill="#277f75" d="M 163.5,271.5 C 163.5,283.5 163.5,295.5 163.5,307.5C 161.585,307.216 159.919,307.549 158.5,308.5C 156.833,308.5 155.167,308.5 153.5,308.5C 152.521,296.247 152.187,283.913 152.5,271.5C 156.167,271.5 159.833,271.5 163.5,271.5 Z"/></g>
<g><path style="opacity:1" fill="#37857c" d="M 349.5,308.5 C 345.544,306.212 342.211,303.212 339.5,299.5C 338.596,298.791 338.263,297.791 338.5,296.5C 338.375,290.797 338.708,285.13 339.5,279.5C 343.198,272.726 349.032,269.393 357,269.5C 369.973,270.14 376.473,276.973 376.5,290C 376.483,303.017 369.983,309.85 357,310.5C 354.393,309.877 351.893,309.21 349.5,308.5 Z M 356.5,279.5 C 359.112,280.277 360.945,281.944 362,284.5C 362.499,288.152 362.665,291.818 362.5,295.5C 360.608,299.168 357.608,300.335 353.5,299C 349.733,293.286 349.566,287.453 353,281.5C 354.302,280.915 355.469,280.249 356.5,279.5 Z"/></g>
<g><path style="opacity:0.09" fill="#c6e5e4" d="M 413.5,271.5 C 414.495,283.655 414.829,295.989 414.5,308.5C 409.968,308.818 405.634,308.485 401.5,307.5C 405.5,307.5 409.5,307.5 413.5,307.5C 413.5,295.5 413.5,283.5 413.5,271.5 Z"/></g>
<g><path style="opacity:1" fill="#36857c" d="M 294.5,299.5 C 290.019,298.352 285.352,298.185 280.5,299C 279.62,300.356 279.286,301.856 279.5,303.5C 279.579,304.93 279.246,306.264 278.5,307.5C 274.031,309.447 269.364,309.78 264.5,308.5C 269.358,292.426 274.525,276.426 280,260.5C 285.117,257.963 290.284,257.963 295.5,260.5C 301.447,276.342 306.781,292.342 311.5,308.5C 306.821,308.666 302.155,308.499 297.5,308C 296.202,305.273 295.202,302.44 294.5,299.5 Z M 287.5,278.5 C 289.277,281.505 290.277,284.838 290.5,288.5C 288.396,288.799 286.396,288.466 284.5,287.5C 285.801,284.573 286.801,281.573 287.5,278.5 Z"/></g>
<g><path style="opacity:0.423" fill="#82a9a8" d="M 171.5,271.5 C 171.187,283.913 171.521,296.247 172.5,308.5C 171.17,302.705 170.504,296.538 170.5,290C 170.5,283.657 170.834,277.491 171.5,271.5 Z"/></g>
<g><path style="opacity:1" fill="#35857c" d="M 184.5,282.5 C 182.53,290.769 181.864,299.435 182.5,308.5C 179.167,308.5 175.833,308.5 172.5,308.5C 171.521,296.247 171.187,283.913 171.5,271.5C 174.976,270.357 178.642,270.19 182.5,271C 183.126,271.75 183.626,272.584 184,273.5C 190.333,268.167 196.667,268.167 203,273.5C 204.562,275.957 205.562,278.624 206,281.5C 206.667,290.167 206.667,298.833 206,307.5C 201.599,308.467 197.099,308.8 192.5,308.5C 192.666,300.16 192.5,291.827 192,283.5C 189.758,281.285 187.258,280.952 184.5,282.5 Z"/></g>
<g><path style="opacity:0.212" fill="#a6d2cc" d="M 18.5,287.5 C 23.6405,286.512 28.9738,286.179 34.5,286.5C 34.5,293.5 34.5,300.5 34.5,307.5C 35.791,307.263 36.791,307.596 37.5,308.5C 36.1667,308.5 34.8333,308.5 33.5,308.5C 33.5,301.5 33.5,294.5 33.5,287.5C 28.5,287.5 23.5,287.5 18.5,287.5 Z"/></g>
<g><path style="opacity:0.085" fill="#a5cecb" d="M 356.5,279.5 C 359.52,278.779 361.686,280.112 363,283.5C 363.812,287.689 363.645,291.689 362.5,295.5C 362.665,291.818 362.499,288.152 362,284.5C 360.945,281.944 359.112,280.277 356.5,279.5 Z"/></g>
<g><path style="opacity:0.024" fill="#cef5f4" d="M 434.5,281.5 C 437.143,280.021 439.643,280.354 442,282.5C 442.5,290.827 442.666,299.16 442.5,307.5C 441.671,299.677 441.171,291.677 441,283.5C 439.211,281.771 437.044,281.104 434.5,281.5 Z"/></g>
<g><path style="opacity:1" fill="#31837a" d="M 231.5,308.5 C 232.404,307.791 232.737,306.791 232.5,305.5C 228.5,306.167 224.5,306.833 220.5,307.5C 211.801,304.796 208.134,298.796 209.5,289.5C 209.533,274.109 216.866,268.109 231.5,271.5C 236.031,270.189 240.531,270.189 245,271.5C 245.667,284.167 245.667,296.833 245,309.5C 241.882,319.071 235.216,323.404 225,322.5C 221.097,322.485 217.264,321.985 213.5,321C 212.544,317.606 212.211,314.106 212.5,310.5C 216.393,310.764 220.226,311.431 224,312.5C 227.252,312.376 229.752,311.042 231.5,308.5 Z M 225.5,280.5 C 227.792,280.244 229.959,280.577 232,281.5C 232.499,286.155 232.666,290.821 232.5,295.5C 228.222,298.649 224.722,297.982 222,293.5C 220.668,288.415 221.835,284.081 225.5,280.5 Z"/></g>
<g><path style="opacity:0.125" fill="#b3d9d7" d="M 225.5,280.5 C 227.895,279.186 230.395,279.186 233,280.5C 233.816,285.684 233.65,290.684 232.5,295.5C 232.666,290.821 232.499,286.155 232,281.5C 229.959,280.577 227.792,280.244 225.5,280.5 Z"/></g>
<g><path style="opacity:0.192" fill="#94bfba" d="M 379.5,271.5 C 379.334,280.839 379.5,290.173 380,299.5C 380.837,303.157 382.67,306.157 385.5,308.5C 381.743,307.233 379.576,304.566 379,300.5C 378.175,290.658 378.342,280.991 379.5,271.5 Z"/></g>
<g><path style="opacity:0.078" fill="#bde5e3" d="M 338.5,279.5 C 338.833,279.5 339.167,279.5 339.5,279.5C 338.708,285.13 338.375,290.797 338.5,296.5C 337.515,292.366 337.182,288.032 337.5,283.5C 334.167,283.5 330.833,283.5 327.5,283.5C 330.962,282.518 334.629,282.185 338.5,282.5C 338.5,281.5 338.5,280.5 338.5,279.5 Z"/></g>
<g><path style="opacity:0.051" fill="#aed5d5" d="M 88.5,292.5 C 80.6125,292.847 72.9458,293.847 65.5,295.5C 64.596,294.791 64.2627,293.791 64.5,292.5C 72.5,292.5 80.5,292.5 88.5,292.5 Z"/></g>
<g><path style="opacity:0.183" fill="#a5d4d3" d="M 184.5,282.5 C 183.86,291.266 183.193,299.932 182.5,308.5C 181.864,299.435 182.53,290.769 184.5,282.5 Z"/></g>
<g><path style="opacity:0.047" fill="#b2d4d2" d="M 570.5,293.5 C 574.263,293.857 577.93,294.69 581.5,296C 582.791,297.292 582.791,298.458 581.5,299.5C 581.586,298.504 581.252,297.671 580.5,297C 576.948,296.122 573.614,294.956 570.5,293.5 Z"/></g>
<g><path style="opacity:0.165" fill="#96bcbb" d="M 163.5,271.5 C 164.495,283.655 164.829,295.989 164.5,308.5C 162.5,308.5 160.5,308.5 158.5,308.5C 159.919,307.549 161.585,307.216 163.5,307.5C 163.5,295.5 163.5,283.5 163.5,271.5 Z"/></g>
<g><path style="opacity:1" fill="#38877e" d="M 123.5,273.5 C 123.56,274.043 123.893,274.376 124.5,274.5C 127.785,272.173 131.452,270.84 135.5,270.5C 140.444,270.602 143.944,272.935 146,277.5C 148.247,285.963 147.913,294.296 145,302.5C 139.23,309.166 132.063,311.333 123.5,309C 123.679,313.349 123.679,317.849 123.5,322.5C 119.233,322.797 115.066,322.464 111,321.5C 110.167,304.823 110.334,288.157 111.5,271.5C 115.429,270.567 119.429,270.234 123.5,270.5C 123.5,271.5 123.5,272.5 123.5,273.5 Z M 126.5,280.5 C 129.325,280.081 131.491,281.081 133,283.5C 133.822,286.117 134.322,288.784 134.5,291.5C 133.728,297.968 130.228,300.301 124,298.5C 123.333,293.167 123.333,287.833 124,282.5C 124.995,281.934 125.828,281.267 126.5,280.5 Z"/></g>
<g><path style="opacity:0.188" fill="#a9d4ce" d="M 126.5,280.5 C 129.43,278.926 131.93,279.592 134,282.5C 135.351,285.623 135.518,288.623 134.5,291.5C 134.322,288.784 133.822,286.117 133,283.5C 131.491,281.081 129.325,280.081 126.5,280.5 Z"/></g>
<g><path style="opacity:1" fill="#318379" d="M 413.5,271.5 C 413.5,283.5 413.5,295.5 413.5,307.5C 409.5,307.5 405.5,307.5 401.5,307.5C 401.565,307.062 401.399,306.728 401,306.5C 396.034,309.539 390.867,310.206 385.5,308.5C 382.67,306.157 380.837,303.157 380,299.5C 379.5,290.173 379.334,280.839 379.5,271.5C 383.351,270.191 387.351,270.191 391.5,271.5C 392.14,280.139 392.807,288.805 393.5,297.5C 396.201,298.869 398.701,298.536 401,296.5C 401.5,287.84 401.666,279.173 401.5,270.5C 405.702,270.183 409.702,270.517 413.5,271.5 Z"/></g>
<g><path style="opacity:1" fill="#388379" d="M 598.5,294.5 C 602.833,294.5 607.167,294.5 611.5,294.5C 611.5,299.167 611.5,303.833 611.5,308.5C 607.167,308.5 602.833,308.5 598.5,308.5C 598.5,303.833 598.5,299.167 598.5,294.5 Z"/></g>
<g><path style="opacity:0.086" fill="#b1dad5" d="M 294.5,299.5 C 290.154,299.334 285.821,299.501 281.5,300C 280.915,301.302 280.249,302.469 279.5,303.5C 279.286,301.856 279.62,300.356 280.5,299C 285.352,298.185 290.019,298.352 294.5,299.5 Z"/></g>
<g><path style="opacity:1" fill="#34847b" d="M 465.5,307.5 C 461.631,303.536 459.298,298.869 458.5,293.5C 457.254,287.224 458.42,281.224 462,275.5C 463.129,273.859 464.629,272.859 466.5,272.5C 471.833,272.5 477.167,272.5 482.5,272.5C 482.5,267.5 482.5,262.5 482.5,257.5C 486.566,256.178 490.733,256.178 495,257.5C 495.5,274.497 495.667,291.497 495.5,308.5C 490.615,308.752 485.781,308.419 481,307.5C 476.342,309.439 471.509,309.939 466.5,309C 465.944,308.617 465.611,308.117 465.5,307.5 Z M 475.5,280.5 C 477.5,280.5 479.5,280.5 481.5,280.5C 481.789,286.591 481.455,292.591 480.5,298.5C 476.267,300.301 473.433,298.968 472,294.5C 470.744,289.142 471.911,284.476 475.5,280.5 Z"/></g>
<g><path style="opacity:0.047" fill="#8cbebc" d="M 475.5,280.5 C 477.607,279.532 479.941,279.198 482.5,279.5C 483.123,286.255 482.456,292.588 480.5,298.5C 481.455,292.591 481.789,286.591 481.5,280.5C 479.5,280.5 477.5,280.5 475.5,280.5 Z"/></g>
<g><path style="opacity:0.141" fill="#cae7e7" d="M 87.5,295.5 C 88.4834,299.298 88.8168,303.298 88.5,307.5C 87.5,307.5 86.5,307.5 85.5,307.5C 87.3177,303.827 87.9843,299.827 87.5,295.5 Z"/></g>
<g><path style="opacity:0.016" fill="#c2e5e6" d="M 339.5,299.5 C 342.211,303.212 345.544,306.212 349.5,308.5C 344.245,307.576 340.912,304.576 339.5,299.5 Z"/></g>
<g><path style="opacity:0.094" fill="#b7ddd9" d="M 458.5,293.5 C 459.298,298.869 461.631,303.536 465.5,307.5C 460.157,304.538 457.823,299.871 458.5,293.5 Z"/></g>
<g><path style="opacity:1" fill="#39867d" d="M 545.5,291.5 C 545.881,280.758 546.881,270.091 548.5,259.5C 552.15,258.325 555.817,258.325 559.5,259.5C 559.903,272.885 559.403,286.218 558,299.5C 553.855,307.157 547.355,310.491 538.5,309.5C 529.239,310.622 522.739,306.955 519,298.5C 518.333,285.5 518.333,272.5 519,259.5C 523.453,258.324 527.953,258.324 532.5,259.5C 532.333,271.171 532.5,282.838 533,294.5C 535.053,298.292 538.219,299.458 542.5,298C 544.171,296.157 545.171,293.991 545.5,291.5 Z"/></g>
<g><path style="opacity:0.024" fill="#d2fcfb" d="M 548.5,259.5 C 546.881,270.091 545.881,280.758 545.5,291.5C 545.5,280.833 545.5,270.167 545.5,259.5C 546.5,259.5 547.5,259.5 548.5,259.5 Z"/></g>
<g><path style="opacity:1" fill="#36857c" d="M 585.5,308.5 C 578.798,308.664 572.131,308.331 565.5,307.5C 564.504,307.586 563.671,307.252 563,306.5C 562.501,302.848 562.335,299.182 562.5,295.5C 567.089,297.642 571.922,299.308 577,300.5C 578.44,299.852 579.94,299.519 581.5,299.5C 582.791,298.458 582.791,297.292 581.5,296C 577.93,294.69 574.263,293.857 570.5,293.5C 565.188,291.915 562.522,288.248 562.5,282.5C 563.136,276.361 566.47,272.528 572.5,271C 579.122,269.484 585.788,269.818 592.5,272C 593.894,272.956 594.561,274.289 594.5,276C 593.841,278.462 593.507,280.962 593.5,283.5C 589.404,282.04 585.237,280.707 581,279.5C 579.188,279.493 577.688,280.16 576.5,281.5C 576.709,282.086 577.043,282.586 577.5,283C 581.891,284.181 586.224,285.514 590.5,287C 596.111,292.042 596.944,297.875 593,304.5C 590.843,306.495 588.343,307.828 585.5,308.5 Z"/></g>
<g><path style="opacity:0.69" fill="#86b7b4" d="M 231.5,308.5 C 231.631,307.761 231.464,307.094 231,306.5C 227.517,308.504 224.017,308.837 220.5,307.5C 224.5,306.833 228.5,306.167 232.5,305.5C 232.737,306.791 232.404,307.791 231.5,308.5 Z"/></g>
<g><path style="opacity:0.929" fill="#76aba7" d="M 52.5,284.5 C 52.335,287.85 52.5017,291.183 53,294.5C 53.1425,298.977 55.3092,301.811 59.5,303C 59.1667,303.333 58.8333,303.667 58.5,304C 60.7002,306.046 63.3669,307.046 66.5,307C 65.944,307.383 65.6107,307.883 65.5,308.5C 55.7943,306.279 51.1277,300.113 51.5,290C 51.5056,287.967 51.8389,286.134 52.5,284.5 Z"/></g>
<g><path style="opacity:0.145" fill="#bbe5df" d="M 565.5,307.5 C 572.131,308.331 578.798,308.664 585.5,308.5C 582.854,309.164 580.021,309.498 577,309.5C 572.867,309.714 569.034,309.048 565.5,307.5 Z"/></g>
</svg>
