<?xml version="1.0" encoding="UTF-8"?>
<svg version="1.1" xmlns="http://www.w3.org/2000/svg" width="160" height="160">
<path d="M0 0 C9.73262764 7.88039747 18.12447408 20.73321675 19.6328125 33.328125 C21.06080772 53.4853679 19.88785532 71.93269561 6.6328125 88.1015625 C-4.0200885 99.96123744 -16.74927516 107.29809134 -32.8125 108.609375 C-50.15524216 109.066766 -63.79312906 103.01933985 -76.42578125 91.44140625 C-84.82279008 82.84797616 -91.32565421 70.37295355 -92.3671875 58.328125 C-92.43518555 57.69181152 -92.50318359 57.05549805 -92.57324219 56.39990234 C-94.44327067 38.3896499 -91.76264676 23.03313752 -80.7421875 8.140625 C-59.99374531 -16.34804871 -25.39633299 -17.93668403 0 0 Z M-76.3671875 9.328125 C-87.25640743 22.88979085 -88.3671875 33.50064168 -88.3671875 51.328125 C-75.1671875 51.328125 -61.9671875 51.328125 -48.3671875 51.328125 C-46.15636899 45.74976202 -46.15636899 45.74976202 -46.3671875 41.328125 C-47.63175781 41.03808594 -47.63175781 41.03808594 -48.921875 40.7421875 C-50.01757812 40.48179688 -51.11328125 40.22140625 -52.2421875 39.953125 C-53.33273438 39.69789062 -54.42328125 39.44265625 -55.546875 39.1796875 C-58.3671875 38.328125 -58.3671875 38.328125 -60.3671875 36.328125 C-61.06691634 30.53037172 -60.32268021 26.97079679 -56.99609375 22.15625 C-52.44508478 17.04864281 -46.9523219 14.6004702 -40.23046875 14.08984375 C-30.96907206 13.8962612 -25.1765886 15.19155906 -17.4921875 20.203125 C-13.84441481 23.85089769 -12.21161749 27.39389691 -11.9296875 32.515625 C-12.3671875 36.328125 -12.3671875 36.328125 -14.06640625 37.9921875 C-16.62400593 39.47724538 -18.71012491 40.01836429 -21.6171875 40.515625 C-22.50921875 40.67417969 -23.40125 40.83273438 -24.3203125 40.99609375 C-24.99578125 41.10566406 -25.67125 41.21523437 -26.3671875 41.328125 C-26.2228125 42.606875 -26.0784375 43.885625 -25.9296875 45.203125 C-25.84847656 45.92242187 -25.76726562 46.64171875 -25.68359375 47.3828125 C-25.45425789 49.40216816 -25.45425789 49.40216816 -24.3671875 51.328125 C-11.1671875 51.328125 2.0328125 51.328125 15.6328125 51.328125 C15.6328125 33.37319524 14.33752939 21.16129734 2.44921875 7.890625 C-8.95667264 -3.19687533 -22.75250137 -8.09887943 -38.42773438 -8.03759766 C-52.9775115 -7.71341006 -66.45563609 -1.33972953 -76.3671875 9.328125 Z " fill="#114924" transform="translate(116.3671875,31.671875)"/>
<path d="M0 0 C2.83727325 -0.26667539 5.45383045 -0.34791234 8.2890625 -0.29296875 C9.10748627 -0.28872391 9.92591003 -0.28447906 10.76913452 -0.28010559 C13.38808836 -0.26328679 16.00627802 -0.22562974 18.625 -0.1875 C20.3984264 -0.17245726 22.17186484 -0.15876814 23.9453125 -0.14648438 C28.2971703 -0.11337292 32.64845551 -0.06156952 37 0 C37 0.33 37 0.66 37 1 C32.05 1.33 27.1 1.66 22 2 C22.495 4.475 22.495 4.475 23 7 C24.32 7 25.64 7 27 7 C28.75 9.5 28.75 9.5 30 12 C30.33 10.35 30.66 8.7 31 7 C31.99 7.33 32.98 7.66 34 8 C33.67 12.29 33.34 16.58 33 21 C31.68 21.33 30.36 21.66 29 22 C28.67 21.67 28.34 21.34 28 21 C25.32941149 20.85884839 22.67567762 20.95752893 20 21 C19.505 19.02 19.505 19.02 19 17 C17.68 17 16.36 17 15 17 C15 17.99 15 18.98 15 20 C12.69 20 10.38 20 8 20 C7.34 18.68 6.68 17.36 6 16 C6 17.32 6 18.64 6 20 C3.03 20.495 3.03 20.495 0 21 C-0.33 22.32 -0.66 23.64 -1 25 C0.65 25 2.3 25 4 25 C4 27.64 4 30.28 4 33 C1.03 32.505 1.03 32.505 -2 32 C-2.33 32.99 -2.66 33.98 -3 35 C-3.66 35 -4.32 35 -5 35 C-5.33 35.99 -5.66 36.98 -6 38 C-7.84765625 38.73046875 -7.84765625 38.73046875 -10.0625 39.1875 C-10.79597656 39.34605469 -11.52945313 39.50460938 -12.28515625 39.66796875 C-12.85105469 39.77753906 -13.41695312 39.88710937 -14 40 C-13.67 40.66 -13.34 41.32 -13 42 C-12.67 41.34 -12.34 40.68 -12 40 C-11.34 40 -10.68 40 -10 40 C-10 42.31 -10 44.62 -10 47 C-10.66 47 -11.32 47 -12 47 C-12 47.66 -12 48.32 -12 49 C-12.66 49 -13.32 49 -14 49 C-13.67 49.66 -13.34 50.32 -13 51 C-12.01 51 -11.02 51 -10 51 C-9.01 51.495 -9.01 51.495 -8 52 C-8.33 52.99 -8.66 53.98 -9 55 C-13.29 55 -17.58 55 -22 55 C-21.01 53.68 -20.02 52.36 -19 51 C-18.67 50.01 -18.34 49.02 -18 48 C-20.64 48 -23.28 48 -26 48 C-26 47.34 -26 46.68 -26 46 C-27.65 45.67 -29.3 45.34 -31 45 C-31.33 46.98 -31.66 48.96 -32 51 C-31.01 51 -30.02 51 -29 51 C-29 51.66 -29 52.32 -29 53 C-32.9492568 52.44894091 -36.34920174 51.61064629 -40 50 C-40.1875 47.125 -40.1875 47.125 -40 44 C-39.01 43.34 -38.02 42.68 -37 42 C-37.99 42 -38.98 42 -40 42 C-39.34 40.02 -38.68 38.04 -38 36 C-37.34 36 -36.68 36 -36 36 C-35.67 36.66 -35.34 37.32 -35 38 C-33.515 37.505 -33.515 37.505 -32 37 C-32 37.99 -32 38.98 -32 40 C-30.29115995 38.37660195 -28.62553283 36.70680947 -27 35 C-27 34.34 -27 33.68 -27 33 C-27.66 33 -28.32 33 -29 33 C-29 32.34 -29 31.68 -29 31 C-31.31 31.33 -33.62 31.66 -36 32 C-36.33 32.99 -36.66 33.98 -37 35 C-37.9793879 36.02019573 -38.97895449 37.02149805 -40 38 C-40.33 38.66 -40.66 39.32 -41 40 C-41.66 40 -42.32 40 -43 40 C-42.86722656 39.41992188 -42.73445313 38.83984375 -42.59765625 38.2421875 C-41.60295999 33.84229018 -40.68631668 29.46105842 -40 25 C-38.35 25.33 -36.7 25.66 -35 26 C-35 26.99 -35 27.98 -35 29 C-34.34 28.01 -33.68 27.02 -33 26 C-32.01 26.33 -31.02 26.66 -30 27 C-30 27.66 -30 28.32 -30 29 C-29.01 29 -28.02 29 -27 29 C-27 27.68 -27 26.36 -27 25 C-25 25 -23 25 -21 25 C-20.67 24.01 -20.34 23.02 -20 22 C-19.01 22.33 -18.02 22.66 -17 23 C-14.38901957 22.76129575 -14.38901957 22.76129575 -12 22 C-11.67 21.34 -11.34 20.68 -11 20 C-11.99 20 -12.98 20 -14 20 C-14.33 18.68 -14.66 17.36 -15 16 C-15.33 17.32 -15.66 18.64 -16 20 C-16.66 20 -17.32 20 -18 20 C-18.66 18.35 -19.32 16.7 -20 15 C-20 16.65 -20 18.3 -20 20 C-20.99 19.67 -21.98 19.34 -23 19 C-23 15.04 -23 11.08 -23 7 C-21.68 7 -20.36 7 -19 7 C-18.34 8.65 -17.68 10.3 -17 12 C-16.566875 11.175 -16.13375 10.35 -15.6875 9.5 C-15.130625 8.675 -14.57375 7.85 -14 7 C-13.01 7 -12.02 7 -11 7 C-11 10.96 -11 14.92 -11 19 C-10.01 19 -9.02 19 -8 19 C-8.33 18.67 -8.66 18.34 -9 18 C-9.07226502 16.14712498 -9.0838122 14.29166122 -9.0625 12.4375 C-9.05347656 11.42558594 -9.04445312 10.41367188 -9.03515625 9.37109375 C-9.02355469 8.58863281 -9.01195312 7.80617188 -9 7 C-7.68 7.33 -6.36 7.66 -5 8 C-5 10.97 -5 13.94 -5 17 C-4.01 17.33 -3.02 17.66 -2 18 C-2.495 14.535 -2.495 14.535 -3 11 C-3.33 11 -3.66 11 -4 11 C-4 9.35 -4 7.7 -4 6 C-4.99 5.67 -5.98 5.34 -7 5 C-6.21625 4.731875 -5.4325 4.46375 -4.625 4.1875 C-1.71885077 3.15185568 -1.71885077 3.15185568 0 0 Z " fill="#10532B" transform="translate(95,83)"/>
<path d="M0 0 C4.20201269 3.16688274 6.6708529 6.63978834 7.578125 11.8515625 C7.82966446 15.41945115 7.54182829 17.42218572 5.3515625 20.26953125 C0.93880438 22.47591031 -2.85494466 22.56971163 -7.7734375 22.83203125 C-6.7834375 26.46203125 -5.7934375 30.09203125 -4.7734375 33.83203125 C-7.7734375 35.83203125 -7.7734375 35.83203125 -11.7734375 35.83203125 C-11.7734375 36.49203125 -11.7734375 37.15203125 -11.7734375 37.83203125 C-23.37239243 38.59623765 -23.37239243 38.59623765 -28.2109375 35.95703125 C-30.54164548 31.2956153 -29.24674344 27.66485009 -27.7734375 22.83203125 C-28.43730469 22.80625 -29.10117188 22.78046875 -29.78515625 22.75390625 C-33.9502021 22.48637046 -37.13246565 22.15251717 -40.8984375 20.26953125 C-43.04639629 17.47718483 -43.50113857 15.49877935 -43.24609375 11.98046875 C-41.88714167 5.80341384 -38.310783 1.92066205 -33.2109375 -1.60546875 C-22.92269187 -8.14929222 -9.84697611 -6.48512303 0 0 Z " fill="#62340F" transform="translate(97.7734375,50.16796875)"/>
<path d="M0 0 C9.73262764 7.88039747 18.12447408 20.73321675 19.6328125 33.328125 C20.80078054 49.81488565 20.93110677 66.96640315 11.6328125 81.328125 C10.6428125 81.823125 10.6428125 81.823125 9.6328125 82.328125 C9.849375 81.81765625 10.0659375 81.3071875 10.2890625 80.78125 C12.80316749 74.21664253 12.95147201 68.30322767 12.6328125 61.328125 C14.1178125 61.823125 14.1178125 61.823125 15.6328125 62.328125 C15.6328125 62.988125 15.6328125 63.648125 15.6328125 64.328125 C16.59351684 61.44601198 16.73863133 59.62962456 16.6953125 56.640625 C16.68628906 55.83238281 16.67726563 55.02414063 16.66796875 54.19140625 C16.65636719 53.57652344 16.64476562 52.96164063 16.6328125 52.328125 C16.3028125 52.328125 15.9728125 52.328125 15.6328125 52.328125 C15.60703125 51.17957031 15.58125 50.03101563 15.5546875 48.84765625 C15.02408496 32.36870836 11.87156392 17.99067517 -0.4296875 6.078125 C-13.62596094 -4.90370529 -28.66034556 -8.14872291 -45.3671875 -6.671875 C-53.94545272 -5.08096385 -61.25630459 -1.66462258 -68.3671875 3.328125 C-68.99109375 3.75609375 -69.615 4.1840625 -70.2578125 4.625 C-79.61375973 11.7894641 -85.21334572 22.94173337 -87.3671875 34.328125 C-87.74387248 37.94964621 -87.95789532 41.57202633 -88.04077148 45.21191406 C-88.08658114 46.92017097 -88.21896591 48.62569422 -88.3671875 50.328125 C-89.3571875 50.823125 -89.3571875 50.823125 -90.3671875 51.328125 C-89.7071875 56.938125 -89.0471875 62.548125 -88.3671875 68.328125 C-89.0271875 68.328125 -89.6871875 68.328125 -90.3671875 68.328125 C-94.65490111 50.6055754 -95.06400566 32.48433246 -86.08203125 16.1015625 C-77.27160271 1.85235006 -65.31114145 -6.9773231 -49.08203125 -11.27734375 C-31.12206822 -13.88735277 -14.89213687 -10.51787884 0 0 Z " fill="#10401E" transform="translate(116.3671875,31.671875)"/>
<path d="M0 0 C0.3690205 10.55808656 0.3690205 10.55808656 -2 15 C-2.66 14.67 -3.32 14.34 -4 14 C-4.625 11.9375 -4.625 11.9375 -5 10 C-4.89300781 10.78503906 -4.78601563 11.57007812 -4.67578125 12.37890625 C-3.6135791 21.68745195 -4.99154857 26.53247312 -10.6875 34 C-16.32897952 40.7965905 -22.92641538 47.17111116 -31 51 C-33.8125 51.25 -33.8125 51.25 -36 51 C-37.485 51.495 -37.485 51.495 -39 52 C-40.99961564 52.03920815 -43.00049364 52.04443347 -45 52 C-44.34 51.566875 -43.68 51.13375 -43 50.6875 C-42.34 50.130625 -41.68 49.57375 -41 49 C-41 48.01 -41 47.02 -41 46 C-42.98 46 -44.96 46 -47 46 C-47.33 44.02 -47.66 42.04 -48 40 C-45.525 39.505 -45.525 39.505 -43 39 C-42.87625 39.804375 -42.7525 40.60875 -42.625 41.4375 C-42.41875 42.283125 -42.2125 43.12875 -42 44 C-41.34 44.33 -40.68 44.66 -40 45 C-40.2475 44.0925 -40.495 43.185 -40.75 42.25 C-41 39 -41 39 -39.0625 36.625 C-38.381875 36.08875 -37.70125 35.5525 -37 35 C-35.0625 35.6875 -35.0625 35.6875 -33 37 C-32.25 39.625 -32.25 39.625 -32 42 C-31.34 42 -30.68 42 -30 42 C-30.30782496 40.35328588 -30.62139234 38.70764424 -30.9375 37.0625 C-31.11152344 36.14597656 -31.28554687 35.22945312 -31.46484375 34.28515625 C-31.77714988 32.04710156 -31.77714988 32.04710156 -33 31 C-33.33 31 -33.66 31 -34 31 C-34 29.02 -34 27.04 -34 25 C-32.02 25 -30.04 25 -28 25 C-28 24.34 -28 23.68 -28 23 C-31.96 23.495 -31.96 23.495 -36 24 C-36 23.01 -36 22.02 -36 21 C-32.04 21 -28.08 21 -24 21 C-23.67 20.01 -23.34 19.02 -23 18 C-22.505 18.309375 -22.01 18.61875 -21.5 18.9375 C-18.02013219 20.41644382 -14.75971491 20.62402851 -11 21 C-10.67 20.34 -10.34 19.68 -10 19 C-10 19.99 -10 20.98 -10 22 C-8.68 21.67 -7.36 21.34 -6 21 C-6 16.71 -6 12.42 -6 8 C-6.66 7.67 -7.32 7.34 -8 7 C-8 9.31 -8 11.62 -8 14 C-12 9.25 -12 9.25 -12 7 C-13.32 7 -14.64 7 -16 7 C-16.66 5.02 -17.32 3.04 -18 1 C-15.1875205 0.83298107 -12.37501801 0.66636797 -9.5625 0.5 C-8.76005859 0.45230469 -7.95761719 0.40460938 -7.13085938 0.35546875 C-1.11328125 0 -1.11328125 0 0 0 Z " fill="#0F522B" transform="translate(134,83)"/>
<path d="M0 0 C0.99 0.33 1.98 0.66 3 1 C4.36515314 1.11265547 5.73477212 1.17582586 7.10424805 1.20532227 C7.92487228 1.22526749 8.74549652 1.24521271 9.59098816 1.26576233 C10.9129998 1.29083107 10.9129998 1.29083107 12.26171875 1.31640625 C13.62040825 1.3475779 13.62040825 1.3475779 15.00654602 1.37937927 C17.90012016 1.44476558 20.79378507 1.50370904 23.6875 1.5625 C25.64909793 1.6056956 27.61068668 1.64931023 29.57226562 1.69335938 C34.38141739 1.80043582 39.19066046 1.90173414 44 2 C44.66 3.98 45.32 5.96 46 8 C44.68 8.33 43.36 8.66 42 9 C43.32 13.29 44.64 17.58 46 22 C44.68 22 43.36 22 42 22 C42 21.01 42 20.02 42 19 C40.68 19 39.36 19 38 19 C38 19.99 38 20.98 38 22 C37.01 21.67 36.02 21.34 35 21 C35.99 17.7 36.98 14.4 38 11 C37.01 10.67 36.02 10.34 35 10 C34.90912109 11.17369141 34.90912109 11.17369141 34.81640625 12.37109375 C34.73261719 13.38300781 34.64882813 14.39492187 34.5625 15.4375 C34.48128906 16.44683594 34.40007813 17.45617187 34.31640625 18.49609375 C34 21 34 21 33 22 C31.48071962 22.07179964 29.95832518 22.08392007 28.4375 22.0625 C27.61121094 22.05347656 26.78492187 22.04445313 25.93359375 22.03515625 C24.97646484 22.01775391 24.97646484 22.01775391 24 22 C24 21.34 24 20.68 24 20 C23.01 20.33 22.02 20.66 21 21 C21 21.99 21 22.98 21 24 C20.38511719 23.90460938 19.77023438 23.80921875 19.13671875 23.7109375 C18.32847656 23.60007812 17.52023438 23.48921875 16.6875 23.375 C15.88699219 23.25898437 15.08648437 23.14296875 14.26171875 23.0234375 C11.71276785 22.78466593 11.71276785 22.78466593 9 25 C8.7497843 28.08365871 8.7497843 28.08365871 9 31 C7.3009831 28.9316316 6.10237376 27.44788522 5.5 24.8125 C5.335 24.214375 5.17 23.61625 5 23 C4.01 22.67 3.02 22.34 2 22 C1.33333333 14.66666667 0.66666667 7.33333333 0 0 Z " fill="#164B27" transform="translate(25,81)"/>
<path d="M0 0 C2.83727325 -0.26667539 5.45383045 -0.34791234 8.2890625 -0.29296875 C9.10748627 -0.28872391 9.92591003 -0.28447906 10.76913452 -0.28010559 C13.38808836 -0.26328679 16.00627802 -0.22562974 18.625 -0.1875 C20.3984264 -0.17245726 22.17186484 -0.15876814 23.9453125 -0.14648438 C28.2971703 -0.11337292 32.64845551 -0.06156952 37 0 C37 0.33 37 0.66 37 1 C32.05 1.33 27.1 1.66 22 2 C22.33 3.65 22.66 5.3 23 7 C24.32 7 25.64 7 27 7 C28.75 9.5 28.75 9.5 30 12 C30.33 10.35 30.66 8.7 31 7 C31.99 7.33 32.98 7.66 34 8 C33.67 12.29 33.34 16.58 33 21 C31.68 21.33 30.36 21.66 29 22 C28.67 21.67 28.34 21.34 28 21 C25.32941149 20.85884839 22.67567762 20.95752893 20 21 C19.67 19.68 19.34 18.36 19 17 C17.68 17 16.36 17 15 17 C15 17.99 15 18.98 15 20 C12.69 20 10.38 20 8 20 C7.34 18.68 6.68 17.36 6 16 C6 17.32 6 18.64 6 20 C1.71 20.66 -2.58 21.32 -7 22 C-8.99390001 18.01219998 -9.22686963 16.52852428 -9.125 12.25 C-9.09792969 10.77273437 -9.09792969 10.77273437 -9.0703125 9.265625 C-9.04710938 8.51796875 -9.02390625 7.7703125 -9 7 C-7.68 7.33 -6.36 7.66 -5 8 C-5 10.97 -5 13.94 -5 17 C-4.01 17.33 -3.02 17.66 -2 18 C-2.33 15.69 -2.66 13.38 -3 11 C-3.33 11 -3.66 11 -4 11 C-4 9.35 -4 7.7 -4 6 C-4.99 5.67 -5.98 5.34 -7 5 C-6.21625 4.731875 -5.4325 4.46375 -4.625 4.1875 C-1.71885077 3.15185568 -1.71885077 3.15185568 0 0 Z " fill="#144D2B" transform="translate(95,83)"/>
<path d="M0 0 C1.11503906 -0.01611328 2.23007813 -0.03222656 3.37890625 -0.04882812 C9.22979365 -0.05231495 13.56745473 0.0212418 18.5 3.3125 C18.17 4.3025 17.84 5.2925 17.5 6.3125 C15.43359375 7.04296875 15.43359375 7.04296875 12.9375 7.5 C12.11121094 7.65855469 11.28492187 7.81710938 10.43359375 7.98046875 C9.79550781 8.09003906 9.15742187 8.19960937 8.5 8.3125 C8.78211877 9.9391848 9.07602375 11.56382896 9.375 13.1875 C9.61863281 14.54488281 9.61863281 14.54488281 9.8671875 15.9296875 C10.33044703 18.47755988 10.33044703 18.47755988 12.5 20.3125 C9.5 22.3125 9.5 22.3125 5.5 22.3125 C5.5 22.9725 5.5 23.6325 5.5 24.3125 C3.41731407 24.39376087 1.33371342 24.45180839 -0.75 24.5 C-2.49023438 24.55220703 -2.49023438 24.55220703 -4.265625 24.60546875 C-7.72268407 24.29232934 -9.01565563 23.65540892 -11.5 21.3125 C-11.2834375 20.04792969 -11.2834375 20.04792969 -11.0625 18.7578125 C-10.876875 17.66210938 -10.69125 16.56640625 -10.5 15.4375 C-10.314375 14.34695312 -10.12875 13.25640625 -9.9375 12.1328125 C-9.44890292 9.45878036 -9.44890292 9.45878036 -9.5 7.3125 C-12.47 6.9825 -15.44 6.6525 -18.5 6.3125 C-18.5 4.9925 -18.5 3.6725 -18.5 2.3125 C-12.49283719 -0.34207371 -6.43819608 -0.0186075 0 0 Z " fill="#61350F" transform="translate(80.5,63.6875)"/>
<path d="M0 0 C0.66 0.33 1.32 0.66 2 1 C0.68 2.65 -0.64 4.3 -2 6 C-1.34 6.66 -0.68 7.32 0 8 C0.1953125 10.3828125 0.1953125 10.3828125 0.125 13.125 C0.10695312 14.03507812 0.08890625 14.94515625 0.0703125 15.8828125 C0.04710937 16.58148438 0.02390625 17.28015625 0 18 C-1.32 17.67 -2.64 17.34 -4 17 C-4 14.03 -4 11.06 -4 8 C-4.99 7.67 -5.98 7.34 -7 7 C-6.85915204 8.79206547 -6.71216299 10.58364917 -6.5625 12.375 C-6.48128906 13.37273437 -6.40007812 14.37046875 -6.31640625 15.3984375 C-6.15034374 17.97927613 -6.15034374 17.97927613 -5 20 C-6.32 19.67 -7.64 19.34 -9 19 C-9 15.04 -9 11.08 -9 7 C-9.99 7.33 -10.98 7.66 -12 8 C-13.22520264 11.00847418 -13.22520264 11.00847418 -14 14 C-17 10.375 -17 10.375 -17 7 C-18.32 7 -19.64 7 -21 7 C-20.67 7.66 -20.34 8.32 -20 9 C-19.93003986 10.70702735 -19.91559846 12.41668003 -19.9375 14.125 C-19.94652344 15.03507812 -19.95554687 15.94515625 -19.96484375 16.8828125 C-19.97644531 17.58148438 -19.98804687 18.28015625 -20 19 C-19.67 19 -19.34 19 -19 19 C-19 17.02 -19 15.04 -19 13 C-16.64046906 15.35953094 -16.50858587 16.77895617 -16 20 C-15.34 20 -14.68 20 -14 20 C-13.67 18.02 -13.34 16.04 -13 14 C-12.67 14 -12.34 14 -12 14 C-12 15.98 -12 17.96 -12 20 C-11.01 20 -10.02 20 -9 20 C-9.495 22.475 -9.495 22.475 -10 25 C-10.66 24.34 -11.32 23.68 -12 23 C-13.67542976 23.28604898 -15.34385343 23.61781233 -17 24 C-17.33 23.67 -17.66 23.34 -18 23 C-19.65 24.65 -21.3 26.3 -23 28 C-23 27.01 -23 26.02 -23 25 C-23.66 25 -24.32 25 -25 25 C-25 26.32 -25 27.64 -25 29 C-25.99 29 -26.98 29 -28 29 C-28.33 28.34 -28.66 27.68 -29 27 C-31.12364481 26.77390663 -31.12364481 26.77390663 -32.625 28.5 C-33.07875 28.995 -33.5325 29.49 -34 30 C-34 28.68 -34 27.36 -34 26 C-35.32 25.67 -36.64 25.34 -38 25 C-38 26.65 -38 28.3 -38 30 C-40 27 -40 27 -39.625 24.8125 C-39.41875 24.214375 -39.2125 23.61625 -39 23 C-39.928125 22.9175 -40.85625 22.835 -41.8125 22.75 C-45 22 -45 22 -46.875 19.9375 C-47.24625 19.298125 -47.6175 18.65875 -48 18 C-46.68 17.67 -45.36 17.34 -44 17 C-43.67 17.66 -43.34 18.32 -43 19 C-40.36 19 -37.72 19 -35 19 C-34.95101562 18.21753906 -34.90203125 17.43507813 -34.8515625 16.62890625 C-34.77679688 15.61699219 -34.70203125 14.60507813 -34.625 13.5625 C-34.55539063 12.55316406 -34.48578125 11.54382813 -34.4140625 10.50390625 C-34.27742188 9.67761719 -34.14078125 8.85132812 -34 8 C-33.34 7.67 -32.68 7.34 -32 7 C-32 7.66 -32 8.32 -32 9 C-31.34 9 -30.68 9 -30 9 C-30.66 12.3 -31.32 15.6 -32 19 C-31.34 19.33 -30.68 19.66 -30 20 C-30 19.01 -30 18.02 -30 17 C-28.68 17 -27.36 17 -26 17 C-26 17.99 -26 18.98 -26 20 C-25.01 19.67 -24.02 19.34 -23 19 C-23.2165625 18.38511719 -23.433125 17.77023438 -23.65625 17.13671875 C-23.9346875 16.32847656 -24.213125 15.52023438 -24.5 14.6875 C-24.7784375 13.88699219 -25.056875 13.08648437 -25.34375 12.26171875 C-26 10 -26 10 -26 7 C-26.99 6.67 -27.98 6.34 -29 6 C-27.02 5.67 -25.04 5.34 -23 5 C-23 4.34 -23 3.68 -23 3 C-22.01 3.33 -21.02 3.66 -20 4 C-17.77425665 4.22451458 -15.54418481 4.40782878 -13.3125 4.5625 C-12.13300781 4.64628906 -10.95351562 4.73007813 -9.73828125 4.81640625 C-8.38283203 4.90728516 -8.38283203 4.90728516 -7 5 C-7 4.34 -7 3.68 -7 3 C-4.69631264 1.93347808 -2.35981813 0.93578995 0 0 Z " fill="#184B1F" transform="translate(93,83)"/>
<path d="M0 0 C1.5 1.375 1.5 1.375 3 3 C3 3.66 3 4.32 3 5 C5.31 5 7.62 5 10 5 C10 4.01 10 3.02 10 2 C11.32 2 12.64 2 14 2 C13.67 2.66 13.34 3.32 13 4 C12.34 3.67 11.68 3.34 11 3 C10.67 4.32 10.34 5.64 10 7 C6.04 7 2.08 7 -2 7 C-2 7.33 -2 7.66 -2 8 C0.475 8.495 0.475 8.495 3 9 C3.33 8.34 3.66 7.68 4 7 C4.66 7.33 5.32 7.66 6 8 C6 8.66 6 9.32 6 10 C4.02 10 2.04 10 0 10 C1.20381448 12.49361571 2.45428722 14.68143083 4 17 C3.34 17 2.68 17 2 17 C2.66 20.3 3.32 23.6 4 27 C3.34 27 2.68 27 2 27 C1.01 25.02 0.02 23.04 -1 21 C-3.22739701 22.06201737 -3.22739701 22.06201737 -6 24 C-6 24.66 -6 25.32 -6 26 C-5.01 26.66 -4.02 27.32 -3 28 C-3.99 28 -4.98 28 -6 28 C-6 28.66 -6 29.32 -6 30 C-8.46800047 28.84826645 -10.04783565 27.95216435 -12 26 C-11.01 26 -10.02 26 -9 26 C-9 25.34 -9 24.68 -9 24 C-10.32 24.33 -11.64 24.66 -13 25 C-13 26.98 -13 28.96 -13 31 C-11.02 31 -9.04 31 -7 31 C-6.67 32.32 -6.34 33.64 -6 35 C-6.99 35.495 -6.99 35.495 -8 36 C-4.95613276 36.08226668 -2.92824652 35.97608217 0 35 C0.61617187 34.87367188 1.23234375 34.74734375 1.8671875 34.6171875 C11.726508 31.76412406 18.68085805 23.58022884 25 16 C25 20.95565961 21.37338953 23.6203865 18 27 C4.80418996 38.85675182 -9.48184159 42.69968976 -27 42 C-27.33 41.34 -27.66 40.68 -28 40 C-23.38 39.67 -18.76 39.34 -14 39 C-14.33 38.34 -14.66 37.68 -15 37 C-17.02463255 36.34786708 -17.02463255 36.34786708 -19 36 C-19 35.34 -19 34.68 -19 34 C-18.34 34 -17.68 34 -17 34 C-17 33.34 -17 32.68 -17 32 C-16.34 32 -15.68 32 -15 32 C-15 29.69 -15 27.38 -15 25 C-15.66 25 -16.32 25 -17 25 C-17.33 25.99 -17.66 26.98 -18 28 C-18.33 27.01 -18.66 26.02 -19 25 C-19.66 24.67 -20.32 24.34 -21 24 C-20.32453125 23.91363281 -19.6490625 23.82726562 -18.953125 23.73828125 C-13.11787646 22.95954965 -13.11787646 22.95954965 -8.6875 19.375 C-8.130625 18.59125 -7.57375 17.8075 -7 17 C-4.25 16.6875 -4.25 16.6875 -2 17 C-1.67 14.69 -1.34 12.38 -1 10 C-1.66 10 -2.32 10 -3 10 C-3.33 11.32 -3.66 12.64 -4 14 C-4 12.68 -4 11.36 -4 10 C-4.66 10 -5.32 10 -6 10 C-6.33 11.32 -6.66 12.64 -7 14 C-7.33 12.35 -7.66 10.7 -8 9 C-7.34 9 -6.68 9 -6 9 C-5.67 7.68 -5.34 6.36 -5 5 C-3.35 4.67 -1.7 4.34 0 4 C0 2.68 0 1.36 0 0 Z " fill="#114921" transform="translate(100,98)"/>
<path d="M0 0 C3.63 0 7.26 0 11 0 C11.66 1.32 12.32 2.64 13 4 C13.66 4 14.32 4 15 4 C15 2.68 15 1.36 15 0 C16.32 0.33 17.64 0.66 19 1 C19.66 4.3 20.32 7.6 21 11 C22.32 11 23.64 11 25 11 C25 7.37 25 3.74 25 0 C26.32 0.33 27.64 0.66 29 1 C28.85962479 2.81293089 28.71255111 4.6253443 28.5625 6.4375 C28.48128906 7.44683594 28.40007813 8.45617187 28.31640625 9.49609375 C28 12 28 12 27 13 C25.48071962 13.07179964 23.95832518 13.08392007 22.4375 13.0625 C21.61121094 13.05347656 20.78492187 13.04445313 19.93359375 13.03515625 C19.29550781 13.02355469 18.65742187 13.01195313 18 13 C18 12.34 18 11.68 18 11 C17.01 11.33 16.02 11.66 15 12 C15 12.99 15 13.98 15 15 C14.38511719 14.90460938 13.77023438 14.80921875 13.13671875 14.7109375 C12.32847656 14.60007812 11.52023438 14.48921875 10.6875 14.375 C9.88699219 14.25898437 9.08648437 14.14296875 8.26171875 14.0234375 C5.71276785 13.78466593 5.71276785 13.78466593 3 16 C2.7497843 19.08365871 2.7497843 19.08365871 3 22 C1.3009831 19.9316316 0.10237376 18.44788522 -0.5 15.8125 C-0.665 15.214375 -0.83 14.61625 -1 14 C-1.99 13.67 -2.98 13.34 -4 13 C-4 10.03 -4 7.06 -4 4 C-3.01 4.495 -3.01 4.495 -2 5 C-2 5.66 -2 6.32 -2 7 C-1.34 7 -0.68 7 0 7 C0 4.69 0 2.38 0 0 Z " fill="#164B1F" transform="translate(31,90)"/>
<path d="M0 0 C0.66 0.33 1.32 0.66 2 1 C2 1.66 2 2.32 2 3 C4.97 3.495 4.97 3.495 8 4 C8.19551338 5.60320974 8.38111983 7.20762986 8.5625 8.8125 C8.66691406 9.70582031 8.77132812 10.59914063 8.87890625 11.51953125 C9 14 9 14 8 17 C7.01 17 6.02 17 5 17 C4.566875 17.474375 4.13375 17.94875 3.6875 18.4375 C2 20 2 20 -0.75 21.1875 C-4 21 -4 21 -5.8046875 19.4140625 C-7.61161748 17.3279502 -9.30364816 15.17629528 -11 13 C-11.7425 12.319375 -12.485 11.63875 -13.25 10.9375 C-15.70232703 8.22242365 -16.68944124 5.40745277 -18 2 C-17.34 2 -16.68 2 -16 2 C-15.01 3.98 -14.02 5.96 -13 8 C-12.67 6.68 -12.34 5.36 -12 4 C-12.66 3.67 -13.32 3.34 -14 3 C-8.53190155 0.5393557 -5.51272919 1.28915301 0 3 C0 2.01 0 1.02 0 0 Z " fill="#0D512C" transform="translate(46,102)"/>
<path d="M0 0 C1.32 0.66 2.64 1.32 4 2 C3.9175 2.7425 3.835 3.485 3.75 4.25 C3.77739747 7.10841834 3.77739747 7.10841834 5.6875 9.375 C7.90742636 11.30725106 7.90742636 11.30725106 10.75 10.75 C11.4925 10.5025 12.235 10.255 13 10 C13.33 8.68 13.66 7.36 14 6 C16.475 6.495 16.475 6.495 19 7 C18.67 8.32 18.34 9.64 18 11 C17.34 11 16.68 11 16 11 C15.34 13.97 14.68 16.94 14 20 C12.68 19.67 11.36 19.34 10 19 C8.6062575 18.9117252 7.20903344 18.8694133 5.8125 18.8671875 C5.03132813 18.86589844 4.25015625 18.86460938 3.4453125 18.86328125 C2.63835937 18.86714844 1.83140625 18.87101562 1 18.875 C0.19304687 18.87113281 -0.61390625 18.86726563 -1.4453125 18.86328125 C-2.22648437 18.86457031 -3.00765625 18.86585937 -3.8125 18.8671875 C-4.87404297 18.86887939 -4.87404297 18.86887939 -5.95703125 18.87060547 C-8.07712733 19.00488498 -9.95957563 19.42283502 -12 20 C-13.49821059 16.62902617 -14 14.79557881 -14 11 C-14.99 10.67 -15.98 10.34 -17 10 C-16.67 8.68 -16.34 7.36 -16 6 C-14.68 6 -13.36 6 -12 6 C-11.67 7.32 -11.34 8.64 -11 10 C-7.94736336 10.98120464 -6.05263664 10.98120464 -3 10 C-2.87625 8.72125 -2.7525 7.4425 -2.625 6.125 C-2.25 2.25 -2.25 2.25 0 0 Z " fill="#D8A322" transform="translate(79,26)"/>
<path d="M0 0 C1.32 0.33 2.64 0.66 4 1 C4.33 3.31 4.66 5.62 5 8 C5.99 8 6.98 8 8 8 C8 8.99 8 9.98 8 11 C8.66 11.33 9.32 11.66 10 12 C10.33 12.99 10.66 13.98 11 15 C11.99 15.66 12.98 16.32 14 17 C13.34 17.33 12.68 17.66 12 18 C11.67 18.99 11.34 19.98 11 21 C7.74431888 23.70038972 4.43369176 25.87256073 0.1875 26.25 C-0.534375 26.1675 -1.25625 26.085 -2 26 C-2.99 26.33 -3.98 26.66 -5 27 C-6.99961564 27.03920815 -9.00049364 27.04443347 -11 27 C-10.34 26.566875 -9.68 26.13375 -9 25.6875 C-8.34 25.130625 -7.68 24.57375 -7 24 C-7 23.01 -7 22.02 -7 21 C-8.98 21 -10.96 21 -13 21 C-13.33 19.02 -13.66 17.04 -14 15 C-12.35 14.67 -10.7 14.34 -9 14 C-8.87625 14.804375 -8.7525 15.60875 -8.625 16.4375 C-8.41875 17.283125 -8.2125 18.12875 -8 19 C-7.34 19.33 -6.68 19.66 -6 20 C-6.37125 18.63875 -6.37125 18.63875 -6.75 17.25 C-7 14 -7 14 -5.0625 11.625 C-4.381875 11.08875 -3.70125 10.5525 -3 10 C-1.0625 10.6875 -1.0625 10.6875 1 12 C1.75 14.625 1.75 14.625 2 17 C2.66 17 3.32 17 4 17 C3.69217504 15.35328588 3.37860766 13.70764424 3.0625 12.0625 C2.88847656 11.14597656 2.71445313 10.22945312 2.53515625 9.28515625 C2.22285012 7.04710156 2.22285012 7.04710156 1 6 C0.67 6 0.34 6 0 6 C0 4.02 0 2.04 0 0 Z " fill="#11542D" transform="translate(100,108)"/>
<path d="M0 0 C0.66 0.33 1.32 0.66 2 1 C1.20335937 2.07314453 1.20335937 2.07314453 0.390625 3.16796875 C-7.1173627 13.75861564 -10.37725961 23.86934153 -10.67358398 36.88378906 C-10.71939364 38.59204597 -10.85177841 40.29756922 -11 42 C-11.99 42.495 -11.99 42.495 -13 43 C-12.34 48.61 -11.68 54.22 -11 60 C-11.66 60 -12.32 60 -13 60 C-17.29371575 42.25264156 -17.43702623 24.58312052 -9 8 C-8.01 8.33 -7.02 8.66 -6 9 C-3.03 4.545 -3.03 4.545 0 0 Z " fill="#093215" transform="translate(39,40)"/>
<path d="M0 0 C0.66 0 1.32 0 2 0 C2.33 0.66 2.66 1.32 3 2 C3.99 1.67 4.98 1.34 6 1 C6 1.99 6 2.98 6 4 C6.33 3.34 6.66 2.68 7 2 C11.875 3.75 11.875 3.75 13 6 C13.66 5.34 14.32 4.68 15 4 C17.625 4.375 17.625 4.375 20 5 C19.6875 7.375 19.6875 7.375 19 10 C16 12 16 12 12 12 C12 11.34 12 10.68 12 10 C10.35 9.67 8.7 9.34 7 9 C6.67 10.98 6.34 12.96 6 15 C6.99 15 7.98 15 9 15 C9 15.66 9 16.32 9 17 C5.0507432 16.44894091 1.65079826 15.61064629 -2 14 C-2.1875 11.125 -2.1875 11.125 -2 8 C-1.01 7.34 -0.02 6.68 1 6 C0.01 6 -0.98 6 -2 6 C-1.34 4.02 -0.68 2.04 0 0 Z " fill="#12542E" transform="translate(57,119)"/>
<path d="M0 0 C6.61613937 0.2340403 6.61613937 0.2340403 9.5625 1.375 C9.8925 2.365 10.2225 3.355 10.5625 4.375 C9.2425 4.705 7.9225 5.035 6.5625 5.375 C7.8825 9.665 9.2025 13.955 10.5625 18.375 C9.2425 18.375 7.9225 18.375 6.5625 18.375 C6.5625 17.385 6.5625 16.395 6.5625 15.375 C5.2425 15.375 3.9225 15.375 2.5625 15.375 C2.5625 16.365 2.5625 17.355 2.5625 18.375 C1.5725 18.045 0.5825 17.715 -0.4375 17.375 C0.5525 14.075 1.5425 10.775 2.5625 7.375 C1.9025 7.375 1.2425 7.375 0.5625 7.375 C0.2325 6.715 -0.0975 6.055 -0.4375 5.375 C-2.96483235 4.71944881 -2.96483235 4.71944881 -5.4375 4.375 C-5.4375 7.015 -5.4375 9.655 -5.4375 12.375 C-8.18326271 8.25635593 -8.18326271 8.25635593 -8.4375 5.375 C-7.06146778 0.32954852 -4.8016937 0.03846484 0 0 Z " fill="#0B542E" transform="translate(60.4375,84.625)"/>
<path d="M0 0 C1.32 0.66 2.64 1.32 4 2 C3.9175 2.7425 3.835 3.485 3.75 4.25 C3.77190936 7.10340054 3.77190936 7.10340054 5.6875 9.3125 C8.39116247 11.28544288 9.72965541 11.36337162 13 11 C12.67 11.99 12.34 12.98 12 14 C11.24074219 13.9278125 10.48148438 13.855625 9.69921875 13.78125 C8.70535156 13.6884375 7.71148437 13.595625 6.6875 13.5 C5.70136719 13.4071875 4.71523437 13.314375 3.69921875 13.21875 C0.95297861 12.95961143 0.95297861 12.95961143 -2 13 C-5 13 -8 13 -11 13 C-11.33 14.65 -11.66 16.3 -12 18 C-10.68 18.33 -9.36 18.66 -8 19 C-9.32 19.33 -10.64 19.66 -12 20 C-13.49821059 16.62902617 -14 14.79557881 -14 11 C-14.99 10.67 -15.98 10.34 -17 10 C-16.67 8.68 -16.34 7.36 -16 6 C-14.68 6 -13.36 6 -12 6 C-11.67 7.32 -11.34 8.64 -11 10 C-7.94736336 10.98120464 -6.05263664 10.98120464 -3 10 C-2.87625 8.72125 -2.7525 7.4425 -2.625 6.125 C-2.25 2.25 -2.25 2.25 0 0 Z " fill="#C7A029" transform="translate(79,26)"/>
<path d="M0 0 C0.99 0.33 1.98 0.66 3 1 C3 1.99 3 2.98 3 4 C4.01126953 3.73896484 4.01126953 3.73896484 5.04296875 3.47265625 C8.58498188 2.90649563 11.74094434 3.13708878 15.3125 3.4375 C16.56675781 3.53933594 17.82101563 3.64117187 19.11328125 3.74609375 C20.06589844 3.82988281 21.01851562 3.91367188 22 4 C21.67 4.66 21.34 5.32 21 6 C20.01 6 19.02 6 18 6 C18.66 7.98 19.32 9.96 20 12 C19.01 11.67 18.02 11.34 17 11 C17 10.34 17 9.68 17 9 C13.37 9 9.74 9 6 9 C6 11.31 6 13.62 6 16 C5.34 16 4.68 16 4 16 C0.04887163 11.4166911 0.29271924 5.76354093 0 0 Z " fill="#0D522B" transform="translate(25,81)"/>
<path d="M0 0 C1.11503906 -0.01611328 2.23007813 -0.03222656 3.37890625 -0.04882812 C9.22979365 -0.05231495 13.56745473 0.0212418 18.5 3.3125 C18.17 4.3025 17.84 5.2925 17.5 6.3125 C13.045 6.8075 13.045 6.8075 8.5 7.3125 C8.17 5.6625 7.84 4.0125 7.5 2.3125 C5.39590361 2.28548592 3.29170822 2.26609777 1.1875 2.25 C-0.57013672 2.23259766 -0.57013672 2.23259766 -2.36328125 2.21484375 C-5.53059195 2.16350102 -5.53059195 2.16350102 -8.5 3.3125 C-8.83 4.6325 -9.16 5.9525 -9.5 7.3125 C-12.47 6.9825 -15.44 6.6525 -18.5 6.3125 C-18.5 4.9925 -18.5 3.6725 -18.5 2.3125 C-12.49283719 -0.34207371 -6.43819608 -0.0186075 0 0 Z " fill="#9D6A2E" transform="translate(80.5,63.6875)"/>
<path d="M0 0 C0.99 0 1.98 0 3 0 C4.32 4.29 5.64 8.58 7 13 C5.68 13 4.36 13 3 13 C3 12.01 3 11.02 3 10 C1.68 10 0.36 10 -1 10 C-1 10.99 -1 11.98 -1 13 C-3.31 13 -5.62 13 -8 13 C-8.66 11.68 -9.32 10.36 -10 9 C-10 10.32 -10 11.64 -10 13 C-11.32 12.67 -12.64 12.34 -14 12 C-13.67 8.37 -13.34 4.74 -13 1 C-12.34 1 -11.68 1 -11 1 C-10.67 2.65 -10.34 4.3 -10 6 C-9.34 6 -8.68 6 -8 6 C-7.67 4.35 -7.34 2.7 -7 1 C-6.34 1.33 -5.68 1.66 -5 2 C-5.226875 3.093125 -5.45375 4.18625 -5.6875 5.3125 C-5.8421875 7.1378125 -5.8421875 7.1378125 -6 9 C-4.59627278 10.73787713 -4.59627278 10.73787713 -3 12 C-2.86722656 11.38511719 -2.73445313 10.77023438 -2.59765625 10.13671875 C-2.33275391 8.92435547 -2.33275391 8.92435547 -2.0625 7.6875 C-1.88847656 6.88699219 -1.71445313 6.08648437 -1.53515625 5.26171875 C-1 3 -1 3 0 0 Z " fill="#ACA74E" transform="translate(111,90)"/>
<path d="M0 0 C0 4.95565961 -3.62661047 7.6203865 -7 11 C-20.19581004 22.85675182 -34.48184159 26.69968976 -52 26 C-52.33 25.34 -52.66 24.68 -53 24 C-47.72 24 -42.44 24 -37 24 C-37 23.01 -37 22.02 -37 21 C-36.38511719 20.93941406 -35.77023438 20.87882812 -35.13671875 20.81640625 C-34.32847656 20.73261719 -33.52023438 20.64882812 -32.6875 20.5625 C-31.48673828 20.44068359 -31.48673828 20.44068359 -30.26171875 20.31640625 C-27.83912821 20.04734307 -27.83912821 20.04734307 -25 19 C-24.38382813 18.87367188 -23.76765625 18.74734375 -23.1328125 18.6171875 C-13.273492 15.76412406 -6.31914195 7.58022884 0 0 Z " fill="#0C381C" transform="translate(125,114)"/>
<path d="M0 0 C1.32 0.33 2.64 0.66 4 1 C4.66 4.3 5.32 7.6 6 11 C7.32 11 8.64 11 10 11 C10 7.37 10 3.74 10 0 C11.32 0.33 12.64 0.66 14 1 C13.85962479 2.81293089 13.71255111 4.6253443 13.5625 6.4375 C13.48128906 7.44683594 13.40007813 8.45617187 13.31640625 9.49609375 C13 12 13 12 12 13 C10.48071962 13.07179964 8.95832518 13.08392007 7.4375 13.0625 C6.61121094 13.05347656 5.78492188 13.04445313 4.93359375 13.03515625 C4.29550781 13.02355469 3.65742187 13.01195313 3 13 C3 12.34 3 11.68 3 11 C2.01 11.33 1.02 11.66 0 12 C-0.99 12.33 -1.98 12.66 -3 13 C-2.01 8.71 -1.02 4.42 0 0 Z " fill="#A7A14A" transform="translate(46,90)"/>
<path d="M0 0 C1.9375 0.5 1.9375 0.5 4 2 C4.68790422 4.69658452 4.81946464 7.2017019 5 10 C3.35 10.66 1.7 11.32 0 12 C0 12.66 0 13.32 0 14 C-0.66 14 -1.32 14 -2 14 C-2 14.66 -2 15.32 -2 16 C-3.98 16.33 -5.96 16.66 -8 17 C-7.34 16.566875 -6.68 16.13375 -6 15.6875 C-5.01 14.8521875 -5.01 14.8521875 -4 14 C-4 13.01 -4 12.02 -4 11 C-5.98 11 -7.96 11 -10 11 C-10.33 9.02 -10.66 7.04 -11 5 C-9.35 4.67 -7.7 4.34 -6 4 C-5.87625 4.804375 -5.7525 5.60875 -5.625 6.4375 C-5.315625 7.7059375 -5.315625 7.7059375 -5 9 C-4.34 9.33 -3.68 9.66 -3 10 C-3.2475 9.0925 -3.495 8.185 -3.75 7.25 C-4 4 -4 4 -2.0625 1.625 C-1.381875 1.08875 -0.70125 0.5525 0 0 Z " fill="#0B522A" transform="translate(97,118)"/>
<path d="M0 0 C1.65 0.33 3.3 0.66 5 1 C5 1.99 5 2.98 5 4 C5.66 3.01 6.32 2.02 7 1 C7.99 1.33 8.98 1.66 10 2 C10 2.66 10 3.32 10 4 C10.99 4 11.98 4 13 4 C13 2.68 13 1.36 13 0 C17 0 17 0 19 1 C19.625 3.5625 19.625 3.5625 20 6 C17 6 14 6 11 6 C8.66365343 6.31151288 6.32961443 6.64159778 4 7 C3.67 7.99 3.34 8.98 3 10 C2.0206121 11.02019573 1.02104551 12.02149805 0 13 C-0.33 13.66 -0.66 14.32 -1 15 C-1.66 15 -2.32 15 -3 15 C-2.86722656 14.41992188 -2.73445313 13.83984375 -2.59765625 13.2421875 C-1.60295999 8.84229018 -0.68631668 4.46105842 0 0 Z " fill="#7D9B76" transform="translate(55,108)"/>
<path d="M0 0 C1.32 0 2.64 0 4 0 C4.66 1.65 5.32 3.3 6 5 C6.433125 4.175 6.86625 3.35 7.3125 2.5 C7.869375 1.675 8.42625 0.85 9 0 C9.99 0 10.98 0 12 0 C12 4.29 12 8.58 12 13 C11.01 13 10.02 13 9 13 C8.67 11.68 8.34 10.36 8 9 C7.67 10.32 7.34 11.64 7 13 C6.34 13 5.68 13 5 13 C4.34 11.35 3.68 9.7 3 8 C3 9.65 3 11.3 3 13 C2.01 12.67 1.02 12.34 0 12 C0 8.04 0 4.08 0 0 Z " fill="#B2A344" transform="translate(72,90)"/>
<path d="M0 0 C0.66 0 1.32 0 2 0 C2.33 0.66 2.66 1.32 3 2 C3.33 1.34 3.66 0.68 4 0 C4.66 0 5.32 0 6 0 C6 2.31 6 4.62 6 7 C5.34 7 4.68 7 4 7 C4 7.66 4 8.32 4 9 C3.34 9 2.68 9 2 9 C2.33 9.66 2.66 10.32 3 11 C3.99 11 4.98 11 6 11 C6.66 11.33 7.32 11.66 8 12 C7.67 12.99 7.34 13.98 7 15 C2.71 15 -1.58 15 -6 15 C-5.01 13.68 -4.02 12.36 -3 11 C-2.29485154 8.85266073 -2.29485154 8.85266073 -2 7 C-1.34 7 -0.68 7 0 7 C0 4.69 0 2.38 0 0 Z " fill="#0F522B" transform="translate(79,123)"/>
<path d="M0 0 C1.65 0.33 3.3 0.66 5 1 C5 1.66 5 2.32 5 3 C7.64 3 10.28 3 13 3 C13.33 4.32 13.66 5.64 14 7 C11.1875 9.0625 11.1875 9.0625 8 11 C6 10.33333333 4 9.66666667 2 9 C2 8.01 2 7.02 2 6 C1.01 6 0.02 6 -1 6 C-1.33 5.01 -1.66 4.02 -2 3 C-1.34 3 -0.68 3 0 3 C0 2.01 0 1.02 0 0 Z " fill="#0E512C" transform="translate(64,128)"/>
<path d="M0 0 C0.58910156 0.20496094 1.17820312 0.40992188 1.78515625 0.62109375 C0.88023438 1.05808594 0.88023438 1.05808594 -0.04296875 1.50390625 C-5.19412657 4.14595171 -8.58131772 6.24431144 -11.21484375 11.62109375 C-12.0745834 14.6915925 -12.49546236 16.65331932 -11.60546875 19.72265625 C-10.30167314 21.90580407 -10.30167314 21.90580407 -7.39453125 22.44921875 C-6.30398437 22.5884375 -5.2134375 22.72765625 -4.08984375 22.87109375 C-2.99414062 23.020625 -1.8984375 23.17015625 -0.76953125 23.32421875 C0.49503906 23.47117187 0.49503906 23.47117187 1.78515625 23.62109375 C3.24122144 28.14202343 2.05548466 31.13758171 0.78515625 35.62109375 C0.12515625 35.62109375 -0.53484375 35.62109375 -1.21484375 35.62109375 C-0.55484375 32.32109375 0.10515625 29.02109375 0.78515625 25.62109375 C-1.53515625 25.49734375 -1.53515625 25.49734375 -3.90234375 25.37109375 C-7.27354987 25.0124548 -9.2636132 24.59670903 -12.33984375 23.05859375 C-14.48645994 20.2679927 -14.93756808 18.28941707 -14.6953125 14.7734375 C-13.44775093 9.18476739 -10.10109531 5.029387 -5.65234375 1.55859375 C-2.21484375 -0.37890625 -2.21484375 -0.37890625 0 0 Z " fill="#3E1909" transform="translate(69.21484375,47.37890625)"/>
<path d="M0 0 C2.00720923 0.28674418 4.0085944 0.61866701 6 1 C5.34 2.98 4.68 4.96 4 7 C-0.95 7 -5.9 7 -11 7 C-11 5.02 -11 3.04 -11 1 C-10.28972656 1.01160156 -9.57945313 1.02320313 -8.84765625 1.03515625 C-7.92855469 1.04417969 -7.00945312 1.05320313 -6.0625 1.0625 C-4.68771484 1.07990234 -4.68771484 1.07990234 -3.28515625 1.09765625 C-1.03406673 1.25949049 -1.03406673 1.25949049 0 0 Z " fill="#C29122" transform="translate(78,37)"/>
<path d="M0 0 C4.875 1.75 4.875 1.75 6 4 C6.66 3.34 7.32 2.68 8 2 C10.625 2.375 10.625 2.375 13 3 C12.6875 5.375 12.6875 5.375 12 8 C9 10 9 10 5 10 C5 9.34 5 8.68 5 8 C2.03 7.505 2.03 7.505 -1 7 C-0.67 4.69 -0.34 2.38 0 0 Z " fill="#6E8E68" transform="translate(64,121)"/>
<path d="M0 0 C0.99 0 1.98 0 3 0 C4.6875 2.5 4.6875 2.5 6 5 C6.33 3.35 6.66 1.7 7 0 C7.99 0.33 8.98 0.66 10 1 C9.67 4.96 9.34 8.92 9 13 C8.01 13 7.02 13 6 13 C5.01 11.02 4.02 9.04 3 7 C3 8.98 3 10.96 3 13 C2.01 13 1.02 13 0 13 C0 8.71 0 4.42 0 0 Z " fill="#B3A444" transform="translate(119,90)"/>
<path d="M0 0 C0 4.95 0 9.9 0 15 C-0.99 15.495 -0.99 15.495 -2 16 C-1.34 21.61 -0.68 27.22 0 33 C-0.66 33 -1.32 33 -2 33 C-3.55068334 26.59050887 -4.38204963 20.25176783 -4.875 13.6875 C-4.948396 12.91100098 -5.02179199 12.13450195 -5.09741211 11.33447266 C-5.35889745 7.25212649 -5.32915077 5.51904545 -3.0703125 1.95703125 C-1 0 -1 0 0 0 Z " fill="#073211" transform="translate(28,67)"/>
<path d="M0 0 C0.33 0.66 0.66 1.32 1 2 C1.66 2 2.32 2 3 2 C2.34 5.3 1.68 8.6 1 12 C1.66 12.33 2.32 12.66 3 13 C3 12.01 3 11.02 3 10 C4.32 10 5.64 10 7 10 C6.67 10.66 6.34 11.32 6 12 C5.34 11.67 4.68 11.34 4 11 C4 11.99 4 12.98 4 14 C-8.68669706 15.40406133 -8.68669706 15.40406133 -12 15 C-13.875 13 -13.875 13 -15 11 C-13.68 10.67 -12.36 10.34 -11 10 C-10.67 10.66 -10.34 11.32 -10 12 C-7.36 12 -4.72 12 -2 12 C-1.93941406 11.21753906 -1.87882812 10.43507813 -1.81640625 9.62890625 C-1.73261719 8.61699219 -1.64882813 7.60507813 -1.5625 6.5625 C-1.48128906 5.55316406 -1.40007813 4.54382813 -1.31640625 3.50390625 C-1 1 -1 1 0 0 Z " fill="#214916" transform="translate(60,90)"/>
<path d="M0 0 C0.99 0 1.98 0 3 0 C3.33 1.65 3.66 3.3 4 5 C4.33 3.35 4.66 1.7 5 0 C5.99 0 6.98 0 8 0 C9.125 3.75 9.125 3.75 8 6 C7.34 6 6.68 6 6 6 C6.99 7.98 7.98 9.96 9 12 C5.125 11.125 5.125 11.125 4 10 C3.67 10.66 3.34 11.32 3 12 C1.68 11.67 0.36 11.34 -1 11 C-0.67 7.37 -0.34 3.74 0 0 Z " fill="#B0A448" transform="translate(33,91)"/>
<path d="M0 0 C1.32 0 2.64 0 4 0 C5.32 4.29 6.64 8.58 8 13 C6.68 13 5.36 13 4 13 C4 12.01 4 11.02 4 10 C2.68 10 1.36 10 0 10 C0 10.99 0 11.98 0 13 C-0.99 12.67 -1.98 12.34 -3 12 C-2.01 8.04 -1.02 4.08 0 0 Z " fill="#9A963F" transform="translate(63,90)"/>
<path d="M0 0 C1.32 0.33 2.64 0.66 4 1 C4 3.97 4 6.94 4 10 C4.99 10.33 5.98 10.66 7 11 C7 7.37 7 3.74 7 0 C7.99 0.33 8.98 0.66 10 1 C9.85904936 2.6254308 9.71207913 4.25034051 9.5625 5.875 C9.48128906 6.77992187 9.40007812 7.68484375 9.31640625 8.6171875 C9 11 9 11 8 13 C5.125 13.125 5.125 13.125 2 13 C0 11 0 11 -0.1953125 8.3984375 C-0.17210938 7.40070313 -0.14890625 6.40296875 -0.125 5.375 C-0.10695313 4.37210937 -0.08890625 3.36921875 -0.0703125 2.3359375 C-0.04710938 1.56507812 -0.02390625 0.79421875 0 0 Z " fill="#9DA95A" transform="translate(86,90)"/>
<path d="M0 0 C0.99 0.33 1.98 0.66 3 1 C3.99 1 4.98 1 6 1 C6.33 2.65 6.66 4.3 7 6 C5.35 6 3.7 6 2 6 C2 6.99 2 7.98 2 9 C2.66 9 3.32 9 4 9 C3.67 9.99 3.34 10.98 3 12 C3 11.34 3 10.68 3 10 C0.94729537 11.84188612 0.94729537 11.84188612 0 14 C-2 12.6875 -2 12.6875 -4 11 C-4 10.01 -4 9.02 -4 8 C-4.66 7.67 -5.32 7.34 -6 7 C-4.68 6.67 -3.36 6.34 -2 6 C-2 5.34 -2 4.68 -2 4 C-1.34 4 -0.68 4 0 4 C0 2.68 0 1.36 0 0 Z " fill="#105531" transform="translate(80,108)"/>
<path d="M0 0 C1.32 0.33 2.64 0.66 4 1 C4.33 3.31 4.66 5.62 5 8 C5.99 8 6.98 8 8 8 C8 8.99 8 9.98 8 11 C8.66 11.33 9.32 11.66 10 12 C10 12.66 10 13.32 10 14 C9.38125 14.12375 8.7625 14.2475 8.125 14.375 C5.80879168 14.87197356 5.80879168 14.87197356 4 17 C3.86722656 16.28972656 3.73445313 15.57945313 3.59765625 14.84765625 C3.42105469 13.92855469 3.24445313 13.00945312 3.0625 12.0625 C2.80146484 10.68771484 2.80146484 10.68771484 2.53515625 9.28515625 C2.22285012 7.04710156 2.22285012 7.04710156 1 6 C0.67 6 0.34 6 0 6 C0 4.02 0 2.04 0 0 Z " fill="#2C5F39" transform="translate(100,108)"/>
<path d="M0 0 C0 2.64 0 5.28 0 8 C-7.42857143 8.28571429 -7.42857143 8.28571429 -11 6 C-11 4.35 -11 2.7 -11 1 C-7.32589215 -0.17571451 -3.83070817 -0.07366746 0 0 Z " fill="#759472" transform="translate(99,108)"/>
<path d="M0 0 C0.66 0 1.32 0 2 0 C2.60150376 7.21804511 2.60150376 7.21804511 0.125 10.4375 C-4.17472792 12.58736396 -8.24428073 12.81531187 -13 13 C-12.34 15.97 -11.68 18.94 -11 22 C-11.66 22.33 -12.32 22.66 -13 23 C-13.66 19.37 -14.32 15.74 -15 12 C-9.49367089 9.79746835 -9.49367089 9.79746835 -5.8125 9.5625 C-4.554375 9.376875 -3.29625 9.19125 -2 9 C0.29013653 5.5647952 0.17842973 4.014669 0 0 Z " fill="#411B0A" transform="translate(103,60)"/>
<path d="M0 0 C7.04440079 -0.21133202 13.24112575 -0.07965362 20 2 C20 2.66 20 3.32 20 4 C17.04335481 5.4783226 14.25770263 5.06032783 11 5 C10.67 4.34 10.34 3.68 10 3 C6.37 3 2.74 3 -1 3 C-0.67 2.01 -0.34 1.02 0 0 Z " fill="#0C3B15" transform="translate(78,20)"/>
<path d="M0 0 C1.32 0 2.64 0 4 0 C4.33 1.32 4.66 2.64 5 4 C8.05263664 4.98120464 9.94736336 4.98120464 13 4 C12.67 4.99 12.34 5.98 12 7 C9.69 7 7.38 7 5 7 C4.67 8.65 4.34 10.3 4 12 C5.32 12.33 6.64 12.66 8 13 C6.68 13.33 5.36 13.66 4 14 C2.50178941 10.62902617 2 8.79557881 2 5 C1.01 4.67 0.02 4.34 -1 4 C-0.67 2.68 -0.34 1.36 0 0 Z " fill="#BF9831" transform="translate(63,32)"/>
<path d="M0 0 C1.670625 0.061875 1.670625 0.061875 3.375 0.125 C3.375 1.115 3.375 2.105 3.375 3.125 C2.715 3.125 2.055 3.125 1.375 3.125 C1.045 4.115 0.715 5.105 0.375 6.125 C-2.265 6.455 -4.905 6.785 -7.625 7.125 C-7.955 6.135 -8.285 5.145 -8.625 4.125 C-7.635 3.465 -6.645 2.805 -5.625 2.125 C-3.625 0.125 -3.625 0.125 0 0 Z " fill="#0C542D" transform="translate(88.625,114.875)"/>
<path d="M0 0 C1.6026782 -0.10824843 3.20745748 -0.18570645 4.8125 -0.25 C5.70582031 -0.29640625 6.59914063 -0.3428125 7.51953125 -0.390625 C10 0 10 0 11.875 1.71875 C13.27540765 4.5584655 13.02888626 5.73872287 12.1875 8.75 C11.97480469 9.54921875 11.76210938 10.3484375 11.54296875 11.171875 C11.36378906 11.77515625 11.18460938 12.3784375 11 13 C9.62437146 11.71034824 8.29233607 10.37310707 7 9 C7 8.34 7 7.68 7 7 C7.66 7 8.32 7 9 7 C9 5.02 9 3.04 9 1 C8.01 1 7.02 1 6 1 C6 2.65 6 4.3 6 6 C5.01 6.495 5.01 6.495 4 7 C4 5.02 4 3.04 4 1 C2.68 0.67 1.36 0.34 0 0 Z " fill="#39571D" transform="translate(32,90)"/>
<path d="M0 0 C2.64 0 5.28 0 8 0 C9.00496852 3.01490557 9.10335303 5.04181692 9.0625 8.1875 C9.05347656 9.08855469 9.04445313 9.98960938 9.03515625 10.91796875 C9.02355469 11.60503906 9.01195313 12.29210937 9 13 C7.078125 12.3203125 7.078125 12.3203125 5 11 C4.171875 8.6171875 4.171875 8.6171875 3.75 5.875 C3.60046875 4.96492188 3.4509375 4.05484375 3.296875 3.1171875 C3.19890625 2.41851562 3.1009375 1.71984375 3 1 C2.01 0.67 1.02 0.34 0 0 Z " fill="#26531F" transform="translate(64,89)"/>
<path d="M0 0 C0.99 0 1.98 0 3 0 C4.32 4.29 5.64 8.58 7 13 C5.68 13 4.36 13 3 13 C3 12.01 3 11.02 3 10 C1.68 9.67 0.36 9.34 -1 9 C-0.67 8.67 -0.34 8.34 0 8 C-0.165 7.21625 -0.33 6.4325 -0.5 5.625 C-1 3 -1 3 0 0 Z " fill="#9F9238" transform="translate(111,90)"/>
<path d="M0 0 C4.29 0.33 8.58 0.66 13 1 C12.67 1.99 12.34 2.98 12 4 C11.34 4 10.68 4 10 4 C10 3.34 10 2.68 10 2 C9.34 2 8.68 2 8 2 C8 2.99 8 3.98 8 5 C5.03 5 2.06 5 -1 5 C-1.33 6.65 -1.66 8.3 -2 10 C-2.33 10 -2.66 10 -3 10 C-3 8.35 -3 6.7 -3 5 C-3.99 4.67 -4.98 4.34 -6 4 C-4.7934375 3.566875 -4.7934375 3.566875 -3.5625 3.125 C-0.8673532 2.26737432 -0.8673532 2.26737432 0 0 Z " fill="#0D542E" transform="translate(94,84)"/>
<path d="M0 0 C3.875 1.875 3.875 1.875 5 3 C5.04092937 5.33297433 5.04241723 7.66705225 5 10 C3.02 10.33 1.04 10.66 -1 11 C-1.33 10.34 -1.66 9.68 -2 9 C-0.68 8.67 0.64 8.34 2 8 C2 6.68 2 5.36 2 4 C-1.93075644 4.57452746 -1.93075644 4.57452746 -5 7 C-5.66 5.02 -6.32 3.04 -7 1 C-5.5459375 1.0309375 -5.5459375 1.0309375 -4.0625 1.0625 C-1.12534105 1.35618499 -1.12534105 1.35618499 0 0 Z " fill="#194921" transform="translate(74,120)"/>
<path d="M0 0 C1.32 0.33 2.64 0.66 4 1 C4.33 2.65 4.66 4.3 5 6 C4.34 6 3.68 6 3 6 C3 7.32 3 8.64 3 10 C0 12 0 12 -3 13 C-2.01 8.71 -1.02 4.42 0 0 Z " fill="#959040" transform="translate(46,90)"/>
<path d="M0 0 C2.35953094 2.35953094 2.49141413 3.77895617 3 7 C3.66 7 4.32 7 5 7 C5.33 5.02 5.66 3.04 6 1 C6.33 1 6.66 1 7 1 C7 2.98 7 4.96 7 7 C7.99 7 8.98 7 10 7 C9.67 8.65 9.34 10.3 9 12 C8.34 11.34 7.68 10.68 7 10 C4.39719432 10.32041397 4.39719432 10.32041397 2 11 C0.19769832 7.17010894 -0.19622241 4.21878192 0 0 Z " fill="#234D1D" transform="translate(74,96)"/>
<path d="M0 0 C1.9375 0.625 1.9375 0.625 4 2 C4.75 5.125 4.75 5.125 5 8 C4.01 8 3.02 8 2 8 C1.34 8.66 0.68 9.32 0 10 C-0.99 10 -1.98 10 -3 10 C-3.75 7.25 -3.75 7.25 -4 4 C-2.0625 1.625 -2.0625 1.625 0 0 Z " fill="#59835E" transform="translate(97,118)"/>
<path d="M0 0 C0.99 0 1.98 0 3 0 C2.67 4.62 2.34 9.24 2 14 C0.68 13.67 -0.64 13.34 -2 13 C-1.85851011 11.3954444 -1.71164314 9.79136233 -1.5625 8.1875 C-1.48128906 7.29417969 -1.40007812 6.40085937 -1.31640625 5.48046875 C-1 3 -1 3 0 0 Z " fill="#9D682D" transform="translate(74,71)"/>
<path d="M0 0 C0.33 0.99 0.66 1.98 1 3 C-0.2065625 3.4021875 -0.2065625 3.4021875 -1.4375 3.8125 C-2.283125 4.204375 -3.12875 4.59625 -4 5 C-4.33 5.99 -4.66 6.98 -5 8 C-7 7 -7 7 -8 5 C-10.02463255 4.34786708 -10.02463255 4.34786708 -12 4 C-12 3.34 -12 2.68 -12 2 C-7.8794254 0.00214565 -4.54805635 -0.17835515 0 0 Z " fill="#0F5530" transform="translate(93,130)"/>
<path d="M0 0 C0.33 0.66 0.66 1.32 1 2 C0.01 2.66 -0.98 3.32 -2 4 C-2 4.66 -2 5.32 -2 6 C-5.90028225 8.60018816 -9.47434569 8.15085514 -14 8 C-10.3561044 3.36231469 -5.36905103 1.92630075 0 0 Z " fill="#0A3A16" transform="translate(62,22)"/>
<path d="M0 0 C1.0828125 0.495 1.0828125 0.495 2.1875 1 C5.01697427 2.00603529 7.02895466 2.16977402 10 2 C10 2.99 10 3.98 10 5 C9.34 5 8.68 5 8 5 C7.67 5.99 7.34 6.98 7 8 C4.69 7.01 2.38 6.02 0 5 C0 3.35 0 1.7 0 0 Z " fill="#145228" transform="translate(84,102)"/>
<path d="M0 0 C0.66 0.33 1.32 0.66 2 1 C2.680625 1.165 3.36125 1.33 4.0625 1.5 C6 2 6 2 7 3 C7.04080783 4.99958364 7.04254356 7.00045254 7 9 C7.99 9.33 8.98 9.66 10 10 C7.03 10.66 4.06 11.32 1 12 C0.67 10.35 0.34 8.7 0 7 C1.65 7.33 3.3 7.66 5 8 C4.34 6.68 3.68 5.36 3 4 C2.34 4.66 1.68 5.32 1 6 C0.01 4.35 -0.98 2.7 -2 1 C-1.34 0.67 -0.68 0.34 0 0 Z " fill="#0F441C" transform="translate(81,105)"/>
<path d="M0 0 C-0.66 1.98 -1.32 3.96 -2 6 C-5.375 5.75 -5.375 5.75 -9 5 C-10.4375 2.9375 -10.4375 2.9375 -11 1 C-6.92630576 -1.03684712 -4.41062136 -1.0257259 0 0 Z " fill="#D8A824" transform="translate(84,38)"/>
<path d="M0 0 C2.95409701 1.37154504 5.44008376 2.98863724 8 5 C7.67 5.66 7.34 6.32 7 7 C7.4125 7.53625 7.825 8.0725 8.25 8.625 C14 16.42857143 14 16.42857143 14 19 C13.34 19 12.68 19 12 19 C10.59765625 17.13671875 10.59765625 17.13671875 9.0625 14.6875 C7.23175147 11.77984057 5.43244213 9.41122897 3 7 C2.6278958 5.67696283 2.29369827 4.34262065 2 3 C1.34 2.01 0.68 1.02 0 0 Z " fill="#0F391A" transform="translate(113,31)"/>
<path d="M0 0 C1.6990169 2.0683684 2.89762624 3.55211478 3.5 6.1875 C3.665 6.785625 3.83 7.38375 4 8 C4.99 8.33 5.98 8.66 7 9 C5.0625 9.5625 5.0625 9.5625 3 10 C2.67 9.67 2.34 9.34 2 9 C-0.67058851 8.85884839 -3.32432238 8.95752893 -6 9 C-5.34 8.34 -4.68 7.68 -4 7 C-3.60235737 5.01178687 -3.26224651 3.01055661 -3 1 C-2.67 1 -2.34 1 -2 1 C-2 3.31 -2 5.62 -2 8 C-1.34 7.67 -0.68 7.34 0 7 C0 4.69 0 2.38 0 0 Z " fill="#244711" transform="translate(121,95)"/>
<path d="M0 0 C0.33 0 0.66 0 1 0 C1.66 1.98 2.32 3.96 3 6 C3.33 6 3.66 6 4 6 C4 9.63 4 13.26 4 17 C3.01 16.67 2.02 16.34 1 16 C-0.40741875 13.18516249 -0.38449037 10.56756106 -0.625 7.4375 C-0.72039062 6.26058594 -0.81578125 5.08367187 -0.9140625 3.87109375 C-0.95660156 2.44990234 -0.95660156 2.44990234 -1 1 C-0.67 0.67 -0.34 0.34 0 0 Z " fill="#03350D" transform="translate(132,64)"/>
<path d="M0 0 C1.5 1.375 1.5 1.375 3 3 C3 3.66 3 4.32 3 5 C5.31 5 7.62 5 10 5 C10 4.01 10 3.02 10 2 C11.32 2 12.64 2 14 2 C13.67 2.66 13.34 3.32 13 4 C12.34 3.67 11.68 3.34 11 3 C10.67 4.32 10.34 5.64 10 7 C8.20866022 7.05391993 6.41686101 7.09275571 4.625 7.125 C3.62726563 7.14820312 2.62953125 7.17140625 1.6015625 7.1953125 C-1 7 -1 7 -3 5 C-2.01 4.67 -1.02 4.34 0 4 C0 2.68 0 1.36 0 0 Z " fill="#214A17" transform="translate(100,98)"/>
<path d="M0 0 C0.99 0 1.98 0 3 0 C3.33 1.98 3.66 3.96 4 6 C3.67 6 3.34 6 3 6 C3 8.31 3 10.62 3 13 C2.01 13 1.02 13 0 13 C0 8.71 0 4.42 0 0 Z " fill="#A2A14D" transform="translate(119,90)"/>
<path d="M0 0 C1.20150716 3.60452147 0.65826332 4.8977976 -0.375 8.5 C-1.93355085 14.33566985 -2.65635772 19.98033529 -3 26 C-3.33 26 -3.66 26 -4 26 C-4.33 21.71 -4.66 17.42 -5 13 C-4.34 13 -3.68 13 -3 13 C-2.87625 11.783125 -2.7525 10.56625 -2.625 9.3125 C-2.21108694 5.93520941 -1.45426549 3.10243305 0 0 Z " fill="#134923" transform="translate(29,54)"/>
<path d="M0 0 C2.83174825 0.94391608 5.09792135 2.09882511 7.6875 3.5625 C8.49574219 4.01753906 9.30398437 4.47257812 10.13671875 4.94140625 C10.75160156 5.29074219 11.36648437 5.64007813 12 6 C11.67 6.66 11.34 7.32 11 8 C10.38125 7.731875 9.7625 7.46375 9.125 7.1875 C4.82005607 5.5516213 0.41968448 4.28728674 -4 3 C-2.1875 1.4375 -2.1875 1.4375 0 0 Z " fill="#144723" transform="translate(98,23)"/>
<path d="M0 0 C0.680625 0.70125 1.36125 1.4025 2.0625 2.125 C6.06921583 6.13171583 10.28311619 9.85541079 15 13 C15.33 13.99 15.66 14.98 16 16 C11.85148495 14.62695166 9.37604334 12.78225091 6.3125 9.6875 C5.16201172 8.54861328 5.16201172 8.54861328 3.98828125 7.38671875 C1.98523405 4.98227505 0.97723851 2.95261902 0 0 Z " fill="#093017" transform="translate(34,114)"/>
<path d="M0 0 C0.33 0 0.66 0 1 0 C1 4.29 1 8.58 1 13 C-1.97 13.66 -4.94 14.32 -8 15 C-8 14.34 -8 13.68 -8 13 C-6.02 13 -4.04 13 -2 13 C-1.93941406 12.14535156 -1.87882812 11.29070312 -1.81640625 10.41015625 C-1.73261719 9.30542969 -1.64882812 8.20070313 -1.5625 7.0625 C-1.48128906 5.96035156 -1.40007812 4.85820313 -1.31640625 3.72265625 C-1 1 -1 1 0 0 Z " fill="#2A450C" transform="translate(96,90)"/>
<path d="M0 0 C2.31 0 4.62 0 7 0 C6.67 1.98 6.34 3.96 6 6 C5.01 6.33 4.02 6.66 3 7 C3 5.02 3 3.04 3 1 C2.34 1 1.68 1 1 1 C1 4.63 1 8.26 1 12 C0.67 12 0.34 12 0 12 C0 8.04 0 4.08 0 0 Z " fill="#6C772E" transform="translate(97,90)"/>
<path d="M0 0 C1.32 0.33 2.64 0.66 4 1 C3.67 3.97 3.34 6.94 3 10 C2.01 10.33 1.02 10.66 0 11 C0 7.37 0 3.74 0 0 Z " fill="#ABA147" transform="translate(86,90)"/>
<path d="M0 0 C1.65 0.33 3.3 0.66 5 1 C4.67 2.65 4.34 4.3 4 6 C2.35 5.67 0.7 5.34 -1 5 C-0.67 3.35 -0.34 1.7 0 0 Z " fill="#89AC85" transform="translate(72,123)"/>
<path d="M0 0 C0.66 0 1.32 0 2 0 C2.33 0.66 2.66 1.32 3 2 C3.99 1.67 4.98 1.34 6 1 C5.34 2.98 4.68 4.96 4 7 C1.03 6.505 1.03 6.505 -2 6 C-1.34 4.02 -0.68 2.04 0 0 Z " fill="#AAC198" transform="translate(57,119)"/>
<path d="M0 0 C0.99 0.33 1.98 0.66 3 1 C3.99 1 4.98 1 6 1 C6.33 2.65 6.66 4.3 7 6 C4 6 1 6 -2 6 C-2 5.34 -2 4.68 -2 4 C-1.34 4 -0.68 4 0 4 C0 2.68 0 1.36 0 0 Z " fill="#9CB693" transform="translate(80,108)"/>
<path d="M0 0 C0.66 0 1.32 0 2 0 C2.33 0.66 2.66 1.32 3 2 C3.33 1.34 3.66 0.68 4 0 C4.66 0 5.32 0 6 0 C6 1.98 6 3.96 6 6 C5.01 5.67 4.02 5.34 3 5 C2.67 5.66 2.34 6.32 2 7 C1.34 7 0.68 7 0 7 C0 4.69 0 2.38 0 0 Z " fill="#AAC59B" transform="translate(79,123)"/>
<path d="M0 0 C4 0 4 0 6 1 C6.625 3.5625 6.625 3.5625 7 6 C3.80097361 6.08886184 1.07322544 5.91058531 -2 5 C-1.34 4.67 -0.68 4.34 0 4 C0 2.68 0 1.36 0 0 Z " fill="#9DB690" transform="translate(68,108)"/>
<path d="M0 0 C0.66 0 1.32 0 2 0 C2 1.98 2 3.96 2 6 C2.66 6 3.32 6 4 6 C3.67 7.98 3.34 9.96 3 12 C1.68 11.67 0.36 11.34 -1 11 C-0.67 7.37 -0.34 3.74 0 0 Z " fill="#C1AE46" transform="translate(98,91)"/>
<path d="M0 0 C1.32 0 2.64 0 4 0 C4.33 2.31 4.66 4.62 5 7 C3.35 7 1.7 7 0 7 C-0.38133299 5.0085944 -0.71325582 3.00720923 -1 1 C-0.67 0.67 -0.34 0.34 0 0 Z " fill="#AAC19F" transform="translate(87,122)"/>
<path d="M0 0 C2.475 0.495 2.475 0.495 5 1 C4.67 3.64 4.34 6.28 4 9 C3.34 9 2.68 9 2 9 C1.34 6.03 0.68 3.06 0 0 Z " fill="#184A1C" transform="translate(114,90)"/>
<path d="M0 0 C1.65 0.33 3.3 0.66 5 1 C4.67 2.32 4.34 3.64 4 5 C3.34 5 2.68 5 2 5 C1.67 5.99 1.34 6.98 1 8 C1 7.01 1 6.02 1 5 C0.34 4.67 -0.32 4.34 -1 4 C-0.67 2.68 -0.34 1.36 0 0 Z " fill="#BA9C31" transform="translate(93,32)"/>
<path d="M0 0 C1.65 0.33 3.3 0.66 5 1 C3.98379995 4.04860014 3.22608429 4.86666922 1 7 C0.67 7.66 0.34 8.32 0 9 C-0.66 9 -1.32 9 -2 9 C-1.34 6.03 -0.68 3.06 0 0 Z " fill="#4F825B" transform="translate(54,114)"/>
<path d="M0 0 C0.66 0.99 1.32 1.98 2 3 C1.01 3.33 0.02 3.66 -1 4 C-1.33 5.65 -1.66 7.3 -2 9 C-4.475 8.01 -4.475 8.01 -7 7 C-6.67 6.34 -6.34 5.68 -6 5 C-5.01 5 -4.02 5 -3 5 C-2.67 4.01 -2.34 3.02 -2 2 C-1.34 2 -0.68 2 0 2 C0 1.34 0 0.68 0 0 Z " fill="#104B24" transform="translate(57,123)"/>
<path d="M0 0 C0.99 0 1.98 0 3 0 C3.66 1.65 4.32 3.3 5 5 C4.34 5.66 3.68 6.32 3 7 C2.01 7 1.02 7 0 7 C-0.38133299 5.0085944 -0.71325582 3.00720923 -1 1 C-0.67 0.67 -0.34 0.34 0 0 Z " fill="#ADC1A2" transform="translate(94,121)"/>
<path d="M0 0 C2.475 0.99 2.475 0.99 5 2 C4.67 2.99 4.34 3.98 4 5 C1.4375 6.1875 1.4375 6.1875 -1 7 C-1.625 5.1875 -1.625 5.1875 -2 3 C-1.34 2.01 -0.68 1.02 0 0 Z " fill="#17552D" transform="translate(75,105)"/>
<path d="M0 0 C0.33 0 0.66 0 1 0 C1 1.65 1 3.3 1 5 C1.66 5 2.32 5 3 5 C2.67 6.65 2.34 8.3 2 10 C1.01 9.67 0.02 9.34 -1 9 C-2.2676439 6.26969007 -2.04311598 5.12647354 -1.0625 2.25 C-0.711875 1.5075 -0.36125 0.765 0 0 Z " fill="#194716" transform="translate(106,92)"/>
<path d="M0 0 C1.32 0 2.64 0 4 0 C4 1.65 4 3.3 4 5 C3.67 5 3.34 5 3 5 C3 7.64 3 10.28 3 13 C2.01 12.67 1.02 12.34 0 12 C0 8.04 0 4.08 0 0 Z " fill="#B2AD57" transform="translate(72,90)"/>
<path d="M0 0 C2.31 0.33 4.62 0.66 7 1 C7.33 2.65 7.66 4.3 8 6 C7.34 5.01 6.68 4.02 6 3 C5.01 2.67 4.02 2.34 3 2 C3 3.32 3 4.64 3 6 C2.01 6.33 1.02 6.66 0 7 C0.33 6.01 0.66 5.02 1 4 C0.61067144 1.85744207 0.61067144 1.85744207 0 0 Z " fill="#184C1D" transform="translate(43,88)"/>
<path d="M0 0 C1.21236328 0.01353516 1.21236328 0.01353516 2.44921875 0.02734375 C3.37154297 0.04474609 3.37154297 0.04474609 4.3125 0.0625 C4.3125 0.3925 4.3125 0.7225 4.3125 1.0625 C2.0025 1.3925 -0.3075 1.7225 -2.6875 2.0625 C-3.0175 3.0525 -3.3475 4.0425 -3.6875 5.0625 C-6.1625 4.0725 -6.1625 4.0725 -8.6875 3.0625 C-6.88341097 -0.54567807 -3.60175697 -0.05219938 0 0 Z " fill="#734311" transform="translate(79.6875,64.9375)"/>
<path d="M0 0 C-0.66 1.32 -1.32 2.64 -2 4 C-5.3 3.34 -8.6 2.68 -12 2 C-7.30614786 -1.12923476 -5.57971023 -0.92995171 0 0 Z " fill="#C08C2D" transform="translate(94,42)"/>
<path d="M0 0 C0.99 0 1.98 0 3 0 C3.66 2.31 4.32 4.62 5 7 C3.68 7 2.36 7 1 7 C1 5.68 1 4.36 1 3 C0.01 2.67 -0.98 2.34 -2 2 C-1.34 2 -0.68 2 0 2 C0 1.34 0 0.68 0 0 Z " fill="#AFAA4E" transform="translate(66,96)"/>
<path d="M0 0 C1.32 0.33 2.64 0.66 4 1 C4.33 2.65 4.66 4.3 5 6 C3.35 6 1.7 6 0 6 C0 4.02 0 2.04 0 0 Z " fill="#D9A323" transform="translate(67,38)"/>
<path d="M0 0 C2.475 0.495 2.475 0.495 5 1 C4.34 2.32 3.68 3.64 3 5 C2.01 5 1.02 5 0 5 C0 3.35 0 1.7 0 0 Z " fill="#9BB58E" transform="translate(55,108)"/>
<path d="M0 0 C1.32 0.33 2.64 0.66 4 1 C4 2.65 4 4.3 4 6 C2.66666667 6 1.33333333 6 0 6 C0 4.02 0 2.04 0 0 Z " fill="#A7BD9A" transform="translate(100,108)"/>
<path d="M0 0 C0.33 1.32 0.66 2.64 1 4 C0.34 4 -0.32 4 -1 4 C-1 4.66 -1 5.32 -1 6 C-0.34 6.33 0.32 6.66 1 7 C-0.9375 6.6875 -0.9375 6.6875 -3 6 C-3.33 5.01 -3.66 4.02 -4 3 C-3.34 2.34 -2.68 1.68 -2 1 C-1.34 1.33 -0.68 1.66 0 2 C0 1.34 0 0.68 0 0 Z " fill="#0A4321" transform="translate(79,108)"/>
<path d="M0 0 C1.5 1.375 1.5 1.375 3 3 C3 3.66 3 4.32 3 5 C0.6875 6.125 0.6875 6.125 -2 7 C-2.99 6.34 -3.98 5.68 -5 5 C-4.360625 4.731875 -3.72125 4.46375 -3.0625 4.1875 C-0.66868314 3.11332248 -0.66868314 3.11332248 0 0 Z " fill="#144721" transform="translate(99,123)"/>
<path d="M0 0 C-0.99 0.33 -1.98 0.66 -3 1 C-3 1.66 -3 2.32 -3 3 C-5.46800047 1.84826645 -7.04783565 0.95216435 -9 -1 C-5.23375329 -2.25541557 -3.62811066 -1.37061958 0 0 Z " fill="#193A1B" transform="translate(97,125)"/>
<path d="M0 0 C2.46800047 1.15173355 4.04783565 2.04783565 6 4 C5.38125 4.12375 4.7625 4.2475 4.125 4.375 C1.80879168 4.87197356 1.80879168 4.87197356 0 7 C0 4.69 0 2.38 0 0 Z " fill="#BCC8AA" transform="translate(104,118)"/>
<path d="M0 0 C0 0.99 0 1.98 0 3 C-0.66 3 -1.32 3 -2 3 C-2.33 3.99 -2.66 4.98 -3 6 C-3.99 5.67 -4.98 5.34 -6 5 C-6 4.34 -6 3.68 -6 3 C-5.34 3 -4.68 3 -4 3 C-4 2.34 -4 1.68 -4 1 C-2 0 -2 0 0 0 Z " fill="#195634" transform="translate(94,104)"/>
<path d="M0 0 C0.99 0 1.98 0 3 0 C3.33 2.31 3.66 4.62 4 7 C3.34 7 2.68 7 2 7 C0.5393715 4.35261084 0 3.10551666 0 0 Z " fill="#B5A549" transform="translate(111,90)"/>
<path d="M0 0 C0.33 0 0.66 0 1 0 C1 1.65 1 3.3 1 5 C-0.98 5.33 -2.96 5.66 -5 6 C-5.33 5.34 -5.66 4.68 -6 4 C-4.7934375 3.566875 -4.7934375 3.566875 -3.5625 3.125 C-0.8673532 2.26737432 -0.8673532 2.26737432 0 0 Z " fill="#13431B" transform="translate(78,125)"/>
<path d="M0 0 C1.74271938 2.297221 3.39911152 4.59866729 5 7 C3.35 7.33 1.7 7.66 0 8 C-1.09658936 4.71023192 -0.79953138 3.28696233 0 0 Z " fill="#0F3619" transform="translate(99,108)"/>
<path d="M0 0 C1.32 0.33 2.64 0.66 4 1 C3.67 2.32 3.34 3.64 3 5 C2.01 5 1.02 5 0 5 C0 3.35 0 1.7 0 0 Z " fill="#B4A644" transform="translate(46,90)"/>
<path d="M0 0 C1.32 0 2.64 0 4 0 C4.33 1.32 4.66 2.64 5 4 C3.35 3.67 1.7 3.34 0 3 C0 2.01 0 1.02 0 0 Z " fill="#A66D25" transform="translate(90,65)"/>
<path d="M0 0 C0.556875 0.495 1.11375 0.99 1.6875 1.5 C4.38162983 3.24754367 5.85375007 3.26218749 9 3 C8.67 3.99 8.34 4.98 8 6 C5.36 5.34 2.72 4.68 0 4 C0 2.68 0 1.36 0 0 Z " fill="#C69F34" transform="translate(83,34)"/>
<path d="" fill="#FFFF00" transform="translate(0,0)"/>
</svg>
